<svg width="101" height="383" viewBox="0 0 101 383" fill="none" xmlns="http://www.w3.org/2000/svg">
<mask id="mask0_2008_7" style="mask-type:luminance" maskUnits="userSpaceOnUse" x="-283" y="7" width="379" height="370">
<path d="M95.017 9.7633L-278.962 7.33133L-282.075 374.04L91.9044 376.472L95.017 9.7633Z" fill="white"/>
</mask>
<g mask="url(#mask0_2008_7)">
<path d="M93.483 193.07C93.4376 198.42 93.1502 203.769 92.6318 209.105L-94.9092 191.845L92.9041 177.025C93.3319 182.357 93.5284 187.719 93.483 193.07ZM-283.312 190.619C-283.358 195.97 -283.172 201.321 -282.734 206.664L-94.9202 191.844L-282.461 174.584C-282.991 179.91 -283.267 185.258 -283.312 190.619ZM87.463 145.413C86.0878 140.236 84.4811 135.111 82.6537 130.071C80.8264 125.031 78.7673 120.064 76.4874 115.193L-94.9092 191.845L87.474 145.413L87.463 145.413ZM-277.304 238.287C-275.928 243.464 -274.322 248.578 -272.494 253.618C-270.667 258.658 -268.608 263.625 -266.339 268.496L-94.9312 191.844L-277.315 238.287L-277.304 238.287ZM60.2996 87.3143C57.1907 82.9105 53.8828 78.6343 50.3974 74.5181C46.9121 70.3912 43.2384 66.4242 39.3985 62.6066L-94.9202 191.844L60.2996 87.3143ZM-250.151 296.385C-247.042 300.789 -243.734 305.065 -240.249 309.182C-236.764 313.298 -233.09 317.275 -229.25 321.093L-94.9313 191.855L-250.151 296.385ZM14.4156 41.8261C9.95359 38.7243 5.35788 35.815 0.628433 33.1089C-4.09 30.403 -8.9312 27.9003 -13.8841 25.6011L-94.9202 191.844L14.4156 41.8261ZM-204.267 341.863C-199.805 344.965 -195.198 347.874 -190.48 350.58C-185.761 353.286 -180.92 355.799 -175.967 358.088L-94.9312 191.844L-204.267 341.863ZM-60.6561 10.8569C-66.0495 9.89779 -71.4776 9.15338 -76.9299 8.65592L-94.9092 191.845L-44.647 14.4313C-49.9264 13.011 -55.2738 11.8159 -60.6561 10.8569ZM-129.162 372.832C-123.769 373.791 -118.341 374.536 -112.889 375.033L-94.9092 191.845L-145.182 369.258C-139.892 370.678 -134.556 371.873 -129.162 372.832ZM-109.766 8.43165C-115.226 8.86888 -120.677 9.5318 -126.075 10.4207C-131.484 11.3095 -136.851 12.435 -142.154 13.7865L-94.8981 191.834L-109.766 8.43165ZM-80.0415 375.247C-74.5813 374.81 -69.1303 374.157 -63.7322 373.258C-58.3232 372.369 -52.9562 371.243 -47.6532 369.892L-94.9092 191.845L-80.0415 375.247ZM-173.114 24.5657C-178.106 26.7895 -182.989 29.2396 -187.764 31.8838C-192.528 34.5281 -197.183 37.3773 -201.698 40.4208L-94.9202 191.844L-173.125 24.5656L-173.114 24.5657ZM-16.7041 359.123C-11.7127 356.9 -6.82948 354.45 -2.05462 351.805C2.70923 349.161 7.3648 346.312 11.879 343.268L-94.8982 191.845L-16.693 359.124L-16.7041 359.123ZM-227.019 60.8741C-230.935 64.6413 -234.664 68.5601 -238.219 72.6413C-241.774 76.7224 -245.154 80.9444 -248.327 85.3073L-94.8982 191.845L-227.008 60.8741L-227.019 60.8741ZM37.2007 322.826C41.1051 319.059 44.8457 315.14 48.4006 311.059C51.9556 306.977 55.3247 302.755 58.508 298.393L-94.9203 191.855L37.1898 322.826L37.2007 322.826ZM-264.997 112.972C-267.359 117.813 -269.502 122.742 -271.415 127.758C-273.328 132.773 -275.021 137.877 -276.484 143.035L-94.9092 191.845L-264.986 112.973L-264.997 112.972ZM75.1674 270.717C77.5296 265.876 79.6727 260.947 81.5854 255.931C83.4982 250.916 85.1916 245.812 86.6545 240.654L-94.9202 191.844L75.1564 270.716L75.1674 270.717Z" fill="#93B0D7"/>
</g>
<mask id="mask1_2008_7" style="mask-type:luminance" maskUnits="userSpaceOnUse" x="-291" y="0" width="392" height="383">
<path d="M100.898 2.52754L-287.778 0L-291 379.601L97.676 382.129L100.898 2.52754Z" fill="white"/>
</mask>
<g mask="url(#mask1_2008_7)">
<mask id="mask2_2008_7" style="mask-type:luminance" maskUnits="userSpaceOnUse" x="-301" y="-13" width="415" height="408">
<path d="M82.346 -12.0669L-300.823 18.9485L-269.571 394.563L113.599 363.547L82.346 -12.0669Z" fill="white"/>
</mask>
<g mask="url(#mask2_2008_7)">
<mask id="mask3_2008_7" style="mask-type:luminance" maskUnits="userSpaceOnUse" x="-304" y="-13" width="418" height="408">
<path d="M82.4773 -12.0781L-303.663 19.1779L-272.411 394.792L113.73 363.536L82.4773 -12.0781Z" fill="white"/>
</mask>
<g mask="url(#mask3_2008_7)">
<path d="M98.0641 175.672C98.5236 181.155 98.7299 186.657 98.6942 192.158L-94.9817 191.307L95.9589 159.295C96.903 164.716 97.6047 170.179 98.0641 175.661L98.0641 175.672ZM-288.028 206.952C-287.568 212.434 -286.866 217.897 -285.922 223.318L-94.9817 191.307L-288.658 190.466C-288.693 195.967 -288.487 201.469 -288.028 206.952ZM87.4287 127.416C85.5365 122.235 83.4125 117.14 81.0568 112.139C78.701 107.138 76.1353 102.244 73.3486 97.4661L-94.9817 191.307L87.4178 127.405L87.4287 127.416ZM-277.381 255.208C-275.489 260.389 -273.365 265.484 -271.009 270.485C-268.653 275.486 -266.088 280.38 -263.301 285.158L-94.9708 191.317L-277.37 255.208L-277.381 255.208ZM54.1509 70.3735C50.5565 66.1384 46.7737 62.0632 42.8135 58.1589C38.8533 54.2545 34.7158 50.5101 30.4335 46.9582L-94.9708 191.317L54.1618 70.3843L54.1509 70.3735ZM-244.114 312.25C-240.52 316.485 -236.737 320.561 -232.777 324.465C-228.817 328.369 -224.679 332.114 -220.397 335.666L-94.9927 191.306L-244.125 312.24L-244.114 312.25ZM2.89467 27.9232C-1.96625 25.1518 -6.94991 22.5838 -12.0455 20.2406C-17.141 17.8975 -22.3374 15.7686 -27.6128 13.8648L-94.9708 191.328L2.89458 27.9339L2.89467 27.9232ZM-192.847 354.711C-187.986 357.483 -183.003 360.051 -177.907 362.394C-172.811 364.737 -167.615 366.866 -162.34 368.781L-94.9818 191.317L-192.847 354.711ZM-76.9145 2.95052C-82.5208 2.45207 -88.1509 2.17909 -93.7832 2.1532L-94.9707 191.307L-60.1678 5.17602C-65.715 4.19446 -71.2972 3.44905 -76.9035 2.9506L-76.9145 2.95052ZM-113.038 379.684C-107.432 380.193 -101.802 380.456 -96.1693 380.481L-94.9819 191.328L-129.785 377.459C-124.238 378.44 -118.655 379.186 -113.049 379.684L-113.038 379.684ZM-127.436 4.87825C-132.989 5.80911 -138.499 6.97662 -143.945 8.38092C-149.403 9.7744 -154.785 11.4155 -160.092 13.2719L-94.9597 191.307L-127.425 4.87832L-127.436 4.87825ZM-62.5051 377.746C-56.9527 376.815 -51.4424 375.647 -45.9961 374.254C-40.5387 372.85 -35.1563 371.219 -29.8491 369.363L-94.9818 191.317L-62.5161 377.746L-62.5051 377.746ZM-190.792 27.0719C-195.689 29.8013 -200.455 32.7357 -205.102 35.875C-209.738 39.0144 -214.233 42.348 -218.575 45.8654L-94.9818 191.317L-190.792 27.0826L-190.792 27.0719ZM0.828784 355.552C5.72538 352.823 10.4917 349.888 15.1388 346.749C19.7748 343.609 24.2695 340.276 28.6117 336.758L-94.9817 191.307L0.828784 355.552ZM-242.589 69.0669C-246.244 73.2656 -249.703 77.6267 -252.964 82.118C-256.225 86.6094 -259.279 91.2417 -262.125 95.9936L-94.9817 191.307L-242.578 69.067L-242.589 69.0669ZM52.6148 313.557C56.2697 309.358 59.7281 304.997 62.9895 300.506C66.2509 296.014 69.3044 291.382 72.15 286.63L-94.9928 191.317L52.6038 313.557L52.6148 313.557ZM-276.569 125.811C-278.527 130.977 -280.266 136.22 -281.752 141.529C-283.249 146.837 -284.494 152.212 -285.508 157.631L-94.9817 191.307L-276.569 125.811ZM86.6165 256.802C88.5745 251.636 90.3131 246.393 91.7993 241.085C93.2965 235.776 94.5522 230.412 95.5553 224.993L-94.9707 191.307L86.6165 256.802Z" fill="#0E53B2"/>
</g>
</g>
</g>
</svg>
