<svg width="108" height="399" viewBox="0 0 108 399" fill="none" xmlns="http://www.w3.org/2000/svg">
<mask id="mask0_2008_6" style="mask-type:luminance" maskUnits="userSpaceOnUse" x="6" y="11" width="399" height="387">
<path d="M404.488 14.1705L9.38086 11.6011L6.12569 395.105L401.233 397.674L404.488 14.1705Z" fill="white"/>
</mask>
<g mask="url(#mask0_2008_6)">
<mask id="mask1_2008_6" style="mask-type:luminance" maskUnits="userSpaceOnUse" x="9" y="11" width="395" height="386">
<path d="M403.509 14.511L12.9961 11.9715L9.75679 393.606L400.27 396.145L403.509 14.511Z" fill="white"/>
</mask>
<g mask="url(#mask1_2008_6)">
<path d="M401.602 205.326C401.555 210.9 401.266 216.472 400.714 222.019L205.048 204.048L400.997 188.635C401.455 194.189 401.649 199.753 401.602 205.326ZM8.47029 202.77C8.42298 208.343 8.62845 213.907 9.07512 219.473L205.036 204.048L9.35858 186.077C8.81758 191.625 8.51759 197.196 8.47029 202.77ZM395.327 155.715C393.891 150.322 392.213 144.995 390.305 139.745C388.397 134.494 386.247 129.332 383.878 124.258L205.048 204.048L395.338 155.715L395.327 155.715ZM14.7457 252.381C16.1817 257.774 17.8594 263.101 19.7675 268.352C21.6756 273.602 23.8257 278.764 26.1947 283.839L205.025 204.048L14.7342 252.381L14.7457 252.381ZM366.986 95.2382C363.752 90.6507 360.298 86.2073 356.658 81.9194C353.019 77.6315 349.183 73.4878 345.174 69.522L205.036 204.059L366.986 95.2494L366.986 95.2382ZM43.0745 312.858C46.3207 317.446 49.7633 321.889 53.4025 326.177C57.0416 330.476 60.866 334.608 64.8755 338.574L205.025 204.037L43.0746 312.847L43.0745 312.858ZM319.111 47.8858C314.452 44.6545 309.654 41.6238 304.727 38.8049C299.8 35.986 294.746 33.3789 289.585 30.995L205.048 204.037L319.123 47.8747L319.111 47.8858ZM90.9495 360.21C95.6086 363.43 100.407 366.461 105.334 369.28C110.26 372.099 115.315 374.706 120.475 377.09L205.025 204.048L90.9495 360.21ZM240.773 15.6464C235.141 14.6472 229.485 13.8718 223.781 13.3534L205.036 204.048L257.477 19.3701C251.964 17.8904 246.392 16.6455 240.773 15.6464ZM169.3 392.45C174.931 393.449 180.587 394.224 186.28 394.743L205.036 204.048L152.596 388.726C158.108 390.206 163.68 391.44 169.3 392.45ZM189.531 13.1307C183.83 13.5749 178.149 14.2654 172.513 15.2025C166.866 16.1283 161.273 17.3007 155.736 18.7085L205.048 204.048L189.531 13.1307ZM220.553 394.966C226.254 394.521 231.934 393.831 237.571 392.894C243.207 391.957 248.81 390.796 254.347 389.388L205.036 204.048L220.553 394.966ZM123.445 29.9258C118.234 32.2423 113.147 34.7834 108.173 37.538C103.199 40.2925 98.3377 43.2603 93.636 46.4196L205.048 204.048L123.457 29.9259L123.445 29.9258ZM286.639 378.182C291.839 375.865 296.937 373.313 301.911 370.558C306.885 367.804 311.735 364.836 316.448 361.677L205.036 204.048L286.639 378.182ZM67.1976 67.7032C63.1212 71.6164 59.2156 75.6985 55.5039 79.9498C51.7922 84.2011 48.2746 88.5992 44.9509 93.144L205.036 204.048L67.1976 67.7032ZM342.886 340.382C346.963 336.469 350.868 332.387 354.58 328.135C358.292 323.884 361.809 319.486 365.133 314.952L205.048 204.037L342.898 340.382L342.886 340.382ZM27.5804 121.941C25.1256 126.972 22.8881 132.106 20.8911 137.331C18.894 142.556 17.1261 147.861 15.5987 153.235L205.048 204.048L27.5919 121.941L27.5804 121.941ZM382.503 286.156C384.958 281.124 387.196 275.99 389.193 270.765C391.19 265.54 392.958 260.235 394.485 254.862L205.036 204.048L382.503 286.156Z" fill="#F88B8A"/>
</g>
</g>
<mask id="mask2_2008_6" style="mask-type:luminance" maskUnits="userSpaceOnUse" x="0" y="0" width="409" height="399">
<path d="M408.802 2.63659L3.35742 0L7.86205e-05 395.541L405.445 398.178L408.802 2.63659Z" fill="white"/>
</mask>
<g mask="url(#mask2_2008_6)">
<mask id="mask3_2008_6" style="mask-type:luminance" maskUnits="userSpaceOnUse" x="-10" y="-13" width="434" height="425">
<path d="M390.506 -12.3812L-9.81152 19.9837L22.8106 411.582L423.128 379.217L390.506 -12.3812Z" fill="white"/>
</mask>
<g mask="url(#mask3_2008_6)">
<mask id="mask4_2008_6" style="mask-type:luminance" maskUnits="userSpaceOnUse" x="-13" y="-13" width="436" height="425">
<path d="M389.801 -12.3039L-12.8042 20.2459L19.818 411.845L422.423 379.295L389.801 -12.3039Z" fill="white"/>
</mask>
<g mask="url(#mask4_2008_6)">
<path d="M406.179 183.233C406.658 188.946 406.873 194.679 406.836 200.411L204.874 199.523L403.983 166.179C404.967 171.828 405.699 177.52 406.179 183.233ZM3.56832 215.813C4.0477 221.526 4.77974 227.217 5.7646 232.866L204.874 199.523L2.91085 198.635C2.88515 204.367 3.1004 210.1 3.56832 215.813ZM395.084 132.972C393.11 127.575 390.894 122.265 388.437 117.065C385.979 111.855 383.303 106.755 380.396 101.788L204.873 199.534L395.084 132.984L395.084 132.972ZM14.6632 266.073C16.6486 271.471 18.8527 276.781 21.3102 281.991C23.7676 287.202 26.4441 292.291 29.3511 297.269L204.874 199.523L14.6632 266.073ZM360.381 73.5572C356.632 69.1443 352.686 64.898 348.555 60.8297C344.423 56.7613 340.107 52.8596 335.64 49.1585L204.874 199.523L360.381 73.5572ZM49.366 325.488C53.1155 329.901 57.0615 334.148 61.1926 338.216C65.3237 342.284 69.6283 346.186 74.1068 349.887L204.874 199.523L49.366 325.488ZM306.936 29.3354C301.865 26.4476 296.667 23.7717 291.351 21.3302C286.036 18.8886 280.615 16.6702 275.112 14.6865L204.873 199.534L306.924 29.3465L306.936 29.3354ZM102.834 369.711C107.905 372.598 113.103 375.263 118.419 377.716C123.723 380.168 129.143 382.376 134.658 384.359L204.885 199.512L102.834 369.699L102.834 369.711ZM223.718 3.31373C217.87 2.7943 211.997 2.50979 206.121 2.48278L204.885 199.512L241.176 5.63269C235.389 4.60988 229.566 3.83315 223.718 3.31373ZM186.052 395.721C191.9 396.252 197.773 396.525 203.649 396.552L204.874 199.523L168.595 393.413C174.37 394.436 180.204 395.213 186.041 395.732L186.052 395.721ZM171.039 5.32214C165.248 6.29205 159.499 7.50859 153.818 8.96061C148.137 10.4238 142.522 12.1226 136.975 14.0568L204.897 199.512L171.039 5.32214ZM238.754 393.701C244.546 392.732 250.294 391.515 255.975 390.063C261.656 388.611 267.282 386.901 272.819 384.967L204.897 199.512L238.754 393.701ZM104.985 28.4363C99.8771 31.2803 94.9051 34.3378 90.0691 37.609C85.2331 40.8801 80.556 44.3427 76.0264 48.0188L204.897 199.523L104.985 28.4475L104.985 28.4363ZM304.808 370.587C309.916 367.743 314.888 364.686 319.724 361.415C324.56 358.155 329.237 354.681 333.767 351.005L204.897 199.501L304.808 370.576L304.808 370.587ZM50.9767 72.1833C47.1755 76.5584 43.5682 81.0913 40.1661 85.7712C36.764 90.4511 33.5788 95.278 30.6106 100.218L204.897 199.501L50.9768 72.1721L50.9767 72.1833ZM358.817 326.84C362.618 322.465 366.225 317.932 369.627 313.252C373.029 308.573 376.214 303.746 379.183 298.794L204.897 199.512L358.817 326.84ZM15.5319 131.288C13.4894 136.671 11.6874 142.122 10.137 147.665C8.58676 153.197 7.27703 158.786 6.21934 164.421L204.897 199.512L15.5319 131.288ZM394.261 267.736C396.304 262.364 398.106 256.901 399.656 251.37C401.218 245.838 402.516 240.249 403.574 234.602L204.897 199.512L394.261 267.736Z" fill="#D93735"/>
</g>
</g>
</g>
</svg>
