<svg width="130" height="93" viewBox="0 0 130 93" fill="none" xmlns="http://www.w3.org/2000/svg">
<g clip-path="url(#clip0_36_50)">
<path d="M32.24 52.42C30.07 48.88 25.84 48.01 21.97 48.47C17.9 48.95 13.74 49.6 11.28 53.21C8.96996 56.61 7.13996 60.85 6.68996 64.94C6.18996 69.5 7.71996 73.66 9.23996 77.87C10.17 80.44 11.1 83.02 12.02 85.59C12.74 87.59 13.42 89.72 15.39 90.81C17.08 91.75 18.59 89.16 16.9 88.22C16.06 87.76 15.7 86.92 15.37 86.06C14.91 84.87 14.5 83.65 14.07 82.45C13.23 80.11 12.38 77.77 11.54 75.43C9.94996 71 8.86996 66.7 10.32 62.05C11.01 59.84 12.11 57.71 13.26 55.71C14.33 53.84 15.61 52.77 17.74 52.25C21.36 51.36 27.26 50.04 29.64 53.94C30.65 55.58 33.24 54.08 32.23 52.43L32.24 52.42Z" fill="#262626"/>
<path d="M31.33 80.24C30.72 78.49 28.67 77.78 27.05 78.66C25.57 79.47 24.88 81.23 24.44 82.77C23.49 86.14 24.17 89.92 27.3 91.88C30.43 93.84 34.24 92.89 36.33 90.12C37.3 88.84 37.81 87.27 38.12 85.71C38.31 84.77 38.47 83.8 38.26 82.85C38.05 81.9 37.48 81.18 36.85 80.51C35.6 79.17 34.56 77.6 32.61 77.3C30.44 76.97 28.58 78 26.85 79.19C26.18 79.65 25.88 80.51 26.31 81.24C26.7 81.9 27.69 82.24 28.36 81.78C29.28 81.15 30.33 80.37 31.43 80.24C32.53 80.11 33 80.68 33.67 81.49C34.25 82.19 35.33 82.9 35.37 83.81C35.42 84.85 35.02 86.11 34.64 87.06C33.91 88.89 32.2 90.15 30.33 89.87C28.46 89.59 27.07 87.89 27.01 85.9C26.98 84.69 27.3 83.34 27.76 82.33C27.97 81.85 28.2 81.43 28.56 81.25C28.45 81.31 28.44 81.26 28.62 81.25C28.37 81.25 28.76 81.34 28.62 81.27H28.57C28.74 81.32 28.76 81.32 28.61 81.27C28.57 81.18 28.47 81.13 28.43 81.02C28.7 81.78 29.46 82.29 30.28 82.07C31.02 81.87 31.59 80.99 31.33 80.22V80.24Z" fill="#262626"/>
<path d="M40.78 72.74C39.6 73.31 39.21 74.68 39.23 75.9C39.25 77.21 39.43 78.54 39.54 79.85C39.65 81.16 39.64 82.55 40.43 83.63C41.33 84.86 42.86 85.26 44.31 84.94C45.63 84.64 46.7 83.72 47.7 82.87C48.57 82.13 49.42 81.28 49.93 80.24C50.57 78.92 50.6 77.48 50.08 76.11C49.61 74.87 48.94 73.63 48.04 72.65C46.13 70.56 42.78 70.17 40.39 71.65C39.7 72.08 39.44 72.99 39.85 73.7C40.26 74.41 41.21 74.67 41.9 74.24C42.07 74.13 42.24 74.03 42.43 73.95C42.21 74.05 42.73 73.86 42.78 73.85C42.88 73.82 42.97 73.8 43.07 73.78C43.07 73.78 43.32 73.74 43.17 73.76C43 73.78 43.31 73.76 43.35 73.76C43.48 73.76 43.6 73.76 43.73 73.76C43.83 73.76 43.93 73.76 44.03 73.78C43.96 73.78 43.78 73.72 44.08 73.78C44.28 73.82 44.47 73.87 44.66 73.93C44.73 73.95 44.8 73.98 44.87 74C45.1 74.09 44.7 73.91 44.93 74.03C45.13 74.13 45.33 74.24 45.51 74.37C45.35 74.26 45.75 74.59 45.8 74.64C45.91 74.75 46.1 74.98 46.13 75.02C46.41 75.4 46.64 75.82 46.87 76.24C47.07 76.62 47.23 76.94 47.35 77.34C47.41 77.54 47.46 77.74 47.47 77.84C47.48 77.96 47.47 78.09 47.47 78.21C47.46 78.48 47.56 77.96 47.45 78.36C47.42 78.46 47.4 78.56 47.37 78.65C47.37 78.68 47.26 78.91 47.35 78.71C47.28 78.87 47.18 79.03 47.09 79.18C47.03 79.27 46.98 79.35 46.91 79.44C46.76 79.65 47.02 79.31 46.85 79.51C46.69 79.69 46.53 79.87 46.36 80.04C45.76 80.63 45.1 81.22 44.43 81.64C44.13 81.83 43.77 82 43.58 82.04C43.71 82.02 43.09 82.04 43.23 82.06C43.19 82.06 43.01 82.01 42.95 81.97C43.09 82.08 42.9 81.93 42.9 81.93C42.88 81.9 42.74 81.62 42.8 81.76C42.86 81.9 42.75 81.59 42.75 81.57C42.73 81.51 42.65 81.07 42.67 81.25C42.63 80.96 42.61 80.66 42.59 80.36C42.49 79.18 42.4 77.99 42.3 76.81C42.26 76.35 42.22 75.89 42.25 75.43C42.21 75.66 42.27 75.19 42.25 75.43C42.31 75.14 42.32 75.36 42.24 75.37L42.27 75.32C42.33 75.23 42.3 75.25 42.2 75.38L42.28 75.3C42.13 75.41 42.14 75.43 42.28 75.34C43.01 74.99 43.2 73.95 42.82 73.29C42.38 72.54 41.5 72.4 40.77 72.75L40.78 72.74Z" fill="#262626"/>
<path d="M18.2501 91.66C20.9601 91.72 23.6901 90.54 25.4801 88.5C26.0001 87.91 26.1001 86.95 25.4801 86.38C24.9101 85.86 23.9101 85.75 23.3601 86.38C23.1801 86.59 22.9801 86.79 22.7801 86.98C22.6801 87.07 22.5901 87.16 22.4901 87.24C22.4301 87.29 22.3601 87.34 22.3001 87.39C22.3601 87.34 22.5301 87.22 22.3701 87.33C21.9101 87.65 21.4401 87.93 20.9301 88.16C20.7501 88.24 20.9401 88.14 21.0201 88.12C20.9601 88.13 20.9001 88.17 20.8401 88.19C20.7201 88.24 20.5901 88.28 20.4701 88.32C20.2101 88.41 19.9401 88.48 19.6601 88.53C19.5201 88.56 19.3701 88.59 19.2301 88.61C19.0201 88.64 19.2701 88.59 19.3401 88.6C19.2801 88.6 19.2101 88.61 19.1401 88.62C18.8501 88.65 18.5501 88.65 18.2601 88.65C17.4801 88.63 16.7201 89.35 16.7601 90.15C16.8001 90.95 17.4201 91.63 18.2601 91.65L18.2501 91.66Z" fill="#262626"/>
<path d="M35.94 71.85C36.37 72.19 36.75 72.59 37.08 73.02L36.85 72.72C37.21 73.19 37.5 73.7 37.74 74.25L37.59 73.89C37.78 74.36 37.93 74.84 38.02 75.33C38.08 75.68 38.41 76.05 38.71 76.23C39.03 76.42 39.51 76.5 39.87 76.38C40.23 76.26 40.58 76.04 40.77 75.69C40.97 75.32 41 74.95 40.92 74.53C40.59 72.69 39.54 70.9 38.08 69.73C37.76 69.47 37.45 69.29 37.02 69.29C36.65 69.29 36.21 69.45 35.96 69.73C35.71 70.01 35.5 70.39 35.52 70.79C35.54 71.16 35.66 71.61 35.96 71.85H35.94Z" fill="#262626"/>
<path d="M36.5999 82.32L38.5799 81.21C38.9099 81.03 39.1699 80.67 39.2699 80.31C39.3299 80.11 39.3399 79.91 39.2999 79.71C39.2999 79.51 39.2299 79.32 39.1199 79.15C38.9099 78.83 38.6099 78.55 38.2199 78.46C37.8299 78.37 37.4299 78.41 37.0599 78.61C36.3999 78.98 35.7399 79.35 35.0799 79.72C34.7499 79.9 34.4899 80.26 34.3899 80.62C34.3299 80.82 34.3199 81.02 34.3599 81.22C34.3599 81.42 34.4299 81.61 34.5399 81.78C34.7499 82.1 35.0499 82.38 35.4399 82.47C35.8299 82.56 36.2299 82.52 36.5999 82.32Z" fill="#262626"/>
<path d="M6.85002 66.92C3.90002 66.86 1.54002 69.04 0.54002 71.68C-0.64998 74.83 0.35002 78.35 1.30002 81.42C2.11002 84.02 3.18002 86.69 5.43002 88.36C7.55002 89.93 10.75 90.06 12.33 87.7C13.41 86.09 10.81 84.59 9.74002 86.19C9.44002 86.64 8.72002 86.57 8.26002 86.47C7.46002 86.28 6.79002 85.7 6.27002 85.08C5.08002 83.67 4.53002 81.78 4.01002 80.05C3.34002 77.82 2.56002 75.32 3.24002 73C3.71002 71.39 5.06002 69.88 6.83002 69.92C8.76002 69.96 8.76002 66.96 6.83002 66.92H6.85002Z" fill="#262626"/>
<path d="M53.2799 68.98C53.4499 74.65 53.7999 80.31 54.3199 85.96C54.3999 86.77 54.9599 87.46 55.8199 87.46C56.5699 87.46 57.3999 86.77 57.3199 85.96C56.7899 80.31 56.4499 74.65 56.2799 68.98C56.2199 67.05 53.2199 67.05 53.2799 68.98Z" fill="#262626"/>
<path d="M56.08 70.93C59.77 68.94 63.46 66.95 67.15 64.96L72.58 62.03L75.4 60.51L76.61 59.86L77.41 59.43C78.21 59.17 78.13 58.61 77.16 57.74C76.11 59.36 78.7 60.87 79.75 59.25C80.28 58.43 80.12 57.33 79.39 56.68C78.47 55.84 77.3 56.12 76.3 56.62C73.85 57.85 71.47 59.23 69.06 60.53C64.23 63.13 59.4 65.74 54.57 68.34C52.87 69.26 54.38 71.85 56.08 70.93Z" fill="#262626"/>
<path d="M76.51 58.16C76.87 61.37 76.21 64.53 76 67.72C75.79 70.91 76.17 74.01 76.57 77.14C76.67 77.94 77.19 78.64 78.07 78.64C78.8 78.64 79.67 77.95 79.57 77.14C79.17 74.02 78.79 70.88 79 67.72C79.21 64.56 79.87 61.37 79.51 58.16C79.42 57.36 78.89 56.66 78.01 56.66C77.27 56.66 76.42 57.35 76.51 58.16Z" fill="#262626"/>
<path d="M54.88 84.12C52.43 83.81 49.97 83.62 47.5 83.57C46.72 83.55 45.96 84.27 46 85.07C46.04 85.87 46.66 86.55 47.5 86.57C49.97 86.63 52.43 86.81 54.88 87.12C55.66 87.22 56.41 86.36 56.38 85.62C56.34 84.72 55.72 84.23 54.88 84.12Z" fill="#262626"/>
<path d="M50.82 83.87C50.82 83.87 50.92 83.79 50.96 83.76C50.78 83.9 50.75 83.92 50.87 83.83C50.97 83.76 51.06 83.68 51.16 83.61C51.36 83.47 51.56 83.33 51.76 83.19C52.15 82.93 52.55 82.68 52.97 82.46C53.39 82.24 53.8 82.02 54.23 81.82C54.34 81.77 54.45 81.72 54.56 81.67C54.71 81.61 54.67 81.62 54.45 81.71C54.51 81.69 54.56 81.66 54.62 81.64C54.85 81.55 55.07 81.46 55.3 81.38C55.67 81.25 55.99 81.04 56.2 80.69C56.39 80.37 56.47 79.89 56.35 79.53C56.12 78.8 55.3 78.2 54.5 78.48C52.37 79.24 50.45 80.33 48.69 81.73C48.41 81.95 48.25 82.45 48.25 82.79C48.25 83.16 48.41 83.6 48.69 83.85C48.97 84.1 49.35 84.31 49.75 84.29C50.17 84.27 50.48 84.11 50.81 83.85L50.82 83.87Z" fill="#262626"/>
<path d="M58.04 87.76C59.4 86.75 61.01 86.35 62.58 85.77C64.36 85.11 66.1 84.33 67.82 83.52C71.05 82 74.6 80.64 77.32 78.27C78.78 77 76.65 74.88 75.2 76.15C73.93 77.25 72.41 78 70.91 78.72C69.27 79.51 67.64 80.31 65.99 81.08C64.34 81.85 62.78 82.53 61.12 83.12C59.46 83.71 57.9 84.17 56.53 85.18C55.88 85.66 55.55 86.48 55.99 87.23C56.37 87.87 57.39 88.25 58.04 87.77V87.76Z" fill="#262626"/>
<path d="M64.19 67.18L63.54 69.5C63.44 69.87 63.5 70.32 63.69 70.66C63.87 70.97 64.23 71.27 64.59 71.35C64.97 71.44 65.4 71.42 65.75 71.2C66.1 70.98 66.33 70.69 66.44 70.3L67.09 67.98C67.19 67.61 67.13 67.16 66.94 66.82C66.76 66.51 66.4 66.21 66.04 66.13C65.66 66.04 65.23 66.06 64.88 66.28C64.53 66.5 64.3 66.79 64.19 67.18Z" fill="#262626"/>
<path d="M63.17 74.81C64.98 75.45 67.26 74.83 68.47 73.33L65.91 72.27C65.91 72.34 65.91 72.41 65.91 72.48L65.96 72.08C65.94 72.2 65.91 72.31 65.86 72.42L66.01 72.06C65.78 72.56 65.43 72.98 65.3 73.53C65.14 74.23 65.25 74.98 65.63 75.6C66.29 76.69 67.74 77.44 69 76.96L67.54 74.45C67.47 74.5 67.41 74.56 67.34 74.61C67.3 74.65 67.09 74.81 67.29 74.65C67.49 74.49 67.29 74.65 67.23 74.69C67.16 74.74 67.09 74.79 67.02 74.84C66.76 75.01 66.49 75.16 66.2 75.29L66.56 75.14C66.28 75.26 65.99 75.35 65.69 75.4L66.09 75.35C65.85 75.38 65.61 75.39 65.37 75.35L65.77 75.4C65.61 75.37 65.45 75.33 65.3 75.27L65.66 75.42C65.54 75.37 65.43 75.31 65.32 75.24C65.27 75.21 65.22 75.17 65.17 75.14C65.51 75.34 65.36 75.29 65.26 75.19C65.22 75.15 65.18 75.11 65.14 75.06C64.97 74.87 65.22 75.12 65.22 75.18C65.2 75.08 65.07 74.93 65.02 74.83L65.17 75.19C65.12 75.07 65.09 74.94 65.06 74.81L65.11 75.21C65.09 75.08 65.09 74.95 65.11 74.82L65.06 75.22C65.08 75.11 65.11 75 65.15 74.9L62.95 75.8C63.54 76.14 64.13 76.48 64.73 76.82C65.41 77.21 66.4 77 66.78 76.28C67.16 75.56 66.97 74.64 66.24 74.23C65.65 73.89 65.06 73.55 64.46 73.21C64.04 72.97 63.57 72.95 63.13 73.13C62.69 73.31 62.44 73.65 62.26 74.1C61.94 74.91 62.12 75.92 62.58 76.64C63.08 77.4 63.83 77.99 64.72 78.24C66.55 78.75 68.3 77.7 69.65 76.57C70.14 76.16 70.22 75.27 69.88 74.75C69.74 74.53 69.56 74.35 69.34 74.21C69.05 74.02 68.51 73.93 68.18 74.06C68.08 74.1 67.98 74.12 67.88 74.14L68.28 74.09C68.18 74.09 68.08 74.09 67.98 74.09L68.38 74.14C68.28 74.12 68.18 74.1 68.09 74.06L68.45 74.21C68.36 74.17 68.28 74.13 68.2 74.08C68.15 74.05 68.01 73.94 68.22 74.11C68.27 74.14 68.44 74.28 68.22 74.11C68.19 74.08 68.16 74.05 68.13 74.02C67.99 73.88 68.26 74.16 68.25 74.18C68.25 74.18 68.11 73.94 68.1 73.91L68.25 74.27C68.2 74.15 68.17 74.04 68.16 73.92L68.21 74.32C68.21 74.22 68.21 74.12 68.21 74.02L68.16 74.42C68.18 74.33 68.2 74.25 68.23 74.17L68.08 74.53C68.2 74.25 68.38 74.01 68.52 73.74C68.75 73.31 68.93 72.8 68.89 72.3C68.84 71.69 68.56 71.18 67.97 70.93C67.47 70.72 66.7 70.78 66.33 71.24C66.25 71.34 66.16 71.44 66.07 71.54C66.03 71.58 65.98 71.62 65.94 71.66C65.83 71.76 65.68 71.8 66.02 71.61C65.79 71.74 65.58 71.89 65.33 72L65.69 71.85C65.38 71.98 65.05 72.07 64.72 72.12L65.12 72.07C64.83 72.1 64.55 72.11 64.26 72.07L64.66 72.12C64.42 72.09 64.19 72.03 63.96 71.95C63.22 71.69 62.29 72.25 62.11 73C61.92 73.84 62.36 74.57 63.16 74.85L63.17 74.81Z" fill="#262626"/>
<path d="M48.14 53.29L49.06 52.24L49.29 51.94L49.44 51.58L49.49 51.18C49.49 50.97 49.45 50.78 49.36 50.6C49.32 50.47 49.26 50.36 49.17 50.27C49.1 50.16 49.01 50.07 48.9 50C48.81 49.91 48.7 49.84 48.57 49.81C48.39 49.72 48.2 49.67 47.99 49.68C47.68 49.67 47.37 49.66 47.05 49.65C46.84 49.65 46.65 49.69 46.47 49.78C46.28 49.84 46.12 49.94 45.99 50.09C45.84 50.23 45.74 50.39 45.68 50.57C45.59 50.75 45.54 50.94 45.55 51.15L45.6 51.55C45.67 51.8 45.8 52.02 45.99 52.21L46.29 52.44C46.52 52.58 46.78 52.64 47.05 52.64C47.36 52.65 47.67 52.66 47.99 52.67L46.93 50.11L46.01 51.16C45.86 51.3 45.76 51.46 45.7 51.64C45.61 51.82 45.56 52.01 45.57 52.22C45.57 52.43 45.61 52.62 45.7 52.8C45.76 52.99 45.86 53.15 46.01 53.28L46.31 53.51C46.54 53.65 46.8 53.71 47.07 53.71L47.47 53.66C47.72 53.59 47.94 53.46 48.13 53.27L48.14 53.29Z" fill="#262626"/>
<path d="M53.66 44.89C55.59 44.89 55.59 41.89 53.66 41.89C51.73 41.89 51.73 44.89 53.66 44.89Z" fill="#262626"/>
<path d="M53.8299 42.78C52.9899 43.24 52.4899 44.22 52.5299 45.17C52.5699 46.17 53.0399 47.06 53.8799 47.62C54.3099 47.91 54.8499 48.03 55.3699 48.06C55.7899 48.09 56.2399 48.02 56.6399 47.87C57.1699 47.67 57.5799 47.43 58.0099 47.06C58.3499 46.77 58.6299 46.39 58.8399 46.01C59.3499 45.08 59.5299 44.05 59.5999 43.01L59.5499 42.61C59.4999 42.41 59.4099 42.24 59.2799 42.1C59.0999 41.86 58.8099 41.62 58.4999 41.56C58.0199 41.47 57.5399 41.41 57.0499 41.41C56.5599 41.41 56.0799 41.47 55.5999 41.55C55.2499 41.61 54.8699 41.95 54.6999 42.24C54.5099 42.56 54.4299 43.04 54.5499 43.4C54.6699 43.76 54.8899 44.11 55.2399 44.3L55.5999 44.45C55.8699 44.52 56.1299 44.52 56.3999 44.45C56.4699 44.44 56.5299 44.43 56.5999 44.42L56.1999 44.47C56.7199 44.4 57.2499 44.4 57.7799 44.47L57.3799 44.42C57.4899 44.43 57.5999 44.45 57.7099 44.47L56.6099 43.02C56.5999 43.23 56.5799 43.44 56.5499 43.65L56.5999 43.25C56.5399 43.7 56.4299 44.15 56.2599 44.57L56.4099 44.21C56.2999 44.45 56.1799 44.68 56.0199 44.89L56.2499 44.59C56.1199 44.75 55.9799 44.9 55.8199 45.02L56.1199 44.79C55.9499 44.92 55.7599 45.04 55.5599 45.12L55.9199 44.97C55.7299 45.05 55.5499 45.1 55.3499 45.13L55.7499 45.08C55.5899 45.1 55.4299 45.1 55.2699 45.08L55.6699 45.13C55.5399 45.11 55.4199 45.08 55.2999 45.03L55.6599 45.18C55.5499 45.13 55.4499 45.08 55.3599 45.01L55.6599 45.24C55.5799 45.17 55.4999 45.1 55.4399 45.02L55.6699 45.32C55.5899 45.21 55.5199 45.1 55.4699 44.98L55.6199 45.34C55.5699 45.22 55.5399 45.09 55.5099 44.96L55.5599 45.36C55.5399 45.22 55.5399 45.07 55.5599 44.93L55.5099 45.33C55.5299 45.22 55.5599 45.11 55.5999 45L55.4499 45.36C55.4899 45.28 55.5299 45.21 55.5799 45.14L55.3499 45.44C55.3999 45.38 55.4499 45.33 55.5099 45.28L55.2099 45.51C55.2599 45.47 55.3199 45.44 55.3699 45.4C56.0599 45.03 56.3399 44.01 55.9099 43.35C55.4599 42.65 54.5999 42.41 53.8599 42.81L53.8299 42.78Z" fill="#262626"/>
<path d="M68.71 18.65C65.1 21.76 60.4 28.53 64.21 33.13C66.88 36.36 72.28 36.21 74.72 32.85C75.76 31.41 73.57 29.94 72.36 31.03C68.71 34.33 69.24 40.64 72.86 43.76C77.07 47.39 83.64 46.16 87.28 42.34L85.46 42.57C92.44 46.13 100.36 44.73 107.53 42.5C110.79 41.49 114.96 40.58 117.38 38C119.38 35.87 119.94 32.01 117.44 30.01L117.14 32.37C122.64 29.24 128.79 25.31 129.61 18.43C130.01 15.12 128.62 12.17 126.81 9.49C125.1 6.95 123.24 4.28 120.57 2.67C117.9 1.06 114.55 0.750003 111.84 2.42C110.93 2.98 109.8 4.19 108.67 3.61C107.54 3.03 106.76 1.75 105.66 1.05C102.96 -0.689997 99.57 0.140003 96.64 0.710003C93.35 1.35 90.05 2.08 86.93 3.34C80.67 5.87 75.07 10.95 74.6 18.05C74.47 19.98 77.47 19.97 77.6 18.05C77.95 12.79 82.18 8.83 86.69 6.69C89.4 5.4 92.36 4.66 95.28 4.03C96.55 3.76 97.83 3.5 99.12 3.27C100.49 3.02 102.11 2.74 103.45 3.27C105.59 4.12 106.51 6.69 109.08 6.77C111.65 6.85 113.22 4.27 115.77 4.26C118.51 4.26 120.67 6.27 122.27 8.28C123.96 10.41 125.92 12.95 126.53 15.66C128.06 22.53 120.57 26.97 115.62 29.78C114.85 30.22 114.55 31.52 115.32 32.14C117.56 33.94 114.91 36.48 113.2 37.32C110.55 38.63 107.49 39.44 104.65 40.23C98.91 41.84 92.51 42.81 86.97 39.99C86.38 39.69 85.63 39.73 85.15 40.22C82.66 42.84 78.03 44.12 74.98 41.64C72.48 39.61 72.03 35.36 74.48 33.15L72.12 31.33C70.79 33.16 67.37 32.71 66.26 30.88C65.28 29.26 66.13 27.09 66.93 25.58C67.92 23.72 69.24 22.15 70.83 20.78C72.29 19.52 70.16 17.4 68.71 18.66V18.65Z" fill="#262626"/>
<path d="M88.99 11.11C88.54 12.99 88.1 14.87 87.65 16.76C87.47 17.52 87.89 18.42 88.7 18.61C89.51 18.8 90.35 18.38 90.55 17.56C91 15.68 91.44 13.8 91.89 11.91C92.07 11.15 91.65 10.25 90.84 10.06C90.03 9.87001 89.19 10.29 88.99 11.11Z" fill="#262626"/>
<path d="M89.5 12.62C90.57 14.31 91.64 15.99 92.71 17.68C93.13 18.34 94.06 18.67 94.76 18.22C95.46 17.77 95.75 16.88 95.3 16.17C94.23 14.48 93.16 12.8 92.09 11.11C91.67 10.45 90.74 10.12 90.04 10.57C89.34 11.02 89.05 11.91 89.5 12.62Z" fill="#262626"/>
<path d="M93.54 17.05C93.5 17.14 93.44 17.23 93.38 17.31L93.61 17.01C93.54 17.1 93.45 17.19 93.36 17.26L93.66 17.03C93.56 17.11 93.46 17.17 93.34 17.22L93.7 17.07C93.64 17.1 93.57 17.12 93.5 17.14C93.3 17.19 93.13 17.28 92.99 17.41C92.83 17.52 92.7 17.66 92.6 17.83C92.49 18 92.43 18.19 92.42 18.39C92.38 18.59 92.38 18.79 92.45 18.99L92.6 19.35C92.73 19.58 92.91 19.75 93.14 19.89L93.5 20.04C93.77 20.11 94.03 20.11 94.3 20.04C94.35 20.03 94.41 20.01 94.46 19.99C94.6 19.94 94.74 19.88 94.88 19.82C94.9 19.81 94.93 19.8 94.95 19.79C95 19.77 95.05 19.74 95.09 19.71C95.24 19.61 95.37 19.5 95.51 19.39C95.59 19.32 95.67 19.25 95.73 19.16C95.87 18.98 96.03 18.8 96.13 18.59C96.24 18.42 96.3 18.23 96.31 18.03C96.35 17.83 96.35 17.63 96.28 17.43C96.23 17.23 96.14 17.06 96.01 16.92C95.9 16.76 95.76 16.63 95.59 16.53L95.23 16.38C94.96 16.31 94.7 16.31 94.43 16.38L94.07 16.53C93.84 16.66 93.67 16.84 93.53 17.07L93.54 17.05Z" fill="#262626"/>
<path d="M94.0399 19.88C94.2099 19.96 94.3699 20.06 94.5199 20.18L94.2199 19.95C94.3799 20.08 94.5199 20.22 94.6499 20.39L94.4199 20.09C94.5799 20.3 94.7099 20.52 94.8099 20.76L94.6599 20.4C94.7699 20.66 94.8399 20.93 94.8799 21.2L94.8299 20.8C94.8599 21.06 94.8599 21.32 94.8299 21.58L94.8799 21.18C94.8499 21.42 94.7899 21.65 94.6999 21.87L94.8499 21.51C94.7699 21.7 94.6699 21.88 94.5399 22.04L94.7699 21.74C94.7699 21.74 94.7299 21.79 94.6999 21.82C94.4399 22.14 94.2599 22.46 94.2599 22.88C94.2599 23.25 94.4199 23.69 94.6999 23.94C94.9799 24.19 95.3599 24.4 95.7599 24.38C96.1299 24.36 96.5699 24.24 96.8199 23.94C97.2499 23.42 97.5899 22.84 97.7299 22.17C97.8699 21.5 97.8599 20.82 97.7099 20.14C97.4499 18.97 96.6399 17.81 95.5399 17.3C95.1699 17.13 94.7899 17.04 94.3799 17.15C94.0299 17.25 93.6499 17.51 93.4799 17.84C93.2999 18.19 93.1999 18.61 93.3299 19C93.4399 19.35 93.6699 19.73 94.0199 19.9L94.0399 19.88Z" fill="#262626"/>
<path d="M94.36 22.06L93.8 21.77C93.63 21.66 93.44 21.6 93.24 21.59C93.04 21.55 92.84 21.55 92.64 21.62C92.44 21.67 92.27 21.76 92.13 21.89C91.97 22 91.84 22.14 91.74 22.31L91.59 22.67C91.52 22.94 91.52 23.2 91.59 23.47L91.74 23.83C91.87 24.06 92.05 24.23 92.28 24.37L92.84 24.66C93.01 24.77 93.2 24.83 93.4 24.84C93.6 24.88 93.8 24.88 94 24.81C94.2 24.76 94.37 24.67 94.51 24.54C94.67 24.43 94.8 24.29 94.9 24.12L95.05 23.76C95.12 23.49 95.12 23.23 95.05 22.96L94.9 22.6C94.77 22.37 94.59 22.2 94.36 22.06Z" fill="#262626"/>
<path d="M89.9301 23.61L88.5801 25.22C88.4301 25.36 88.3301 25.52 88.2701 25.7C88.1801 25.88 88.1301 26.07 88.1401 26.28C88.1401 26.49 88.1801 26.68 88.2701 26.86C88.3301 27.05 88.4301 27.21 88.5801 27.34C88.8701 27.6 89.2401 27.8 89.6401 27.78L90.0401 27.73C90.2901 27.66 90.5101 27.53 90.7001 27.34L92.0501 25.73C92.2001 25.59 92.3001 25.43 92.3601 25.25C92.4501 25.07 92.5001 24.88 92.4901 24.67C92.4901 24.46 92.4501 24.27 92.3601 24.09C92.3001 23.9 92.2001 23.74 92.0501 23.61C91.7601 23.35 91.3901 23.15 90.9901 23.17L90.5901 23.22C90.3401 23.29 90.1201 23.42 89.9301 23.61Z" fill="#262626"/>
<path d="M89.52 25.25C91.45 25.25 91.45 22.25 89.52 22.25C87.59 22.25 87.59 25.25 89.52 25.25Z" fill="#262626"/>
<path d="M86.32 22.91L85.61 24.31C85.5 24.48 85.44 24.67 85.43 24.87C85.39 25.07 85.39 25.27 85.46 25.47C85.51 25.67 85.6 25.84 85.73 25.98C85.84 26.14 85.98 26.27 86.15 26.37L86.51 26.52C86.78 26.59 87.04 26.59 87.31 26.52L87.67 26.37C87.9 26.24 88.07 26.06 88.21 25.83C88.45 25.36 88.69 24.89 88.92 24.43C89.03 24.26 89.09 24.07 89.1 23.87C89.14 23.67 89.14 23.47 89.07 23.27C89.02 23.07 88.93 22.9 88.8 22.76C88.69 22.6 88.55 22.47 88.38 22.37L88.02 22.22C87.75 22.15 87.49 22.15 87.22 22.22L86.86 22.37C86.63 22.5 86.46 22.68 86.32 22.91Z" fill="#262626"/>
<path d="M86.3701 16.73C82.7101 17.85 80.0101 21.67 80.4401 25.53C80.5301 26.31 81.0701 27.07 81.9401 27.03C82.6801 27 83.5301 26.37 83.4401 25.53C83.4001 25.15 83.3801 24.77 83.4101 24.39C83.4101 24.34 83.4101 24.1 83.4401 24.08C83.4001 24.1 83.3801 24.44 83.4401 24.12C83.4701 23.93 83.51 23.75 83.56 23.57C83.6 23.4 83.6501 23.24 83.7101 23.07C83.7401 22.97 83.7801 22.88 83.8201 22.78C83.9201 22.52 83.73 22.97 83.81 22.8C83.97 22.46 84.1401 22.12 84.3501 21.8C84.4001 21.73 84.44 21.66 84.49 21.58C84.5401 21.51 84.7001 21.22 84.5001 21.55C84.5901 21.41 84.7201 21.28 84.8301 21.15C84.9601 21.01 85.0901 20.87 85.2301 20.74C85.3501 20.63 85.5701 20.5 85.6601 20.37C85.5801 20.49 85.4601 20.52 85.6401 20.39C85.7101 20.34 85.7801 20.29 85.8501 20.24C86.0201 20.13 86.2 20.02 86.38 19.92C86.46 19.88 86.5301 19.84 86.6101 19.8C86.8001 19.71 86.7301 19.77 86.5801 19.8C86.7801 19.75 86.9701 19.65 87.1701 19.59C87.9201 19.36 88.4701 18.53 88.2201 17.74C87.9701 16.95 87.1801 16.45 86.3701 16.69V16.73Z" fill="#262626"/>
<path d="M82.38 29.51C82.81 30.89 83.06 32.15 83.15 33.41C83.2 34.1 83.21 34.79 83.18 35.48C83.17 35.83 83.14 36.17 83.11 36.51C83.09 36.67 83.08 36.83 83.06 36.99C83.08 36.85 83.08 36.88 83.05 37.07C83.03 37.18 83.02 37.28 83 37.39C82.87 38.16 83.2 39.04 84.05 39.24C84.77 39.4 85.76 39.02 85.9 38.19C86.41 35.02 86.24 31.79 85.28 28.72C85.05 27.97 84.22 27.42 83.43 27.67C82.64 27.92 82.13 28.71 82.38 29.52V29.51Z" fill="#262626"/>
<path d="M86.9199 37.71L87.4899 36.59C87.5999 36.42 87.6599 36.23 87.6699 36.03C87.7099 35.83 87.7099 35.63 87.6399 35.43C87.5899 35.23 87.4999 35.06 87.3699 34.92C87.2599 34.76 87.1199 34.63 86.9499 34.53L86.5899 34.38C86.3199 34.31 86.0599 34.31 85.7899 34.38L85.4299 34.53C85.1999 34.66 85.0299 34.84 84.8899 35.07L84.3199 36.19C84.2099 36.36 84.1499 36.55 84.1399 36.75C84.0999 36.95 84.0999 37.15 84.1699 37.35C84.2199 37.55 84.3099 37.72 84.4399 37.86C84.5499 38.02 84.6899 38.15 84.8599 38.25L85.2199 38.4C85.4899 38.47 85.7499 38.47 86.0199 38.4L86.3799 38.25C86.6099 38.12 86.7799 37.94 86.9199 37.71Z" fill="#262626"/>
<path d="M85.87 36.8L86.42 38.49C86.54 38.86 86.77 39.19 87.11 39.39C87.28 39.5 87.47 39.56 87.67 39.57C87.87 39.61 88.07 39.61 88.27 39.54C88.63 39.42 88.98 39.2 89.17 38.85C89.36 38.5 89.45 38.08 89.32 37.69L88.77 36C88.65 35.63 88.42 35.3 88.08 35.1C87.91 34.99 87.72 34.93 87.52 34.92C87.32 34.88 87.12 34.88 86.92 34.95C86.56 35.07 86.21 35.29 86.02 35.64C85.83 35.99 85.74 36.41 85.87 36.8Z" fill="#262626"/>
<path d="M88.64 40.52C90.57 40.52 90.57 37.52 88.64 37.52C86.71 37.52 86.71 40.52 88.64 40.52Z" fill="#262626"/>
<path d="M96.04 24.77C96.31 25.15 96.58 25.54 96.85 25.92C96.94 26.09 97.07 26.24 97.24 26.34C97.38 26.47 97.55 26.56 97.75 26.61C97.95 26.67 98.15 26.68 98.35 26.64C98.55 26.64 98.74 26.57 98.91 26.46L99.21 26.23C99.4 26.04 99.52 25.82 99.6 25.57L99.65 25.17C99.65 24.9 99.58 24.65 99.45 24.41C99.18 24.03 98.91 23.64 98.64 23.26C98.55 23.09 98.42 22.94 98.25 22.84C98.11 22.71 97.94 22.62 97.74 22.57C97.54 22.51 97.34 22.5 97.14 22.54C96.94 22.54 96.75 22.61 96.58 22.72L96.28 22.95C96.09 23.14 95.97 23.36 95.89 23.61L95.84 24.01C95.84 24.28 95.91 24.53 96.04 24.77Z" fill="#262626"/>
<path d="M86.55 26.72C86.3 28.96 86.35 31.24 87.29 33.33C88.1 35.12 89.66 36.61 91.58 37.13C92.34 37.33 93.24 36.88 93.43 36.08C93.62 35.28 93.19 34.45 92.38 34.23C92.3 34.21 92.21 34.18 92.13 34.16C92.09 34.15 91.77 34.02 91.95 34.1C92.11 34.17 91.86 34.05 91.84 34.04C91.76 34 91.69 33.96 91.61 33.92C91.52 33.87 91.43 33.81 91.34 33.75C91.22 33.66 91.23 33.68 91.34 33.75C91.21 33.64 91.08 33.53 90.95 33.4C90.81 33.26 90.69 33.11 90.55 32.97C90.4 32.81 90.66 33.15 90.55 32.97C90.5 32.9 90.45 32.83 90.4 32.75C90.29 32.58 90.19 32.41 90.1 32.24C90.06 32.16 90.02 32.08 89.98 32C89.85 31.75 90.01 32.1 89.95 31.94C89.8 31.53 89.67 31.12 89.58 30.7C89.56 30.59 89.54 30.49 89.52 30.38C89.51 30.32 89.48 30.14 89.5 30.3C89.47 30.06 89.45 29.82 89.44 29.57C89.39 28.62 89.46 27.67 89.56 26.73C89.65 25.95 88.81 25.2 88.06 25.23C87.17 25.27 86.65 25.89 86.56 26.73L86.55 26.72Z" fill="#262626"/>
<path d="M96.75 25.59C94.67 25.91 93.48 27.95 92.92 29.79C92.36 31.63 92.09 33.97 93.52 35.47C95.22 37.25 98.34 36.33 100.16 35.21C102.17 33.98 103.55 31.61 102.9 29.22C102.25 26.83 99.2 25.29 97.03 26.78C96.38 27.22 96.03 28.12 96.49 28.83C96.9 29.47 97.85 29.84 98.54 29.37C98.6 29.33 98.71 29.29 98.75 29.24C98.85 29.12 98.43 29.32 98.7 29.26C98.76 29.25 98.83 29.23 98.89 29.21C99.16 29.13 98.8 29.25 98.78 29.22C98.78 29.22 99 29.22 99.02 29.22C99.32 29.2 98.99 29.3 98.96 29.2C98.97 29.24 99.44 29.26 99.44 29.33C99.44 29.36 99.15 29.18 99.36 29.3C99.43 29.34 99.51 29.39 99.58 29.42L99.62 29.45C99.75 29.54 99.73 29.52 99.56 29.39C99.58 29.39 99.71 29.52 99.71 29.52C99.76 29.57 99.8 29.62 99.85 29.66C100.07 29.87 99.78 29.47 99.83 29.63C99.85 29.7 99.92 29.78 99.96 29.84C100.11 30.09 99.92 29.6 99.98 29.91C100 29.98 100.02 30.06 100.04 30.13C100.12 30.4 100.06 30.11 100.04 30.07C100.09 30.24 100.05 30.47 100.05 30.65C100.05 30.9 100.05 30.59 100.06 30.6C100.06 30.6 100.02 30.8 100.01 30.83C99.99 30.93 99.96 31.02 99.93 31.11C99.92 31.16 99.77 31.5 99.86 31.32C99.96 31.11 99.79 31.45 99.78 31.46C99.74 31.53 99.7 31.6 99.66 31.66C99.62 31.72 99.57 31.79 99.53 31.86C99.7 31.59 99.57 31.81 99.51 31.88C99.39 32.02 99.26 32.15 99.12 32.28C99.06 32.34 99 32.39 98.93 32.44C99.19 32.23 98.9 32.46 98.84 32.5C98.53 32.71 98.2 32.88 97.86 33.04C98.15 32.91 97.89 33.03 97.81 33.05C97.71 33.09 97.61 33.12 97.52 33.15C97.32 33.22 97.12 33.27 96.92 33.33C96.72 33.39 96.51 33.43 96.3 33.47C96.61 33.41 96.17 33.47 96.05 33.48C96.05 33.48 95.63 33.45 95.87 33.48C96.11 33.51 95.71 33.43 95.7 33.43C95.74 33.44 95.99 33.54 95.71 33.43C95.46 33.33 95.88 33.62 95.7 33.43C95.71 33.44 95.57 33.29 95.57 33.29C95.61 33.26 95.76 33.59 95.61 33.32C95.46 33.05 95.64 33.36 95.61 33.38C95.61 33.38 95.54 33.18 95.55 33.2C95.53 33.13 95.42 32.67 95.47 32.91C95.52 33.16 95.47 32.84 95.47 32.8C95.47 32.69 95.47 32.59 95.47 32.48C95.47 32.34 95.47 32.2 95.49 32.05C95.49 32.02 95.51 31.67 95.49 31.93C95.47 32.19 95.5 31.85 95.51 31.82C95.57 31.5 95.64 31.17 95.73 30.86C95.78 30.67 95.84 30.48 95.9 30.3C95.92 30.23 95.95 30.17 95.97 30.1C96.03 29.95 96.16 29.83 95.97 30.06C96.07 29.93 96.12 29.73 96.2 29.59C96.29 29.42 96.39 29.27 96.5 29.11C96.66 28.87 96.46 29.08 96.48 29.13C96.48 29.1 96.66 28.93 96.68 28.91C96.73 28.86 96.78 28.82 96.82 28.78C96.55 28.94 97.04 28.55 96.82 28.78C96.87 28.75 96.93 28.71 96.98 28.68C97.3 28.49 96.98 28.7 96.97 28.66C96.97 28.65 97.52 28.52 97.54 28.51C98.32 28.39 98.82 27.37 98.59 26.66C98.32 25.81 97.58 25.48 96.74 25.61L96.75 25.59Z" fill="#262626"/>
<path d="M92.9401 28.58C94.8701 28.58 94.8701 25.58 92.9401 25.58C91.0101 25.58 91.0101 28.58 92.9401 28.58Z" fill="#262626"/>
<path d="M96.26 27.27C98.19 27.27 98.19 24.27 96.26 24.27C94.33 24.27 94.33 27.27 96.26 27.27Z" fill="#262626"/>
<path d="M102.8 12.22C100.8 13.56 99.49 15.94 99.76 18.38C100.03 20.82 101.62 22.85 103.9 23.7C106.18 24.55 108.76 23.81 110.31 22.1C112.1 20.12 112.35 16.95 110.23 15.1C109.18 14.19 107.89 13.53 106.62 12.98C105.35 12.43 103.04 11.47 102.17 13.29C101.83 14 101.95 14.94 102.71 15.34C103.38 15.69 104.4 15.56 104.76 14.8C104.65 15.04 104.29 15.08 104.12 15.19H104.02C104.16 15.21 104.17 15.2 104.04 15.19C103.85 15.22 104.09 15.2 104.17 15.23C104.25 15.26 104.34 15.29 104.42 15.32C104.93 15.5 105.24 15.63 105.61 15.8C106.44 16.18 107.27 16.62 108.02 17.16C108.23 17.31 107.79 16.93 108.1 17.23C108.17 17.29 108.24 17.35 108.3 17.42C108.36 17.49 108.43 17.55 108.49 17.62C108.33 17.44 108.48 17.6 108.51 17.65C108.5 17.63 108.73 18.03 108.63 17.84C108.54 17.66 108.7 18.05 108.7 18.05C108.72 18.14 108.74 18.23 108.76 18.32C108.71 18.06 108.76 18.36 108.76 18.47C108.76 18.56 108.76 18.65 108.76 18.75C108.74 19.05 108.75 18.83 108.76 18.77C108.71 18.98 108.65 19.17 108.59 19.38C108.52 19.61 108.75 19.12 108.54 19.47C108.49 19.55 108.45 19.63 108.4 19.71C108.36 19.78 108.3 19.85 108.26 19.92C108.42 19.66 108.23 19.95 108.18 20.01C108.07 20.13 107.94 20.24 107.82 20.36C107.54 20.63 107.97 20.27 107.78 20.4C107.69 20.46 107.61 20.52 107.52 20.57C107.38 20.66 107.23 20.73 107.08 20.81C106.83 20.94 107.04 20.83 107.09 20.81C106.97 20.85 106.85 20.89 106.73 20.93C106.55 20.98 106.36 21.02 106.18 21.06C105.95 21.11 106.53 21.06 106.14 21.06C106.06 21.06 105.97 21.06 105.89 21.07C105.72 21.07 105.56 21.07 105.39 21.05C105.72 21.07 105.44 21.05 105.35 21.04C105.23 21.01 105.1 20.98 104.98 20.95C104.9 20.93 104.82 20.89 104.74 20.87C104.52 20.81 105.03 21.03 104.69 20.85C104.54 20.77 104.39 20.7 104.25 20.61C104.18 20.57 104.11 20.52 104.04 20.47C103.71 20.26 104.16 20.6 104 20.44C103.85 20.29 103.69 20.16 103.55 20C103.48 19.92 103.41 19.84 103.34 19.76C103.38 19.81 103.5 19.99 103.34 19.76C103.25 19.62 103.16 19.48 103.08 19.33C103.03 19.24 102.99 19.14 102.94 19.05C102.83 18.84 103.04 19.37 102.92 19C102.86 18.8 102.79 18.6 102.75 18.4C102.73 18.32 102.72 18.24 102.7 18.15C102.76 18.5 102.7 18.08 102.7 18.03C102.7 17.81 102.71 17.59 102.72 17.37C102.71 17.45 102.71 17.66 102.72 17.37C102.75 17.24 102.77 17.11 102.8 16.99C102.86 16.78 102.92 16.57 103.01 16.37C102.9 16.63 102.99 16.42 103.01 16.37C103.07 16.25 103.13 16.14 103.2 16.02C103.26 15.93 103.31 15.83 103.38 15.74C103.45 15.65 103.55 15.51 103.42 15.67C103.57 15.48 103.74 15.31 103.91 15.14C103.97 15.08 104.04 15.03 104.11 14.97C104.19 14.9 104.18 14.91 104.07 15C104.14 14.95 104.21 14.9 104.29 14.85C104.94 14.42 105.29 13.51 104.83 12.8C104.41 12.15 103.48 11.8 102.78 12.26L102.8 12.22Z" fill="#262626"/>
<path d="M104.62 18.95C104.5 19.26 104.52 19.67 104.6 19.99C104.68 20.31 104.87 20.6 105.1 20.85C105.21 20.97 105.39 21.09 105.49 21.16C105.53 21.19 105.57 21.21 105.61 21.23C105.74 21.29 105.89 21.35 106.03 21.41C106.05 21.41 106.07 21.42 106.09 21.43C106.26 21.48 106.45 21.49 106.63 21.51C106.68 21.51 106.72 21.51 106.77 21.51C106.92 21.5 107.08 21.48 107.22 21.45C107.25 21.45 107.27 21.44 107.3 21.43C107.43 21.38 107.57 21.32 107.7 21.26C107.72 21.26 107.74 21.24 107.76 21.23C107.88 21.15 108 21.05 108.11 20.96C108.13 20.94 108.16 20.92 108.18 20.9C108.46 20.61 108.6 20.34 108.73 19.97C108.82 19.74 108.84 19.48 108.85 19.23C108.85 19.16 108.85 19.1 108.85 19.03C108.83 18.84 108.81 18.63 108.77 18.44C108.75 18.37 108.73 18.3 108.71 18.24C108.64 18.06 108.57 17.87 108.48 17.7C108.39 17.53 108.26 17.38 108.09 17.28C107.95 17.15 107.78 17.06 107.58 17.01C107.38 16.95 107.18 16.94 106.98 16.98C106.78 16.98 106.59 17.05 106.42 17.16L106.12 17.39C105.93 17.58 105.81 17.8 105.73 18.05L105.68 18.45C105.68 18.72 105.75 18.97 105.88 19.21C105.9 19.25 105.91 19.28 105.93 19.32L105.78 18.96C105.84 19.1 105.88 19.24 105.9 19.39L105.85 18.99C105.86 19.11 105.87 19.23 105.85 19.34L105.9 18.94C105.89 19.02 105.87 19.1 105.84 19.18L105.99 18.82C105.96 18.89 105.92 18.95 105.88 19.01L106.11 18.71C106.11 18.71 106.03 18.8 105.98 18.84L106.28 18.61C106.28 18.61 106.21 18.65 106.17 18.67L106.53 18.52C106.53 18.52 106.43 18.55 106.38 18.56L106.78 18.51C106.72 18.51 106.66 18.51 106.59 18.51L106.99 18.56C106.92 18.55 106.86 18.53 106.79 18.5L107.15 18.65C107.09 18.63 107.04 18.6 106.99 18.56L107.29 18.79C107.29 18.79 107.21 18.72 107.18 18.68L107.41 18.98C107.41 18.98 107.37 18.92 107.35 18.88L107.5 19.24C107.5 19.24 107.48 19.17 107.47 19.14L107.52 19.54C107.52 19.54 107.52 19.48 107.52 19.44L107.47 19.84C107.47 19.84 107.48 19.77 107.5 19.74C107.56 19.54 107.57 19.34 107.53 19.14C107.53 18.94 107.46 18.75 107.35 18.58C107.26 18.41 107.13 18.26 106.96 18.16C106.82 18.03 106.65 17.94 106.45 17.89L106.05 17.84C105.78 17.84 105.53 17.91 105.29 18.04L104.99 18.27C104.8 18.46 104.68 18.68 104.6 18.93L104.62 18.95Z" fill="#262626"/>
<path d="M109.51 12.15C109.42 11.72 109.38 11.56 109.36 11.22C109.36 11.06 109.35 10.89 109.36 10.73C109.32 11.03 109.51 10.32 109.41 10.55C109.45 10.47 109.67 10.2 109.46 10.43C109.52 10.37 109.57 10.31 109.64 10.25C109.51 10.34 109.5 10.35 109.58 10.29C109.64 10.25 110.04 10.05 109.73 10.18C109.85 10.13 109.98 10.09 110.1 10.06C110.18 10.04 110.27 10.02 110.36 10.01C110.2 10.03 110.18 10.04 110.29 10.03C110.41 10.07 110.62 10.03 110.75 10.03C110.43 10.03 110.8 10.05 110.87 10.07C110.95 10.09 111.04 10.12 111.12 10.15C111 10.09 110.99 10.09 111.1 10.14C111.7 10.42 112.03 10.72 112.51 11.31C112.37 11.14 112.63 11.47 112.65 11.51C112.77 11.68 112.88 11.86 112.99 12.03C113.17 12.32 113.34 12.62 113.5 12.93C113.69 13.3 113.78 13.49 113.91 13.89C113.97 14.06 114.02 14.23 114.06 14.4C114.09 14.51 114.12 14.63 114.14 14.75C114.17 14.94 114.18 14.98 114.17 14.88C114.21 15.2 114.21 15.53 114.18 15.85C114.2 15.56 114.12 16.12 114.11 16.18C114.07 16.32 114.03 16.46 113.98 16.6C114.07 16.36 113.88 16.79 113.85 16.84C113.82 16.89 113.55 17.28 113.72 17.08C113.63 17.19 113.52 17.29 113.42 17.4C113.29 17.51 113.28 17.53 113.39 17.44C113.31 17.5 113.23 17.55 113.14 17.6C112.45 18.02 112.19 18.95 112.6 19.65C113.01 20.35 113.95 20.61 114.65 20.19C116.09 19.33 116.92 17.84 117.14 16.21C117.38 14.39 116.76 12.6 115.88 11.03C115.13 9.68001 114.1 8.30001 112.68 7.60001C111.26 6.90001 109.55 6.82001 108.18 7.65001C107.36 8.14001 106.75 8.94001 106.5 9.86001C106.23 10.88 106.4 11.94 106.61 12.96C106.78 13.75 107.71 14.21 108.46 14.01C109.28 13.78 109.68 12.96 109.51 12.16V12.15Z" fill="#262626"/>
<path d="M110.97 17.1C112.9 17.1 112.9 14.1 110.97 14.1C109.04 14.1 109.04 17.1 110.97 17.1Z" fill="#262626"/>
<path d="M112.08 16.53L112.64 16.11C112.81 16.02 112.96 15.89 113.06 15.72C113.19 15.58 113.28 15.41 113.33 15.21C113.39 15.01 113.4 14.81 113.36 14.61C113.36 14.41 113.29 14.22 113.18 14.05L112.95 13.75C112.76 13.56 112.54 13.44 112.29 13.36L111.89 13.31C111.62 13.31 111.37 13.38 111.13 13.51L110.57 13.93C110.4 14.02 110.25 14.15 110.15 14.32C110.02 14.46 109.93 14.63 109.88 14.83C109.82 15.03 109.81 15.23 109.85 15.43C109.85 15.63 109.92 15.82 110.03 15.99L110.26 16.29C110.45 16.48 110.67 16.6 110.92 16.68L111.32 16.73C111.59 16.73 111.84 16.66 112.08 16.53Z" fill="#262626"/>
<path d="M107.19 12.52C107.04 12.65 106.92 12.81 106.83 12.99C106.77 13.11 106.68 13.29 106.65 13.45C106.62 13.61 106.59 13.79 106.59 13.95C106.59 14.15 106.62 14.36 106.68 14.56C106.8 14.92 106.93 15.13 107.17 15.42C107.43 15.74 107.88 15.99 108.28 16.06C108.77 16.15 109.26 16.14 109.73 15.98C110.05 15.87 110.39 15.73 110.68 15.54C110.86 15.42 111.04 15.28 111.2 15.14C111.36 15 111.51 14.8 111.64 14.61C111.77 14.42 111.84 14.23 111.92 14.02C112.01 13.81 112.03 13.56 112.05 13.33C112.08 12.93 111.94 12.45 111.71 12.12C111.39 11.65 110.97 11.3 110.41 11.13C110.07 11.03 109.72 11.04 109.38 11.11C109.22 11.14 109.07 11.22 108.92 11.29C108.76 11.37 108.64 11.49 108.5 11.6C108.35 11.74 108.25 11.9 108.19 12.08C108.1 12.26 108.05 12.45 108.06 12.66C108.06 13.03 108.22 13.47 108.5 13.72C108.78 13.97 109.16 14.18 109.56 14.16L109.96 14.11C110.21 14.04 110.43 13.91 110.62 13.72L110.64 13.7L110.34 13.93C110.34 13.93 110.4 13.89 110.43 13.88L110.07 14.03C110.07 14.03 110.13 14.01 110.17 14L109.77 14.05C109.77 14.05 109.85 14.05 109.9 14.05L109.5 14C109.55 14 109.6 14.02 109.65 14.04L109.29 13.89C109.35 13.92 109.41 13.95 109.46 13.99L109.16 13.76C109.22 13.81 109.27 13.86 109.32 13.92L109.09 13.62C109.13 13.67 109.16 13.73 109.19 13.79L109.04 13.43C109.06 13.48 109.08 13.54 109.09 13.59L109.04 13.19C109.04 13.25 109.04 13.31 109.04 13.37L109.09 12.97C109.08 13.06 109.05 13.14 109.02 13.22L109.17 12.86C109.13 12.95 109.08 13.03 109.02 13.11L109.25 12.81C109.16 12.92 109.07 13.01 108.96 13.09L109.26 12.86C109.09 12.99 108.9 13.09 108.71 13.17L109.07 13.02C108.92 13.08 108.77 13.13 108.61 13.15L109.01 13.1C108.91 13.11 108.81 13.12 108.7 13.1L109.1 13.15C109.02 13.14 108.95 13.12 108.88 13.09L109.24 13.24C109.19 13.22 109.14 13.19 109.09 13.15L109.39 13.38C109.39 13.38 109.31 13.31 109.27 13.26L109.5 13.56C109.46 13.51 109.43 13.45 109.4 13.39L109.55 13.75C109.53 13.7 109.52 13.65 109.51 13.59L109.56 13.99C109.56 13.94 109.56 13.89 109.56 13.83L109.51 14.23C109.51 14.23 109.53 14.15 109.54 14.11L109.39 14.47C109.39 14.47 109.42 14.41 109.44 14.38L109.21 14.68C109.21 14.68 109.26 14.63 109.28 14.6C109.43 14.46 109.53 14.3 109.59 14.12C109.68 13.94 109.73 13.75 109.72 13.54C109.72 13.17 109.56 12.73 109.28 12.48C109 12.23 108.62 12.02 108.22 12.04L107.82 12.09C107.57 12.16 107.35 12.29 107.16 12.48L107.19 12.52Z" fill="#262626"/>
<path d="M111.14 11.1C110.34 11.86 110.02 13.1 110.33 14.16C110.43 14.51 110.69 14.88 111.02 15.06L111.38 15.21C111.65 15.28 111.91 15.28 112.18 15.21C112.45 15.15 112.72 15.08 112.98 14.98C113.21 14.88 113.46 14.8 113.67 14.65C113.87 14.51 114.08 14.37 114.24 14.18C114.35 14.04 114.48 13.9 114.57 13.75C114.66 13.6 114.72 13.43 114.78 13.27C114.8 13.22 114.81 13.17 114.82 13.12C114.85 12.95 114.88 12.76 114.89 12.59C114.89 12.54 114.89 12.49 114.89 12.44C114.87 12.26 114.86 12.07 114.81 11.9C114.77 11.74 114.69 11.58 114.62 11.43C114.6 11.38 114.58 11.33 114.55 11.29C114.46 11.15 114.35 11 114.23 10.88C114.21 10.86 114.19 10.84 114.17 10.83C114.06 10.74 113.94 10.64 113.82 10.56C113.8 10.55 113.77 10.54 113.75 10.52C113.62 10.46 113.48 10.39 113.34 10.35C113.25 10.33 113.15 10.32 113.07 10.31C112.98 10.3 112.88 10.28 112.78 10.28C112.39 10.28 111.99 10.44 111.72 10.72C111.57 10.86 111.47 11.02 111.41 11.2C111.32 11.38 111.27 11.57 111.28 11.78C111.3 12.17 111.42 12.57 111.72 12.84C112.02 13.11 112.38 13.28 112.78 13.28C112.81 13.28 112.84 13.28 112.87 13.28L112.47 13.23C112.47 13.23 112.55 13.25 112.59 13.26L112.23 13.11C112.23 13.11 112.31 13.15 112.35 13.18L112.05 12.95C112.05 12.95 112.13 13.02 112.16 13.06L111.93 12.76C111.97 12.82 112.01 12.88 112.03 12.94L111.88 12.58C111.91 12.66 111.93 12.73 111.94 12.81L111.89 12.41C111.9 12.5 111.9 12.59 111.89 12.68L111.94 12.28C111.93 12.35 111.91 12.43 111.88 12.5L112.03 12.14C112 12.21 111.96 12.26 111.92 12.32L112.15 12.02C112.08 12.1 112.01 12.17 111.93 12.24L112.23 12.01C112.11 12.1 111.97 12.18 111.83 12.24L112.19 12.09C111.93 12.2 111.66 12.26 111.39 12.32L113.24 13.37C113.22 13.29 113.2 13.22 113.19 13.14L113.24 13.54C113.22 13.39 113.22 13.25 113.24 13.1L113.19 13.5C113.21 13.36 113.25 13.23 113.3 13.1L113.15 13.46C113.2 13.33 113.27 13.21 113.36 13.1L113.13 13.4C113.18 13.34 113.23 13.28 113.29 13.23C113.56 12.97 113.73 12.55 113.73 12.17C113.73 11.96 113.69 11.77 113.6 11.59C113.54 11.4 113.44 11.24 113.29 11.11C113 10.85 112.63 10.65 112.23 10.67C111.83 10.69 111.46 10.83 111.17 11.11L111.14 11.1Z" fill="#262626"/>
<path d="M102.94 14.55C102.9 14.42 102.87 14.29 102.85 14.16L102.9 14.56C102.88 14.39 102.88 14.21 102.9 14.04L102.85 14.44C102.87 14.29 102.91 14.14 102.97 14L102.82 14.36C102.87 14.24 102.94 14.13 103.02 14.02L102.79 14.32C102.86 14.23 102.94 14.15 103.03 14.08L102.73 14.31C102.82 14.24 102.92 14.19 103.02 14.14L102.66 14.29C102.78 14.24 102.91 14.2 103.04 14.19L102.64 14.24C102.76 14.23 102.88 14.23 103 14.24L102.6 14.19C102.7 14.21 102.8 14.23 102.89 14.27L102.53 14.12C102.61 14.16 102.69 14.2 102.77 14.26L102.47 14.03C102.53 14.08 102.58 14.13 102.63 14.19L102.4 13.89C102.46 13.96 102.5 14.04 102.54 14.12L102.39 13.76C102.43 13.86 102.46 13.96 102.47 14.07L102.42 13.67C102.43 13.77 102.43 13.87 102.42 13.97L102.47 13.57C102.46 13.66 102.43 13.74 102.4 13.83L102.55 13.47C102.52 13.54 102.48 13.61 102.43 13.68L102.66 13.38C102.62 13.43 102.57 13.48 102.52 13.52L102.82 13.29C102.82 13.29 102.79 13.31 102.78 13.32C102.61 13.41 102.46 13.54 102.36 13.71C102.23 13.85 102.14 14.02 102.09 14.22C102.03 14.42 102.02 14.62 102.06 14.82C102.06 15.02 102.13 15.21 102.24 15.38C102.45 15.7 102.75 15.98 103.14 16.07C103.53 16.16 103.97 16.15 104.3 15.92C104.63 15.69 104.96 15.4 105.14 15.01C105.32 14.62 105.45 14.22 105.42 13.77C105.39 13.32 105.3 12.95 105.09 12.55C104.89 12.18 104.58 11.88 104.22 11.65C103.83 11.4 103.4 11.31 102.95 11.27C102.86 11.27 102.77 11.27 102.67 11.27C102.45 11.29 102.2 11.31 101.99 11.39C101.54 11.54 101.21 11.73 100.85 12.04C100.68 12.18 100.54 12.38 100.42 12.56C100.35 12.65 100.3 12.75 100.25 12.85C100.15 13.06 100.05 13.29 99.99 13.52C99.93 13.75 99.9 14.01 99.89 14.25C99.88 14.49 99.92 14.74 99.96 14.99C99.98 15.12 100.01 15.25 100.05 15.38C100.17 15.75 100.4 16.08 100.74 16.28C100.91 16.39 101.1 16.45 101.3 16.46C101.5 16.5 101.7 16.5 101.9 16.43C102.26 16.31 102.61 16.09 102.8 15.74C102.99 15.39 103.08 14.97 102.95 14.58L102.94 14.55Z" fill="#262626"/>
<path d="M109.69 9.56C111.62 9.56 111.62 6.56 109.69 6.56C107.76 6.56 107.76 9.56 109.69 9.56Z" fill="#262626"/>
<path d="M117.76 13.1C118.03 12.96 117.51 13.2 117.68 13.14C117.85 13.08 117.32 13.14 117.57 13.15C117.61 13.15 117.66 13.15 117.7 13.15C117.82 13.15 117.76 13.15 117.51 13.13C117.56 13.15 117.63 13.16 117.68 13.17C117.8 13.21 117.79 13.21 117.66 13.16C117.54 13.11 117.53 13.11 117.64 13.16C117.68 13.19 117.91 13.34 117.7 13.19C117.49 13.04 117.72 13.23 117.75 13.26C117.94 13.44 117.63 13.07 117.72 13.22C117.8 13.36 117.88 13.49 117.95 13.64C118.03 13.8 117.84 13.33 117.92 13.59C117.94 13.67 117.97 13.74 117.99 13.82C118.04 14 118.08 14.17 118.11 14.35C118.15 14.56 118.09 14.33 118.1 14.26C118.09 14.34 118.12 14.48 118.12 14.57C118.12 14.74 118.12 14.91 118.12 15.08C118.11 15.36 118.17 14.85 118.13 15.03C118.11 15.11 118.1 15.2 118.08 15.28C118.06 15.36 118.04 15.44 118.01 15.52C117.94 15.73 117.95 15.62 118.03 15.49C117.95 15.6 117.88 15.76 117.82 15.88C117.67 16.14 118.04 15.64 117.84 15.86C117.8 15.9 117.76 15.95 117.72 15.99C117.67 16.04 117.56 16.11 117.53 16.17C117.58 16.08 117.8 15.98 117.59 16.12C117.53 16.16 117.47 16.2 117.4 16.23C117.35 16.26 117.12 16.39 117.34 16.26C117.55 16.14 117.34 16.26 117.27 16.26C117.16 16.29 116.87 16.32 117.32 16.26C116.91 16.31 116.56 16.4 116.26 16.7C116 16.96 115.8 17.39 115.82 17.76C115.85 18.49 116.49 19.36 117.32 19.26C117.94 19.19 118.52 19.05 119.06 18.71C119.6 18.37 120.01 17.95 120.36 17.44C120.96 16.56 121.2 15.38 121.11 14.33C121.01 13.16 120.68 11.99 119.86 11.11C118.93 10.11 117.43 9.84999 116.22 10.47C115.52 10.83 115.26 11.87 115.68 12.52C116.14 13.23 116.99 13.44 117.73 13.06L117.76 13.1Z" fill="#262626"/>
<path d="M107.17 28.4C107.04 28.18 106.92 27.96 106.82 27.73L106.97 28.09C106.9 27.91 106.84 27.73 106.81 27.54L106.86 27.94C106.84 27.81 106.84 27.69 106.86 27.56L106.81 27.96C106.83 27.85 106.86 27.74 106.9 27.63L106.75 27.99C106.79 27.9 106.84 27.81 106.9 27.73L106.67 28.03C106.72 27.97 106.77 27.92 106.83 27.87L106.53 28.1C106.59 28.05 106.65 28.02 106.72 27.99L106.36 28.14C106.42 28.12 106.48 28.1 106.55 28.09L106.15 28.14C106.21 28.14 106.27 28.14 106.33 28.14L105.93 28.09C106.01 28.1 106.09 28.12 106.16 28.15L105.8 28C105.88 28.04 105.94 28.08 106.01 28.13L105.71 27.9C105.79 27.96 105.85 28.03 105.91 28.11L105.68 27.81C105.75 27.9 105.8 27.99 105.84 28.09L105.69 27.73C105.74 27.85 105.76 27.96 105.78 28.09L105.73 27.69C105.75 27.88 105.74 28.07 105.73 28.25L105.78 27.85C105.75 28.09 105.69 28.32 105.63 28.55C105.53 28.93 105.58 29.36 105.78 29.71C105.96 30.02 106.32 30.32 106.68 30.4C107.06 30.49 107.49 30.47 107.84 30.25C108.19 30.03 108.43 29.74 108.53 29.35C108.63 28.96 108.68 28.62 108.73 28.25C108.78 27.88 108.74 27.49 108.66 27.12C108.58 26.75 108.39 26.43 108.17 26.13C108.07 26.01 107.99 25.88 107.87 25.78C107.71 25.64 107.54 25.5 107.34 25.41C107.16 25.33 106.97 25.23 106.77 25.2C106.37 25.13 106.14 25.13 105.75 25.2C105.36 25.27 104.99 25.52 104.69 25.78C104.37 26.07 104.2 26.43 104.04 26.82C104.01 26.9 103.98 26.99 103.96 27.08C103.92 27.29 103.88 27.51 103.88 27.73C103.89 28.52 104.22 29.23 104.61 29.9C104.8 30.23 105.14 30.49 105.51 30.59C105.88 30.69 106.35 30.64 106.67 30.44C106.99 30.24 107.27 29.93 107.36 29.54C107.45 29.15 107.41 28.74 107.21 28.38L107.17 28.4Z" fill="#262626"/>
<path d="M30.94 55.13C28.97 53.82 26.41 55.08 24.65 56.2C22.77 57.39 21.17 58.97 19.95 60.84C18.73 62.71 17.66 65 18.38 67.17C19.04 69.17 20.87 70.8 22.7 71.74C26.67 73.8 31.45 73.39 35.21 71.07C37.07 69.93 38.64 68.41 39.95 66.68C41.26 64.95 42.59 62.66 42.02 60.31C41.45 57.96 39.04 56.14 36.93 55C34.57 53.72 31.79 52.93 29.17 53.9C27.38 54.57 28.15 57.47 29.97 56.79C31.61 56.18 33.24 56.53 34.78 57.26C36.16 57.92 37.73 58.82 38.64 60.09C39.69 61.56 38.8 63.07 37.91 64.38C37.02 65.69 35.96 66.82 34.74 67.76C32.3 69.62 29.18 70.56 26.15 69.84C24.7 69.49 23.35 68.82 22.29 67.76C21.82 67.29 21.33 66.72 21.17 66.06C20.98 65.27 21.4 64.41 21.74 63.72C22.53 62.11 23.65 60.7 25.04 59.57C25.86 58.9 28.33 56.99 29.42 57.71C31.03 58.78 32.54 56.19 30.93 55.12L30.94 55.13Z" fill="#262626"/>
<path d="M108.08 31.04C108.28 31.06 108.49 31.08 108.69 31.11L108.29 31.06C108.69 31.12 109.09 31.2 109.47 31.35L109.11 31.2C109.31 31.29 109.5 31.39 109.67 31.52L109.37 31.29C109.49 31.39 109.59 31.49 109.69 31.61L109.46 31.31C109.57 31.45 109.65 31.59 109.72 31.75L109.57 31.39C109.63 31.53 109.66 31.66 109.68 31.81L109.63 31.41C109.64 31.51 109.64 31.61 109.63 31.72L109.68 31.32C109.67 31.42 109.64 31.52 109.61 31.62L109.76 31.26C109.71 31.37 109.66 31.47 109.59 31.57L109.82 31.27C109.67 31.46 109.49 31.63 109.29 31.78L109.59 31.55C109.33 31.75 109.05 31.91 108.76 32.05L109.12 31.9C108.87 32.01 108.61 32.08 108.34 32.12L108.74 32.07C108.55 32.09 108.36 32.1 108.16 32.07L108.56 32.12C108.37 32.09 108.19 32.05 108.01 31.97L108.37 32.12C108.21 32.05 108.07 31.97 107.93 31.87L108.23 32.1C108.1 32 107.98 31.88 107.87 31.75L108.1 32.05C108.01 31.93 107.94 31.81 107.88 31.68L108.03 32.04C107.98 31.92 107.95 31.81 107.93 31.68C107.88 31.33 107.53 30.95 107.24 30.78C106.92 30.59 106.44 30.51 106.08 30.63C105.72 30.75 105.37 30.97 105.18 31.32C104.98 31.7 104.96 32.05 105.03 32.48C105.19 33.53 106.06 34.38 107 34.78C108.1 35.24 109.25 35.09 110.31 34.59C110.77 34.37 111.2 34.06 111.58 33.72C112.01 33.34 112.38 32.82 112.51 32.26C112.78 31.16 112.36 29.94 111.5 29.2C110.51 28.34 109.29 28.16 108.04 28.04C107.68 28.01 107.23 28.23 106.98 28.48C106.72 28.74 106.52 29.17 106.54 29.54C106.56 29.91 106.68 30.33 106.98 30.6C107.28 30.87 107.62 31 108.04 31.04H108.08Z" fill="#262626"/>
</g>
<defs>
<clipPath id="clip0_36_50">
<rect width="129.68" height="92.87" fill="white"/>
</clipPath>
</defs>
</svg>
