<svg width="194" height="178" viewBox="0 0 194 178" fill="none" xmlns="http://www.w3.org/2000/svg">
<path d="M171.958 12.4129L167.608 1.69721L139.52 1.09843L116.811 18.4769L139.835 30.2527L171.958 12.4129Z" fill="#E54843"/>
<path d="M148.454 25.4674L150.743 49.1985L117.028 49.7615L121.321 20.7846L139.835 30.2527L148.454 25.4674Z" fill="#BF2C43"/>
<path d="M117.028 49.7615L160.081 72.1988L150.743 49.1985L117.028 49.7615Z" fill="#E54843"/>
<path d="M106.955 97.6189L94.1015 130.256L118.371 160.674L158.36 97.0544L106.955 97.6189Z" fill="#BF2C43"/>
<path d="M94.1015 130.256L118.371 160.674L78.6146 176.814L69.5818 154.558L94.1015 130.256Z" fill="#E52943"/>
<path d="M69.5818 154.558L12.2813 160.053L78.6146 176.814L69.5818 154.558Z" fill="#E54843"/>
<path d="M158.36 97.0544L163.045 130.538L158.573 144.356L138.366 128.866L158.36 97.0544Z" fill="#E54843"/>
<path d="M158.573 144.356L181.149 135.192L163.045 130.538L158.573 144.356Z" fill="#BF2C43"/>
<path d="M172.012 130.686L193.012 122.164L174.133 117.906L172.012 130.686Z" fill="#BF2C43"/>
<path d="M117.028 49.7615L46.5627 11.0857L106.731 98.899L117.028 49.7615Z" fill="#E54843"/>
<path d="M46.7902 9.80552L0.747771 77.3332L34.1614 76.8591L46.7902 9.80552Z" fill="#E56343"/>
<path d="M34.1614 76.8591L47.2487 85.4427L46.7902 9.80552L34.1614 76.8591Z" fill="#E54843"/>
<path d="M47.2487 85.4427L65.5878 77.9981L46.7902 9.80551L47.2487 85.4427Z" fill="#E56343"/>
<path d="M65.5878 77.9981L80.8295 93.6637L46.7902 9.80551L65.5878 77.9981Z" fill="#E54843"/>
<path d="M80.8295 93.6637L98.381 85.1006L46.7902 9.80551L80.8295 93.6637Z" fill="#E56343"/>
<path d="M166.639 14.2133L170.869 24.6306L158.487 18.7405L166.639 14.2133Z" fill="#E56343"/>
<path d="M117.038 17.1967L108.13 3.5303L132.056 5.70406L117.038 17.1967Z" fill="#E54843"/>
<path d="M153.112 53.1972L174.257 64.3398L160.305 70.9186L153.112 53.1972Z" fill="#E52943"/>
<path d="M158.133 98.3346L173.906 119.186L171.785 131.966L162.031 125.941L158.133 98.3346Z" fill="#E54843"/>
<path d="M174.257 64.3398L181.454 74.181L163.849 69.2473L174.257 64.3398Z" fill="#E56343"/>
<path d="M117.028 49.7615L156.532 70.3517L158.133 98.3346L106.731 98.899L117.028 49.7615Z" fill="#E52943"/>
<path d="M150.743 49.1985L174.737 54.5705L160.649 58.5699L152.888 54.4809L150.743 49.1985Z" fill="#BF2C43"/>
<path d="M174.737 54.5705L180.989 63.712L163.149 57.8583L174.737 54.5705Z" fill="#E54843"/>
<path d="M98.381 85.1007L94.1015 130.256L106.955 97.6189L98.381 85.1007Z" fill="#912C43"/>
</svg>
