<svg width="45" height="37" viewBox="0 0 45 37" fill="none" xmlns="http://www.w3.org/2000/svg">
<mask id="mask0_55_16" style="mask-type:luminance" maskUnits="userSpaceOnUse" x="0" y="0" width="45" height="37">
<path d="M45 0H0V37H45V0Z" fill="white"/>
</mask>
<g mask="url(#mask0_55_16)">
<mask id="mask1_55_16" style="mask-type:luminance" maskUnits="userSpaceOnUse" x="-4" y="-5" width="57" height="45">
<path d="M43.3976 -4.69421L-3.78656 7.23904L5.41373 39.6023L52.5979 27.6691L43.3976 -4.69421Z" fill="white"/>
</mask>
<g mask="url(#mask1_55_16)">
<mask id="mask2_55_16" style="mask-type:luminance" maskUnits="userSpaceOnUse" x="-4" y="-5" width="57" height="45">
<path d="M43.3976 -4.69421L-3.78656 7.23904L5.41373 39.6023L52.5979 27.6691L43.3976 -4.69421Z" fill="white"/>
</mask>
<g mask="url(#mask2_55_16)">
<path d="M3.47018 9.70494C3.48749 9.64781 3.49614 9.59066 3.47884 9.54169C3.59999 9.50904 3.72114 9.47639 3.87691 9.56618C4.18845 9.73759 4.53461 10.0233 4.88076 10.309C5.76345 11.0844 6.52499 11.8925 7.39903 12.6679C8.62787 13.729 9.82211 14.6758 11.0163 15.6227C11.051 15.7369 11.2933 15.6798 11.4144 15.6471C11.5442 15.6145 11.6308 15.4676 11.5961 15.3533L9.31153 7.32153C9.0173 6.26858 8.87018 5.31359 9.10384 4.25248C9.06922 4.13005 9.32018 4.07291 9.40672 3.92599C9.52787 3.89334 9.68364 3.98312 9.8048 3.95047C9.99518 4.15453 10.1856 4.35043 10.2548 4.58714C11.051 6.00739 11.5183 7.6317 11.8558 9.29682L13.275 14.3003C13.3096 14.4146 13.4654 14.4963 13.5 14.6187C13.7769 14.6677 13.8721 14.5289 13.924 14.2595C14.1577 13.2066 14.4173 12.2679 14.6423 11.215C14.9885 9.63148 15.6115 8.09695 16.3904 6.66038C16.4423 6.39102 16.6586 6.21145 16.875 6.03188L17.2471 5.94209C17.3769 5.90944 17.5586 6.1135 17.4721 6.26042C17.4461 6.64405 17.4202 7.01952 17.2731 7.4358C16.6327 9.34579 16.1048 11.2231 15.8538 13.1576C15.8019 13.9167 15.1961 14.5697 15.551 15.3533C16.451 15.2472 17.126 14.8309 17.8356 14.5207C19.9558 13.6147 22.2144 13.1658 24.4298 12.6026C24.6808 12.5454 24.9231 12.4801 25.2086 12.5373C25.4856 12.5863 25.676 12.7903 25.7452 13.0189C25.8058 13.2556 25.7538 13.5168 25.5375 13.6963C25.2 13.9086 24.8625 14.1208 24.3346 14.1289C21.3058 14.6513 18.5106 15.9818 15.8106 17.1572C15.5596 17.2225 15.3433 17.4021 15.1009 17.4592C14.3048 17.9081 14.2788 18.2917 14.8154 18.7815C15.1615 19.0672 15.5077 19.3529 15.8885 19.7528C17.775 21.271 19.6269 22.6749 21.6952 23.8993C22.0413 24.185 22.5086 24.4462 22.8548 24.7319C23.0452 24.9359 22.9846 25.1971 22.9327 25.4665C22.751 25.7603 22.5086 25.8256 22.2577 25.8909C21.7298 25.8991 21.2279 25.5236 20.7606 25.2706C19.4365 24.3564 18.0865 23.3279 16.7711 22.4137C16.425 22.1281 15.9577 21.8669 15.6115 21.5812C15.4558 21.4996 15.3346 21.524 15.2394 21.671L15.1529 21.8179C15.2913 22.2831 15.3 22.781 15.3952 23.132L18.4673 33.9553C18.6317 34.5349 18.8048 35.1225 18.8394 35.7347C18.9086 35.9714 18.7269 36.2653 18.3548 36.3551C18.1125 36.4204 17.8356 36.3632 17.6452 36.1673C17.2298 35.6449 17.0654 35.0654 16.9356 34.6002C15.9058 30.9924 14.4433 25.8501 13.7683 23.9238C13.6298 23.532 12.9981 22.6178 12.851 23.0341C12.4702 24.0054 12.0808 24.9767 12.1327 26.0868C12.1413 26.5847 11.9942 26.9928 11.8471 27.4009C11.7 27.8172 11.2413 28.0539 10.8346 28.0376C10.4279 28.0131 10.0471 27.605 10.0731 27.2295C10.1077 25.9725 10.1163 24.6013 10.6788 23.3279C10.8692 22.7892 11.0942 22.2423 11.3106 21.6955L11.501 21.2302C11.726 20.6833 11.9423 20.1364 12.1327 19.5977C12.2192 19.4508 12.1586 19.2141 12.124 19.0998C12.0635 18.8631 11.8125 18.9284 11.5615 18.9855C9.03461 19.8752 6.60287 20.6099 4.07595 21.4996C3.12403 21.8669 2.29326 22.2015 1.55768 22.8872C1.34999 23.0667 1.09903 23.132 0.78749 22.9606C0.597105 22.7566 0.527875 22.528 0.588452 22.2586C0.614413 21.8832 0.917298 21.5567 1.22018 21.222C2.0423 20.3895 2.96826 19.9079 4.04133 19.5161C5.02787 19.2631 5.9798 18.8958 7.09614 18.6182C8.20384 18.3407 9.28557 17.9408 10.324 17.4265C10.0904 16.6103 9.38076 16.4226 8.84422 15.9328C7.11345 14.4962 5.63365 13.0025 4.24038 11.3619C3.85961 10.9619 3.47884 10.5538 3.43557 9.94164C3.41826 9.89267 3.43557 9.83554 3.44422 9.7784V9.72943L3.47018 9.70494ZM35.4029 23.1728C35.55 22.7566 35.7317 22.4709 35.8788 22.0546C36.476 20.9037 36.874 20.4303 37.099 20.7486C37.5404 21.3853 37.0211 21.8913 37.0298 22.3893C36.9519 23.0341 36.5885 23.6299 36.7875 24.3237C37.8433 24.3074 38.6394 23.8585 39.5913 23.4912C40.5779 23.2381 41.0106 23.3769 41.149 23.8422C41.2788 24.3074 41.0711 24.487 40.1452 24.9686C40.024 25.0012 39.9029 25.0339 39.8077 25.1808C39.2538 25.5644 38.1375 25.3522 38.2154 26.0786C38.224 26.5765 39.1846 26.7071 39.6865 27.0745C39.9981 27.2459 40.0933 27.5969 39.9202 27.8825C39.7384 28.1764 39.3663 28.2743 39.0634 28.1029C38.4663 27.8744 37.999 27.6213 37.4019 27.4009C36.9779 27.7601 37.2029 28.0784 37.2635 28.307L37.9211 30.6332C37.9904 30.87 37.8086 31.1638 37.5923 31.3434C37.2202 31.4332 36.9086 31.2699 36.6836 30.9516C36.3981 30.3965 36.199 29.7027 35.9048 29.1477C35.8442 28.9191 35.8356 28.4212 35.3336 28.5437C34.9615 28.6335 34.9442 29.0171 34.9183 29.4007C34.8058 29.9313 34.6933 30.4618 34.5721 30.9842C34.5202 31.2454 34.4596 31.5148 34.2433 31.6862C34.1567 31.8331 33.9058 31.8984 33.7846 31.9311C33.6288 31.8494 33.3519 31.7923 33.2827 31.5556C33.2135 31.3189 33.274 31.0577 33.2048 30.8291C33.1961 30.3312 33.3433 29.9231 33.4904 29.5068C33.5163 29.1314 33.9058 28.6498 33.6548 28.2172C33.0923 28.1111 32.7548 28.3233 32.2961 28.56C31.8288 28.8049 31.5 29.0089 31.0067 29.1314C30.8856 29.164 30.6086 29.1069 30.4442 29.0253C30.5308 28.8783 30.4702 28.6416 30.5567 28.4947C30.6173 28.2335 30.825 28.0539 31.0413 27.8662C31.4654 27.5071 32.0192 27.1234 32.599 26.8541C33.1529 26.4623 33.9231 26.397 34.1308 25.7195C33.7154 25.1971 32.9452 25.2706 32.4692 25.0175C32.3134 24.9359 32.1577 24.8461 31.9673 24.6502C31.8115 24.5686 31.7423 24.3319 31.8375 24.185C31.924 24.038 32.0452 24.0054 32.175 23.9728C32.5817 23.9972 32.9798 24.0217 33.3865 24.0381C33.6635 24.0952 33.8452 23.7932 33.75 23.4504L33.2567 21.7036C33.1269 21.2384 33.1183 20.7405 33.0144 20.3976C32.9798 20.2834 33.0663 20.1364 33.1961 20.1038C33.4038 19.9242 33.5683 20.014 33.7154 20.0956C34.0615 20.3813 34.1654 20.7323 34.3904 21.0506C34.6759 21.5975 34.875 22.2995 35.1692 22.8463C35.0394 22.879 35.2038 22.9688 35.3942 23.1647L35.4029 23.1728ZM38.3885 13.1903C37.6442 13.378 38.0336 14.2759 37.35 14.2024C36.5452 14.1534 36.7442 13.476 36.7356 12.9862C36.5625 11.9088 36.5106 10.7987 36.3375 9.72126C36.2942 9.10909 35.8615 8.97032 35.2385 9.12541C34.624 9.28049 34.0356 9.55802 33.4211 9.70494C33.049 9.79473 32.7721 9.74575 32.374 9.72126C32.2183 9.63964 31.9327 9.58251 31.8721 9.35396C31.8375 9.23152 31.8635 8.85605 31.9933 8.82341C32.6683 8.39896 33.4904 8.0643 34.174 7.64802C34.8577 7.23174 34.9442 7.08482 34.6154 6.4155C34.1048 5.54213 33.7154 4.64427 33.2048 3.77906C32.599 2.56287 32.5211 1.82826 32.9279 1.86091C33.7673 2.02416 33.9663 2.71795 34.2519 3.27299C34.7279 4.02393 35.2384 4.88915 35.7231 5.64825C35.7577 5.76252 35.974 6.08085 36.1904 5.90128C36.3115 5.86863 36.4933 5.57478 36.5798 5.42786C36.9 4.21983 37.2202 3.01996 37.3846 1.73031C37.4452 1.46911 37.4625 1.08548 37.5231 0.824285C37.6096 0.677362 37.826 0.497794 37.9471 0.465145C38.1894 0.408008 38.5096 0.579417 38.5702 0.807963C38.6654 1.15894 38.8038 1.61604 38.7779 1.99967C38.7606 2.87304 38.5961 3.66479 38.5788 4.54633C38.5529 4.9218 38.4058 5.33808 38.3798 5.71355C38.3538 6.09718 38.5442 6.29307 39.0721 6.28491C39.8077 6.09717 40.5519 5.90944 41.2269 5.49316C41.9019 5.07688 42.7327 4.74222 43.4683 4.55449C43.7192 4.48919 43.9961 4.54633 44.2385 4.48103C44.524 4.53816 44.7144 4.73406 44.775 4.97077C44.8702 5.32175 44.7836 5.46867 44.576 5.64825C44.3596 5.82782 44.1173 5.89311 43.901 6.07269C42.2048 6.62773 40.7077 7.37866 38.9769 7.81943C38.1202 8.03981 38.0596 8.30101 38.0077 9.06011C37.9298 9.70494 38.25 10.3743 38.5356 10.9211C39.3663 12.4638 40.3529 14.08 41.1923 15.6145C41.4173 15.9328 41.5125 16.2838 41.651 16.7491C41.7461 17.1 41.5731 17.3939 41.2356 17.6061C40.9846 17.6632 40.7077 17.6143 40.5173 17.4102C40.3269 17.2143 40.1106 16.8878 40.0067 16.545C39.6692 15.3778 38.9769 14.3085 38.3971 13.2066L38.3885 13.1903Z" fill="#0E53B2"/>
</g>
</g>
</g>
</svg>
