<svg width="926" height="562" viewBox="0 0 926 562" fill="none" xmlns="http://www.w3.org/2000/svg">
<path d="M686.445 384.83C686.99 385.824 729.344 357.375 729.94 358.453C730.535 359.53 691.379 384.822 691.931 385.832C692.548 386.954 732.672 359.665 733.274 360.765C733.819 361.759 696.836 386.013 697.281 386.818C697.776 387.722 735.978 361.85 736.595 362.979C737.054 363.823 705.463 387.624 705.887 388.4C706.424 389.387 741.643 365.638 742.088 366.444C742.597 367.371 711.631 388.701 712.097 389.53C712.563 390.359 745.588 367.853 746.154 368.877C746.642 369.766 717.884 389.914 718.3 390.66C718.716 391.405 749.833 370.406 750.299 371.257C750.765 372.108 722.732 390.916 723.069 391.534C723.543 392.392 753.075 372.229 753.534 373.057C753.935 373.795 726.691 391.496 727.121 392.272C727.551 393.047 755.829 373.682 756.316 374.564C756.653 375.174 732.428 392.535 732.858 393.319C733.203 393.944 759.945 376.002 760.311 376.673C760.576 377.155 742.812 394.637 743.121 395.202C743.544 395.97 767.195 379.618 767.597 380.356C767.841 380.793 753.534 396.64 753.821 397.16C754.136 397.732 775.113 383.61 775.378 384.092C775.615 384.514 767.604 399.307 767.834 399.728C768.063 400.15 785.554 388.317 785.827 388.814C786.035 389.199 774.869 400.625 775.105 401.062C775.385 401.574 791.119 390.758 791.363 391.202C791.499 391.451 783.338 402.297 783.496 402.598C783.69 402.952 797.602 393.492 797.832 393.906C797.982 394.177 794.999 404.459 795.15 404.73C795.322 405.046 806.767 397.205 806.968 397.567C807.083 397.77 800.722 405.558 800.837 405.769C801.016 406.101 811.35 399.081 811.479 399.314C811.572 399.48 808.044 406.944 808.137 407.102C808.259 407.321 817.195 401.295 817.324 401.529C817.446 401.747 823.305 409.671 823.434 409.904C823.534 410.093 829.666 405.89 829.766 406.063C829.903 406.312 837.375 412.284 837.483 412.473C837.533 412.563 841.327 409.98 841.391 410.1C841.513 410.326 848.993 414.401 849.108 414.597C849.129 414.642 851.123 413.294 851.159 413.354C851.309 413.633 861.83 416.683 861.98 416.954L862.102 416.879" stroke="#E54843" stroke-width="3" stroke-linecap="round" stroke-linejoin="round"/>
<path d="M538.806 417.986C540.914 421.813 694.025 318.299 696.32 322.472C698.887 327.149 545.282 410.477 547.476 414.476C549.965 419.003 694.426 319.18 696.979 323.82C698.93 327.36 556.046 408.225 557.868 411.546C559.689 414.868 696.377 322.788 698.342 326.366C699.963 329.318 565.864 406.319 567.829 409.904C569.528 412.992 698.364 326.049 700.3 329.574C702.164 332.964 581.139 406.138 582.925 409.385C584.438 412.141 703.219 332.971 704.653 335.57C706.417 338.779 596.364 408.277 597.92 411.109C599.39 413.783 709.393 339.788 710.928 342.582C712.355 345.173 598.773 408.97 600.201 411.561C601.771 414.416 710.139 340.202 712.075 343.727C713.825 346.913 599.369 409.279 600.681 411.667C602.065 414.183 710.548 340.745 712.319 343.968C713.624 346.341 601.104 408.767 602.983 412.187C604.432 414.823 711.831 342.04 713.538 345.143C714.994 347.787 603.765 409.618 605.522 412.819C607.408 416.254 713.667 344.134 714.951 346.461C716.694 349.625 613.848 413.188 615.34 415.892C616.616 418.22 719.362 348.593 721.104 351.757C722.295 353.918 625.129 417.979 626.599 420.653C627.588 422.453 684.874 383.557 685.598 384.875C686.323 386.193 626.699 419.726 627.423 421.052C628.413 422.852 684.515 384.016 685.512 385.832C686.38 387.406 635.764 424.637 636.531 426.031C637.126 427.108 683.691 395.458 684.508 396.942C685.261 398.312 643.201 429.48 643.939 430.828C644.405 431.68 682.988 405.626 683.612 406.771C684.078 407.622 651.555 436.003 652.093 436.982C652.516 437.75 682.091 417.677 682.55 418.514C682.966 419.267 651.986 436.447 652.438 437.261C652.911 438.127 681.998 418.107 682.507 419.026C682.945 419.824 657.458 441.193 657.873 441.946C658.254 442.631 681.403 426.852 681.74 427.469C682.048 428.034 658.741 442.473 659.05 443.023C659.379 443.626 681.295 428.87 681.568 429.367C681.862 429.902 664.557 448.182 664.837 448.695C665.052 449.086 680.485 438.715 680.686 439.084C680.915 439.498 666.25 450.013 666.458 450.389C666.63 450.698 680.256 441.592 680.428 441.916C680.593 442.217 668.186 452.107 668.416 452.513C668.616 452.875 679.919 445.064 680.112 445.418C680.306 445.772 672.934 457.613 673.113 457.944C673.206 458.11 679.237 454.05 679.316 454.186C679.409 454.359 675.644 461.047 675.752 461.236C675.802 461.326 678.8 459.27 678.85 459.36C678.907 459.466 677.968 464.105 678.032 464.218C678.032 464.226 678.427 463.962 678.434 463.977" stroke="#E54843" stroke-width="3" stroke-linecap="round" stroke-linejoin="round"/>
<path d="M796.118 199.021C796.72 200.12 837.999 172.033 838.652 173.231C839.254 174.33 887.081 153.497 887.776 154.77C887.991 155.161 904.851 143.833 905.088 144.27C905.138 144.36 902.879 147.998 902.93 148.089C903.166 148.525 919.295 137.672 919.503 138.041C919.582 138.191 915.487 142.214 915.573 142.364C915.723 142.635 924.422 136.625 924.58 136.903" stroke="#E54843" stroke-width="3" stroke-linecap="round" stroke-linejoin="round"/>
<path d="M315.716 489.263C323.476 503.378 825.047 159.816 833.538 175.264C841.09 189.003 338.306 464.987 346.274 479.478C351.545 489.067 711.043 243.596 717.103 254.615C721.757 263.081 344.237 468.512 349.953 478.906C355.668 489.3 707.457 247.776 713.373 258.532C718.673 268.173 365.902 469.4 370.678 478.092C375.376 486.641 693.752 271.374 698.213 279.479C702.91 288.02 371.288 469.333 376.372 478.59C381.866 488.577 691.257 276.985 695.653 284.984C700.286 293.42 385.222 472.865 389.704 481.022C393.584 488.08 686.997 288.08 692.218 297.586C697.023 306.323 396.409 476.458 400.798 484.442C405.718 493.39 687.42 299.333 692.081 307.814C695.588 314.194 403.043 478.853 407.647 487.229C411.233 493.744 689.155 306.624 693.236 314.051C697.453 321.719 412.366 485.12 415.708 491.206C419.666 498.414 691.931 314.307 695.811 321.357C700.035 329.047 414.015 485.391 417.866 492.403C419.566 495.492 515.348 430.098 516.66 432.493C517.844 434.647 424.995 495.567 426.099 497.586C427.032 499.28 497.635 451.82 498.617 453.613C499.707 455.602 425.597 496.26 426.458 497.834C427.318 499.408 497.233 452.77 498.115 454.381C499.255 456.453 428.014 497.819 429.025 499.664C430.115 501.645 493.905 457.801 494.945 459.692C495.799 461.243 432.518 501.389 433.443 503.061C434.368 504.733 489.689 467.103 490.456 468.489C491.137 469.732 438.994 506.963 439.897 508.613C440.435 509.584 484.733 479.847 485.379 481.03C485.895 481.971 446.76 514.857 447.47 516.16C447.908 516.958 480.459 494.912 480.968 495.846C481.477 496.78 448.273 516.717 448.711 517.508C449.191 518.389 479.864 497.36 480.38 498.301C480.782 499.024 454.943 524.626 455.38 525.417C455.717 526.034 477.476 511.347 477.755 511.851C478.035 512.356 458.959 530.011 459.282 530.599C459.504 530.998 476.386 519.655 476.622 520.084C476.88 520.551 463.42 536.564 463.714 537.106C463.914 537.476 475.561 529.582 475.704 529.838C475.884 530.162 467.428 543.117 467.636 543.494C467.737 543.682 475.109 538.658 475.238 538.884C475.367 539.11 469.931 547.569 470.067 547.825C470.125 547.938 475.052 544.608 475.131 544.752C475.26 544.993 473.99 555.65 474.134 555.914C474.155 555.944 475.339 555.138 475.353 555.176C475.396 555.251 475.353 558.663 475.403 558.746L475.575 558.641" stroke="#E54843" stroke-width="3" stroke-linecap="round" stroke-linejoin="round"/>
<path d="M194.834 420.72C201.92 433.608 635.47 134.697 643.237 148.819C648.235 157.91 207.714 401.325 215.029 414.635C221.842 427.032 638.281 144.375 643.889 154.581C649.038 163.951 209.744 401.22 216.929 414.288C224.115 427.356 637.786 144.029 643.99 155.312C649.705 165.706 228.605 400.474 235.231 412.533C240.251 421.662 639.12 151.712 645.675 163.642C651.333 173.939 240.574 401.175 247.085 413.03C253.776 425.195 641.767 159.342 647.683 170.112C653.427 180.559 247.279 403.065 253.102 413.655C258.137 422.814 642.641 161.865 649.067 173.547C653.807 182.171 257.821 404.052 263.988 415.275C270.156 426.498 647.468 171.001 652.309 179.806C657.451 189.161 264.089 407.78 268.851 416.45C274.832 427.326 649.038 173.291 654.245 182.751C659.459 192.234 270.844 410.228 275.492 418.679C281.092 428.87 651.52 175.897 657.601 186.969C663.668 198.004 277.564 411.938 283.43 422.619C289.935 434.451 657.888 182.54 663.252 192.302C669.298 203.299 285.266 417.58 291.319 428.592C297.372 439.603 667.261 189.447 671.872 197.831C678.219 209.377 285.74 417.896 291.957 429.202C297.737 439.716 666.967 187.715 672.776 198.283C677.538 206.944 292.086 425.744 297.895 436.312C304.156 447.7 678.986 193.816 683.691 202.372C688.395 210.929 296.482 433.653 302.033 443.746C307.813 454.261 690.389 194.388 696.112 204.783C701.34 214.296 298.333 439.649 304.887 451.572C310.832 462.396 705.012 195.594 710.512 205.604C717.519 218.348 299.2 444.597 306.214 457.349C312.74 469.22 716.902 195.669 722.116 205.152C728.957 217.595 300.878 454.276 307.189 465.747C312.432 475.283 734.881 192.423 740.647 202.907C746.922 214.326 301.294 462.787 307.232 473.581C313.895 485.7 752.214 184.906 759.981 199.043C767.253 212.27 299.028 471.969 306.042 484.728C313.056 497.488 784.773 177.629 791.7 190.223C797.445 200.67 295.966 481.467 303.604 495.364C310.273 507.498 820.35 163.898 827.823 177.486" stroke="#E54843" stroke-width="3" stroke-linecap="round" stroke-linejoin="round"/>
<path d="M652.638 75.095C652.638 75.095 652.911 74.9218 652.911 74.9293C652.983 75.0574 649.755 80.2545 649.82 80.375C649.842 80.4202 651.742 79.1322 651.771 79.1925C652.151 79.8854 636.144 100.124 636.417 100.621C636.617 100.99 648.206 93.0967 648.364 93.3754C648.73 94.0382 622.167 115.324 622.533 115.994C622.898 116.665 646.428 100.764 646.736 101.322C647.26 102.278 608.993 125.718 609.631 126.886C610.219 127.963 645.524 103.725 646.098 104.771" stroke="#E54843" stroke-width="3" stroke-linecap="round" stroke-linejoin="round"/>
<path d="M416.045 5.58128C416.045 5.58128 416.066 5.56622 416.066 5.57375C416.081 5.59635 416.052 6.53786 416.066 6.56046L416.117 6.53033C416.274 6.81655 415.765 17.6929 415.894 17.9264C415.909 17.949 416.977 17.2259 416.992 17.256C417.07 17.3991 415.579 22.4984 415.651 22.6189C415.679 22.6641 417.479 21.4439 417.508 21.4891C417.558 21.587 415.364 25.6242 415.435 25.7447C415.471 25.8125 417.859 24.1705 417.902 24.2458C417.974 24.3739 414.984 29.7895 415.062 29.9326C415.105 30.0079 418.426 27.7784 418.469 27.8612C418.569 28.0495 414.467 34.4593 414.546 34.6025C414.603 34.7079 419.107 31.6423 419.186 31.7855C419.394 32.1621 412.495 45.9759 412.71 46.3827C412.846 46.6237 421.151 41.0198 421.251 41.2006C421.409 41.4793 412.366 47.3317 412.488 47.5501C412.631 47.8062 421.345 41.8634 421.474 42.0969C421.675 42.4584 409.842 57.7109 410.057 58.1026C410.286 58.5244 423.424 49.4784 423.632 49.87C423.919 50.3973 404.972 72.2931 405.302 72.8881C405.668 73.5509 426.623 59.1722 426.946 59.7672C427.268 60.3622 403.932 74.9896 404.248 75.5695C404.621 76.2474 427.204 60.784 427.562 61.4318C427.971 62.1775 403.265 76.1796 403.688 76.9404C404.069 77.6333 427.491 61.5372 427.892 62.2679C428.344 63.0889 399.751 83.7946 400.189 84.593C400.555 85.2558 429.183 65.8155 429.678 66.7118C430.316 67.8717 390.127 98.678 390.844 99.9961C391.461 101.126 432.597 73.4455 433.106 74.3644C434.117 76.2022 374.164 115.761 374.974 117.245C375.892 118.909 435.272 78.7858 436.053 80.2093C436.878 81.7157 368.362 120.242 369.258 121.877C370.42 123.993 435.659 79.5239 436.519 81.0906" stroke="#E54843" stroke-width="3" stroke-linecap="round" stroke-linejoin="round"/>
<path d="M7.75235 243.897C7.75235 243.897 7.80972 243.859 7.81689 243.859C7.94598 244.093 19.7717 246.819 19.9151 247.083C19.9582 247.158 22.6116 245.351 22.6546 245.418C22.7909 245.667 30.8516 250.548 30.9807 250.774C31.0954 250.985 39.7227 245.147 39.859 245.388C39.9809 245.607 33.0317 251.354 33.168 251.595C33.2899 251.821 43.7459 244.876 43.875 245.102C43.9825 245.298 39.7227 254.118 39.8159 254.299C40.0956 254.803 57.8808 242.812 58.1031 243.211C58.2968 243.565 48.8376 258.17 49.0671 258.584C49.6337 259.616 94.1182 229.819 94.7134 230.904C95.2298 231.846 50.6663 258.622 51.2544 259.684C54.5748 265.725 246.253 135.005 248.907 139.833C252.17 145.769 55.586 258.803 58.1031 263.39C60.6203 267.977 254.845 135.909 258.215 142.055C261.256 147.584 64.2706 264.038 66.8308 268.693C70.1584 274.748 268.485 138.244 271.856 144.368C274.509 149.188 66.3001 264.806 69.3408 270.335C72.862 276.737 272.802 138.658 276.23 144.88C279.393 150.634 67.1105 265.989 69.5918 270.5C72.5536 275.886 273.878 139.826 276.682 144.925C279.909 150.793 69.0827 267.292 71.5927 271.856C74.4326 277.023 277.772 140.541 280.368 145.257C283.108 150.243 75.3433 271.736 77.9035 276.383C81.2311 282.431 290.537 140.654 293.341 145.746C296.145 150.838 81.5538 276.066 84.6447 281.685C88.4814 288.668 307.828 139.758 310.546 144.707C314.002 151.004 87.6209 280.684 91.3429 287.455C94.2258 292.705 331.773 131.541 335.94 139.133C339.855 146.258 89.2488 282.424 92.6983 288.698C95.6672 294.098 340.723 128.633 344.71 135.879C348.016 141.89 92.3325 284.902 96.1836 291.906C101.01 300.689 433.048 74.7862 438.348 84.4273C442.88 92.6749 96.9366 288.735 101.247 296.569C105.865 304.967 436.907 81.3165 441.733 90.099C446.057 97.9625 101.684 293.383 105.722 300.727C110.706 309.795 439.388 84.9169 444.946 95.025C450.16 104.508 107.5 298.941 111.588 306.383C115.676 313.825 444.257 91.8012 449.557 101.442C454.993 111.324 112.083 303.28 116.852 311.957C122.431 322.103 450.109 99.7476 454.283 107.34C458.694 115.362 117.433 310.232 122.438 319.346C126.87 327.405 455.768 105.562 460.572 114.307C466.331 124.784 118.157 311.437 123.7 321.515C128.771 330.734 458.328 108.756 462.387 116.137C468.217 126.75 118.53 312.16 124.195 322.464C128.168 329.695 457.517 106.609 463.176 116.913C467.156 124.159 122.281 320.611 126.368 328.045C131.159 336.768 462.157 111.098 467.651 121.094C473.051 130.923 121.757 329.04 127.48 339.457C133.152 349.776 471.903 120.325 476.142 128.031C480.767 136.444 120.337 342.168 125.034 350.717C129.646 359.115 477.791 122.495 483.693 133.228C488.484 141.942 118.114 348.676 122.453 356.57C127.171 365.156 481.886 125.681 487.222 135.382C491.56 143.283 117.447 347.923 122.331 356.811C127.501 366.226 482.352 126.366 487.358 135.465C491.926 143.773 111.989 359.658 116.335 367.559C122.037 377.923 487.666 128.136 493.547 138.824C499.514 149.678 111.997 358.099 117.562 368.222C122.309 376.853 488.921 128.701 494.831 139.449C501.063 150.785 113.718 359.831 118.688 368.869C124.26 379 490.728 130.358 496.05 140.044C501.514 149.987 121.018 365.631 125.658 374.074C130.305 382.533 500.145 134.621 505.251 143.893C509.762 152.103 120.595 363.981 126.698 375.091C131.317 383.497 502.274 135.962 506.972 144.503C511.669 153.045 122.08 366.12 127.451 375.897C133.188 386.336 502.024 133.544 508.299 144.955C513.304 154.062 127.609 375.091 132.156 383.369C137.233 392.603 514.452 137.868 520.088 148.134C525.725 158.4 127.932 377.034 133.038 386.321C138.567 396.384 518.683 138.387 524.484 148.955C530.286 159.522 128.477 378.202 133.102 386.623C138.897 397.168 519.321 138.817 524.936 149.023C529.727 157.737 128.828 380.883 133.454 389.296C140.159 401.491 523.638 140.202 528.787 149.572C534.962 160.81 126.103 383.015 132.851 395.284C139.191 406.816 531.656 140.579 536.963 150.235C542.657 160.592 117.727 400.534 123.844 411.667C129.667 422.264 549.793 136.775 556.641 149.226C564.473 163.477 98.837 424.404 104.201 434.165C111.193 446.879 639.493 93.9328 645.94 105.66C655.328 122.743 60.8857 450.691 69.3695 466.131C78.3267 482.431 636.962 104.478 644.169 117.584C651.161 130.305 79.3665 444.281 88.84 461.514C97.8187 477.851 635.742 111.362 643.38 125.251C650.379 137.981 112.556 437.314 119.147 449.297C126.756 463.141 633.899 115.173 642.964 131.661C649.576 143.69 129.086 432.199 136.179 445.109C143.271 458.019 634.158 122.156 642.806 137.898C649.899 150.8 140.847 429.134 149.138 444.221C154.997 454.878 635.033 130.35 642.964 144.774C650.896 159.198 159.049 435.34 164.757 445.735C164.9 445.991 176.676 438.037 176.87 438.391C176.977 438.587 170.595 446.864 170.717 447.075C170.838 447.286 177.723 442.624 177.809 442.774C177.902 442.94 178.498 449.357 178.591 449.531C178.627 449.598 181.122 447.926 181.151 447.979C181.23 448.122 185.031 452.061 185.102 452.189C185.102 452.189 185.267 452.084 185.275 452.084" stroke="#E54843" stroke-width="3" stroke-linecap="round" stroke-linejoin="round"/>
<path d="M175.141 105.171C175.141 105.171 175.729 104.794 175.737 104.809C175.844 105.005 173.628 113.795 173.736 113.998C173.872 114.247 181.818 108.869 181.911 109.042C182.155 109.487 171.197 124.468 171.455 124.935C171.713 125.402 189.326 113.509 189.57 113.953C189.965 114.676 167.116 138.538 167.511 139.246C167.999 140.135 199.13 118.985 199.574 119.798C200.091 120.74 162.226 151.666 162.742 152.608C163.416 153.836 208.238 123.564 208.833 124.656C209.464 125.809 159.931 156.08 160.705 157.496C161.336 158.649 211.558 125.161 212.175 126.283C212.87 127.549 159.672 156.833 160.404 158.174C161.207 159.628 211.816 125.018 212.634 126.502C213.337 127.782 156.273 163.605 157.148 165.194C158.102 166.926 216.406 126.916 217.367 128.678C218.328 130.441 149.783 175.362 150.723 177.072C151.97 179.339 224.173 130.238 225.119 131.962C226.367 134.23 138.337 190.389 139.822 193.093C141.435 196.023 233.632 133.544 234.729 135.54C235.998 137.845 136.889 191.91 138.481 194.795C139.628 196.874 234.499 133.725 235.676 135.856C237.468 139.11 131.395 198.011 133.117 201.137C134.838 204.263 237.347 133.996 238.974 136.949C240.767 140.21 123.177 206.929 124.726 209.739C126.519 213 241.018 134.87 242.811 138.131C244.303 140.85 119.276 209.822 121.054 213.06C123.005 216.601 242.417 135.555 244.03 138.493C246.175 142.387 110.663 215.652 112.864 219.659C114.815 223.214 243.686 135.073 245.852 139.012" stroke="#E54843" stroke-width="3" stroke-linecap="round" stroke-linejoin="round"/>
<path d="M176.009 105.374C176.009 105.374 176.611 104.982 176.619 105.005C176.654 105.065 178.49 107.069 178.519 107.129C178.526 107.152 179.129 106.737 179.136 106.752C179.265 106.993 187.863 113.11 187.971 113.313C187.978 113.328 188.595 112.914 188.602 112.929C188.645 113.012 191.277 115.279 191.327 115.362C191.334 115.384 191.951 114.962 191.966 114.977C192.052 115.136 197.767 118.985 197.86 119.158C197.868 119.173 198.499 118.751 198.506 118.766C198.513 118.781 198.025 119.241 198.033 119.256C198.04 119.271 198.671 118.849 198.678 118.864C198.771 119.03 205.778 123.278 205.878 123.466C205.892 123.489 206.531 123.052 206.538 123.067C206.588 123.157 209.593 125.274 209.643 125.349C209.65 125.364 210.31 124.927 210.317 124.942C210.353 125.01 213.007 126.901 213.042 126.976C213.05 126.991 213.717 126.547 213.724 126.562C213.731 126.577 213.544 127.195 213.552 127.21C213.559 127.225 214.219 126.78 214.226 126.795C214.269 126.871 216.578 128.535 216.621 128.611C216.628 128.626 217.295 128.181 217.309 128.196C217.381 128.324 222.652 131.081 222.745 131.247C222.753 131.262 223.441 130.802 223.448 130.825C223.455 130.84 223.377 131.495 223.384 131.51C223.391 131.526 224.072 131.066 224.086 131.089C224.18 131.254 231.631 134.553 231.731 134.734C231.738 134.749 232.456 134.275 232.463 134.29C232.577 134.501 240.516 137.498 240.638 137.724C240.645 137.74 241.384 137.25 241.391 137.265C241.477 137.423 247.071 139.464 247.157 139.63C247.171 139.653 247.932 139.133 247.939 139.156C248.01 139.284 252.421 140.911 252.471 141.001C252.478 141.016 253.26 140.496 253.267 140.519C253.274 140.541 252.815 141.076 252.823 141.091C252.837 141.114 253.611 140.587 253.619 140.609C253.755 140.858 264.383 143.245 264.541 143.532C264.555 143.554 265.394 142.982 265.408 143.004C265.573 143.306 276.675 144.985 276.804 145.219C276.818 145.241 277.736 144.624 277.75 144.646C277.923 144.963 289.777 145.746 289.92 146.017C289.935 146.047 290.967 145.339 290.989 145.37C291.032 145.445 294.854 145.949 294.905 146.032C294.919 146.062 296.009 145.317 296.031 145.347C296.267 145.769 311.657 144.511 311.844 144.842C311.865 144.88 313.235 143.946 313.256 143.984C313.443 144.323 328.252 141.325 328.431 141.664C328.46 141.716 330.418 140.376 330.454 140.436C330.669 140.828 350.125 133.205 350.397 133.695C350.634 134.124 369.05 121.636 369.359 122.201" stroke="black" stroke-width="3" stroke-linecap="round" stroke-linejoin="round"/>
<path d="M415.586 1.52148C415.586 1.52148 416.231 1.11475 416.239 1.12981C416.253 1.15994 415.607 2.16924 415.622 2.19184C415.629 2.2069 416.253 1.79264 416.26 1.8077C416.389 2.0412 415.564 12.9929 415.686 13.2188C415.708 13.2565 416.841 12.4807 416.855 12.5108C416.884 12.5635 415.607 14.8608 415.643 14.9286C415.651 14.9437 416.274 14.5219 416.289 14.5369C416.425 14.7855 414.826 26.5205 414.991 26.8218C415.005 26.8444 415.643 26.4 415.658 26.4151C415.737 26.5657 414.274 33.2166 414.338 33.3446C414.345 33.3597 415.012 32.9077 415.019 32.9303C415.12 33.1111 413.169 40.839 413.277 41.0273C413.291 41.0499 413.972 40.5829 413.987 40.598C414.015 40.6507 413.004 42.481 413.033 42.5338C413.04 42.5564 413.736 42.0818 413.75 42.1044C413.772 42.1421 412.811 43.7012 412.832 43.7389C412.839 43.754 413.535 43.287 413.549 43.302C413.664 43.5129 411.219 51.2936 411.305 51.4518C411.312 51.4668 412.043 50.9772 412.058 50.9998C412.115 51.1053 410.179 55.8279 410.243 55.9484C410.25 55.9635 411.003 55.4664 411.018 55.4814C411.133 55.6923 407.798 64.0153 407.92 64.2337C407.934 64.2563 408.723 63.714 408.737 63.7366C408.881 64.0002 404.198 74.1083 404.348 74.3719C404.363 74.3945 405.23 73.807 405.245 73.8296C405.524 74.3418 395.75 91.1836 395.979 91.6054C396.001 91.643 397.112 90.8823 397.127 90.9124C397.392 91.3869 384.813 106.21 385.086 106.7C385.114 106.745 386.807 105.585 386.836 105.638C386.879 105.713 384.476 107.302 384.505 107.355C384.534 107.4 386.269 106.21 386.305 106.263C386.534 106.677 368.764 121.176 369.036 121.674C369.108 121.802 373.411 118.849 373.482 118.977" stroke="black" stroke-width="3" stroke-linecap="round" stroke-linejoin="round"/>
<path d="M416.425 14.906C416.425 14.906 417.035 14.5219 417.042 14.5369C417.149 14.7253 417.501 24.2383 417.623 24.4567C417.63 24.4718 418.196 24.0876 418.204 24.1027C418.304 24.291 419.129 33.4726 419.243 33.6835C419.243 33.6986 419.81 33.3145 419.817 33.3371C419.918 33.5254 421.452 43.5054 421.574 43.7238C421.574 43.7389 422.126 43.3698 422.133 43.3849C422.162 43.4451 422.241 46.2847 422.284 46.3601C422.291 46.3751 422.836 46.0061 422.843 46.0211C422.965 46.2395 425.332 56.31 425.44 56.5058C425.447 56.5209 425.985 56.1518 425.992 56.1669C426.056 56.2798 426.881 60.5882 426.946 60.6936C426.953 60.7087 427.483 60.3472 427.498 60.3622C427.591 60.5355 430.338 69.1221 430.431 69.2953C430.431 69.3104 430.969 68.9488 430.976 68.9639C431.105 69.1974 434.203 77.3697 434.318 77.5731C434.325 77.5881 434.848 77.2266 434.863 77.2417C434.87 77.2567 434.648 78.2133 434.655 78.2359C434.655 78.251 435.186 77.8894 435.193 77.912C435.25 78.0099 436.362 81.5199 436.412 81.5952C436.419 81.6103 436.95 81.2487 436.957 81.2638C437.043 81.422 439.445 86.9656 439.524 87.1012C439.531 87.1162 440.062 86.7547 440.069 86.7698C440.098 86.815 440.865 89.3307 440.908 89.3985C440.916 89.4135 441.446 89.052 441.453 89.0671C441.496 89.1424 442.63 92.1176 442.665 92.1929C442.673 92.2079 443.203 91.8464 443.21 91.8615C443.311 92.0422 446.696 98.083 446.796 98.2638C446.796 98.2788 447.334 97.9173 447.341 97.9323C447.42 98.0755 450.281 102.904 450.346 103.024C450.353 103.039 450.884 102.678 450.891 102.693C450.948 102.791 453.638 107.061 453.709 107.189C453.709 107.204 454.254 106.843 454.262 106.858C454.305 106.941 456.069 109.901 456.126 109.999C456.133 110.014 456.678 109.637 456.686 109.66C456.714 109.713 457.919 111.972 457.948 112.025C457.955 112.04 458.507 111.671 458.514 111.678C458.629 111.882 463.448 117.561 463.556 117.757C463.556 117.772 464.122 117.395 464.13 117.41C464.158 117.463 465.241 119.331 465.27 119.384C465.27 119.399 465.836 119.015 465.844 119.037C465.901 119.143 468.891 122.585 468.942 122.683C468.949 122.698 469.515 122.314 469.522 122.329C469.659 122.57 476.938 128.904 477.053 129.123C477.06 129.138 477.648 128.739 477.655 128.754C477.669 128.784 478.25 129.966 478.272 129.996C478.272 130.012 478.867 129.612 478.874 129.627C479.017 129.884 486.662 135.292 486.777 135.502C486.784 135.518 487.401 135.103 487.408 135.118C487.523 135.322 494.995 139.72 495.132 139.961C495.139 139.977 495.791 139.54 495.799 139.555C495.842 139.63 498.273 141.362 498.316 141.438C498.323 141.453 498.997 141.001 499.004 141.016C499.119 141.227 506.764 144.631 506.857 144.805C506.871 144.827 507.574 144.338 507.589 144.36C507.689 144.541 516.481 147.418 516.617 147.667C516.625 147.682 517.406 147.17 517.413 147.185C517.442 147.23 519.206 148.217 519.235 148.262C519.242 148.284 520.038 147.742 520.053 147.765C520.153 147.953 527.159 149.497 527.246 149.655C527.26 149.685 528.12 149.098 528.128 149.12C528.206 149.271 535.364 150.25 535.471 150.446C535.486 150.469 536.461 149.813 536.475 149.836C536.482 149.851 536.152 150.461 536.16 150.476C536.174 150.499 537.156 149.844 537.164 149.866C537.314 150.137 551.456 149.821 551.614 150.107C551.636 150.145 552.955 149.249 552.977 149.279C553.242 149.768 577.826 143.637 578.113 144.164C578.17 144.27 581.512 141.988 581.562 142.078C581.655 142.244 589.401 139.178 589.522 139.404C589.788 139.879 609.366 126.743 609.624 127.217" stroke="black" stroke-width="3" stroke-linecap="round" stroke-linejoin="round"/>
<path d="M653.886 71.8637C653.886 71.8637 654.137 71.7056 654.137 71.7131C654.302 72.0069 647.618 82.951 647.783 83.2523C647.805 83.2824 648.895 82.5292 648.916 82.5669C649.124 82.9435 636.911 98.565 637.17 99.0396C637.191 99.0772 638.625 98.1056 638.647 98.1432C639.063 98.904 617.125 119.248 617.534 119.994C617.584 120.084 620.632 117.998 620.682 118.088C620.833 118.359 609.258 126.11 609.459 126.479C609.545 126.63 614.551 123.187 614.637 123.338" stroke="black" stroke-width="3" stroke-linecap="round" stroke-linejoin="round"/>
<path d="M651.799 77.8593C651.799 77.8593 652.581 77.3546 652.595 77.3772C652.689 77.5505 650.179 83.7193 650.272 83.885C650.279 83.9 651.025 83.4029 651.039 83.418C651.147 83.6063 647.834 93.4959 647.984 93.7671C647.991 93.7897 648.716 93.3001 648.73 93.3152C648.83 93.5035 646.363 101.186 646.449 101.344C646.457 101.359 647.167 100.885 647.174 100.9C647.296 101.126 644.377 112.846 644.499 113.064C644.506 113.087 645.18 112.62 645.194 112.643C645.331 112.891 642.957 125.417 643.093 125.666C643.1 125.681 643.746 125.244 643.753 125.266C643.774 125.304 642.971 126.938 642.993 126.976C643.007 126.999 643.638 126.562 643.653 126.577C643.724 126.705 642.62 132.105 642.692 132.249C642.699 132.264 643.33 131.842 643.337 131.857C643.402 131.977 642.491 137.604 642.57 137.739C642.577 137.755 643.186 137.34 643.201 137.355C643.222 137.393 642.555 138.899 642.57 138.93C642.577 138.945 643.186 138.538 643.194 138.553C643.258 138.666 642.627 144.277 642.706 144.42C642.713 144.436 643.308 144.036 643.315 144.051C643.416 144.225 643.28 152.322 643.359 152.465C643.366 152.48 643.939 152.096 643.947 152.103C644.018 152.239 644.061 157.511 644.119 157.617C644.126 157.632 644.678 157.255 644.692 157.27C644.807 157.474 646.464 167.499 646.586 167.725C646.593 167.74 647.131 167.371 647.145 167.386C647.224 167.529 649.232 174.617 649.34 174.812C649.34 174.828 649.877 174.466 649.885 174.481C649.971 174.639 652.502 180.642 652.588 180.8C652.595 180.816 653.126 180.454 653.133 180.469C653.212 180.612 656.475 186.065 656.554 186.216C656.554 186.231 657.106 185.87 657.113 185.877C657.185 186.005 661.567 191.18 661.66 191.36C661.667 191.376 662.234 190.991 662.241 191.006C662.334 191.172 668.236 196.023 668.33 196.196C668.337 196.211 668.946 195.804 668.953 195.819C669.047 195.985 676.527 200.113 676.634 200.309C676.641 200.331 677.315 199.872 677.323 199.894C677.43 200.09 686.029 203.126 686.129 203.306C686.136 203.329 686.896 202.817 686.904 202.832C687.047 203.088 696.255 204.918 696.363 205.114C696.377 205.137 697.231 204.557 697.245 204.579C697.259 204.609 698.399 205.302 698.414 205.34C698.428 205.363 699.303 204.775 699.317 204.79C699.446 205.024 711.38 205.619 711.53 205.897C711.545 205.928 712.57 205.227 712.585 205.257C712.836 205.709 730.061 204.316 730.255 204.67C730.277 204.7 731.546 203.834 731.567 203.879C731.682 204.09 740.188 203.088 740.288 203.269C740.309 203.314 741.729 202.35 741.751 202.38C741.995 202.824 763.789 197.733 764.126 198.35C764.147 198.388 765.94 197.175 765.969 197.228C766.414 198.034 800.17 186.728 800.65 187.61C800.693 187.685 803.189 185.975 803.225 186.05C803.411 186.389 816.449 181.659 816.635 181.998C816.678 182.073 819.518 180.145 819.561 180.221C820.271 181.509 864.175 161.548 864.777 162.641C864.842 162.754 868.901 159.982 868.965 160.102C869.396 160.893 899.25 146.394 899.623 147.072C899.695 147.2 904.263 144.089 904.328 144.217C904.407 144.353 910.244 142.093 910.33 142.244C910.388 142.357 914.519 139.57 914.569 139.675C914.712 139.939 923.777 136.783 923.884 136.986C923.899 137.009 924.673 136.482 924.68 136.504" stroke="black" stroke-width="3" stroke-linecap="round" stroke-linejoin="round"/>
<path d="M796.132 199.427C796.297 199.729 806.99 192.423 807.162 192.739C807.391 193.161 825.686 183.294 825.98 183.836C826.073 184.002 832.362 179.716 832.47 179.904C833.237 181.298 880.225 157.225 880.784 158.249C880.849 158.37 885.101 155.447 885.18 155.583C885.445 156.065 906.243 146.334 906.544 146.868C906.601 146.966 911.083 143.953 911.148 144.074C911.198 144.157 915.551 142.65 915.601 142.741C915.738 142.997 924.817 136.873 924.931 137.084" stroke="black" stroke-width="3" stroke-linecap="round" stroke-linejoin="round"/>
<path d="M754.832 223.703C755.484 224.886 795.171 197.59 795.852 198.832C797.244 201.371 707.192 262.057 708.274 264.03C708.303 264.075 709.895 262.998 709.917 263.036C710.139 263.443 699.733 275.547 699.92 275.886C699.941 275.916 701.06 275.148 701.081 275.185C701.125 275.268 698.277 278.567 698.342 278.688C698.356 278.718 699.403 278.002 699.418 278.032C699.561 278.288 694.563 286.574 694.67 286.762C694.685 286.785 695.531 286.212 695.545 286.235C695.689 286.491 691.508 299.747 691.665 300.026C691.673 300.041 692.325 299.604 692.332 299.619C692.426 299.793 691.873 309.17 691.995 309.381C692.002 309.396 692.576 309.012 692.583 309.027C692.734 309.298 694.57 319.143 694.699 319.376C694.699 319.391 695.237 319.03 695.244 319.045C695.251 319.06 694.749 319.512 694.763 319.527C694.778 319.542 695.301 319.18 695.308 319.195C695.33 319.233 695.244 320.709 695.265 320.747C695.265 320.762 695.803 320.4 695.81 320.415C695.875 320.536 697.747 325.801 697.818 325.921C697.826 325.936 698.349 325.575 698.356 325.59C698.471 325.801 702.1 332.572 702.2 332.753C702.207 332.768 702.745 332.407 702.752 332.422C702.839 332.572 706.474 338.063 706.553 338.214C706.553 338.229 707.113 337.86 707.12 337.867C707.199 338.018 710.741 342.673 710.813 342.808C710.82 342.823 711.394 342.439 711.401 342.454C711.494 342.62 716.464 348.058 716.572 348.254C716.572 348.269 717.174 347.87 717.181 347.885C717.275 348.058 722.711 353.263 722.818 353.466C722.825 353.481 723.442 353.067 723.456 353.082C723.571 353.293 729.696 358.513 729.789 358.671C729.803 358.694 730.441 358.257 730.449 358.272C730.456 358.287 729.81 358.679 729.818 358.694C729.825 358.709 730.47 358.279 730.477 358.294C730.499 358.34 731.675 359.967 731.704 360.019C731.711 360.034 732.356 359.597 732.371 359.612C732.457 359.771 738.846 364.636 738.932 364.795C738.94 364.81 739.607 364.365 739.614 364.38C739.635 364.425 741.07 366.098 741.098 366.15C741.105 366.165 741.772 365.713 741.787 365.736C741.901 365.939 749.769 371.152 749.869 371.34C749.883 371.363 750.557 370.903 750.565 370.918C750.6 370.986 753.032 373.057 753.075 373.133C753.082 373.148 753.763 372.688 753.777 372.703C753.82 372.779 755.864 374.601 755.9 374.669C755.914 374.692 756.596 374.225 756.603 374.24C756.725 374.458 764.327 378.925 764.42 379.09C764.427 379.106 765.108 378.646 765.123 378.661C765.288 378.962 775.277 384.145 775.428 384.408C775.435 384.423 776.124 383.956 776.131 383.979C776.174 384.054 778.662 385.854 778.698 385.915C778.705 385.93 779.394 385.463 779.401 385.485C779.423 385.523 780.67 386.781 780.692 386.818C780.699 386.833 781.387 386.374 781.395 386.389C781.524 386.623 791.6 391.39 791.743 391.646C791.75 391.662 792.439 391.195 792.446 391.217C792.503 391.323 796.871 393.695 796.935 393.816C796.95 393.838 797.638 393.364 797.645 393.386C797.703 393.492 801.69 395.684 801.74 395.774C801.747 395.789 802.436 395.322 802.45 395.345C802.579 395.586 811.35 399.382 811.472 399.6C811.479 399.615 812.175 399.148 812.189 399.164C812.268 399.307 817.991 401.958 818.062 402.094C818.077 402.116 818.772 401.642 818.779 401.657C818.88 401.845 825.062 404.541 825.148 404.7C825.162 404.722 825.858 404.24 825.872 404.263C825.879 404.278 825.8 404.926 825.807 404.941C825.815 404.956 826.517 404.481 826.532 404.504C826.604 404.632 830.641 406.575 830.706 406.696C830.713 406.711 831.423 406.236 831.437 406.251C831.487 406.349 835.546 408.307 835.604 408.413C835.611 408.428 836.328 407.946 836.335 407.969C836.378 408.044 839.311 409.626 839.362 409.708C839.369 409.724 840.086 409.241 840.093 409.264C840.201 409.452 848.333 412.563 848.455 412.774C848.469 412.797 849.186 412.307 849.194 412.322C849.316 412.541 856.702 415.32 856.803 415.501C856.817 415.523 857.541 415.026 857.548 415.049" stroke="black" stroke-width="3" stroke-linecap="round" stroke-linejoin="round"/>
<path d="M686.746 385.267C686.746 385.267 687.649 384.694 687.664 384.709C687.829 385.018 698.665 387.248 698.794 387.466C698.801 387.489 699.69 386.886 699.705 386.909C699.798 387.074 706.216 388.679 706.31 388.837C706.324 388.867 707.206 388.265 707.22 388.287C707.421 388.656 720.839 391.225 721.011 391.534C721.025 391.556 721.907 390.961 721.922 390.984C722.087 391.285 733.03 393.514 733.167 393.755C733.181 393.778 734.063 393.183 734.07 393.206C734.156 393.364 739.686 394.84 739.757 394.961C739.772 394.983 740.647 394.381 740.661 394.411C740.768 394.599 749.295 396.505 749.417 396.731C749.432 396.753 750.306 396.158 750.321 396.181C750.436 396.384 760.44 398.493 760.597 398.772C760.612 398.794 761.487 398.207 761.501 398.222C761.659 398.516 772.789 400.73 772.954 401.031C772.968 401.062 773.836 400.459 773.85 400.489C773.979 400.73 782.664 402.591 782.8 402.839C782.808 402.862 783.682 402.274 783.697 402.297C783.783 402.455 791.958 404.361 792.051 404.534C792.066 404.557 792.934 403.969 792.948 403.992C793.084 404.24 804.602 406.605 804.745 406.854C804.759 406.876 805.62 406.289 805.634 406.311C805.684 406.402 808.826 407.524 808.869 407.607C808.876 407.63 809.744 407.042 809.758 407.065C809.923 407.374 822.702 409.867 822.867 410.168C822.882 410.191 823.742 409.611 823.757 409.633C823.893 409.882 834.141 411.983 834.299 412.262C834.313 412.284 835.173 411.704 835.188 411.727C835.231 411.81 838.623 412.992 838.666 413.06C838.673 413.083 839.541 412.503 839.548 412.525C839.613 412.646 843.865 413.919 843.923 414.024C843.937 414.047 844.79 413.467 844.805 413.49C844.941 413.738 854.063 415.674 854.192 415.907C854.207 415.937 855.067 415.358 855.074 415.373C855.16 415.531 860.869 416.984 860.955 417.143C860.969 417.173 862.031 416.45 862.052 416.48C862.067 416.502 862.282 417.369 862.296 417.391C862.31 417.414 863.192 416.811 863.207 416.834" stroke="black" stroke-width="3" stroke-linecap="round" stroke-linejoin="round"/>
<path d="M685.254 384.973C685.254 384.973 686.129 384.416 686.144 384.431C686.23 384.589 684.508 392.129 684.594 392.287C684.602 392.302 685.304 391.835 685.312 391.85C685.383 391.985 684.035 397.514 684.114 397.657C684.121 397.672 684.817 397.213 684.824 397.228C684.953 397.461 683.103 407.148 683.232 407.396C683.246 407.419 683.928 406.952 683.935 406.967C683.956 407.012 683.096 408.586 683.117 408.624C683.124 408.639 683.813 408.179 683.82 408.194C683.992 408.503 681.92 420.148 682.056 420.396C682.063 420.412 682.744 419.952 682.751 419.975C682.83 420.125 681.425 426.264 681.511 426.422C681.525 426.445 682.192 425.985 682.206 426C682.285 426.136 680.865 432.644 680.937 432.779C680.944 432.794 681.618 432.35 681.625 432.357C681.719 432.531 680.148 440.123 680.256 440.326C680.263 440.341 680.93 439.89 680.944 439.912C680.98 439.98 680.055 442.24 680.084 442.285C680.091 442.3 680.758 441.848 680.765 441.871C680.88 442.074 679.209 450.389 679.331 450.615C679.345 450.638 679.998 450.186 680.012 450.201C680.155 450.457 678.212 461.552 678.327 461.763C678.334 461.785 678.994 461.341 679.001 461.356C679.022 461.394 678.176 463.126 678.205 463.171C678.212 463.186 678.864 462.749 678.879 462.765" stroke="black" stroke-width="3" stroke-linecap="round" stroke-linejoin="round"/>
<path d="M538.971 418.295C539.021 418.393 543.073 415.674 543.123 415.772C543.295 416.088 555.738 412.066 555.895 412.36C555.924 412.412 557.688 411.207 557.717 411.26C557.817 411.448 565.885 410.326 565.964 410.477C565.979 410.507 567.334 409.595 567.355 409.633C567.485 409.874 578.421 409.422 578.543 409.648C578.557 409.678 579.611 408.97 579.626 408.993C579.719 409.159 586.08 409.784 586.166 409.927C586.181 409.949 587.127 409.309 587.141 409.332C587.228 409.483 592.95 410.529 593.022 410.658C593.036 410.68 593.904 410.093 593.919 410.115C593.983 410.228 597.877 411.381 597.92 411.456C597.935 411.479 598.745 410.921 598.759 410.944C598.802 411.019 601.814 412.187 601.857 412.269C601.872 412.292 602.653 411.757 602.668 411.78C602.725 411.878 607.064 413.475 607.136 413.595C607.143 413.61 607.896 413.113 607.903 413.128C607.996 413.294 615.741 416.216 615.849 416.412C615.863 416.435 616.559 415.953 616.573 415.975C616.666 416.148 624.032 419.628 624.153 419.832C624.161 419.847 624.82 419.41 624.828 419.425C624.978 419.696 633.871 424.645 634.021 424.916C634.029 424.931 634.652 424.509 634.66 424.524C634.731 424.652 638.69 427.635 638.769 427.778C638.783 427.801 639.386 427.379 639.393 427.401C639.45 427.507 643.904 431.122 643.975 431.25C643.982 431.265 644.578 430.866 644.585 430.881C644.7 431.085 650.645 436.124 650.767 436.334C650.774 436.35 651.348 435.958 651.355 435.98C651.398 436.056 653.858 438.843 653.901 438.925C653.908 438.941 654.482 438.556 654.489 438.571C654.546 438.669 657.723 442.24 657.78 442.338C657.788 442.353 658.354 441.968 658.361 441.984C658.483 442.209 665.267 449.553 665.404 449.794C665.411 449.809 665.956 449.44 665.97 449.455C666.099 449.689 671.736 456.814 671.829 456.987C671.829 457.003 672.381 456.633 672.389 456.649C672.496 456.844 676.684 462.998 676.778 463.164C676.778 463.179 677.323 462.81 677.33 462.832C677.358 462.893 678.248 465.1 678.276 465.16C678.276 465.175 678.664 464.911 678.671 464.919" stroke="black" stroke-width="3" stroke-linecap="round" stroke-linejoin="round"/>
<path d="M521.437 428.162C521.666 428.584 538.44 417.241 538.691 417.7C539.121 418.491 513.885 433.593 514.251 434.263C514.301 434.353 517.141 432.388 517.191 432.478C517.356 432.779 506.577 441.901 506.735 442.187C506.757 442.232 508.428 441.102 508.456 441.147C508.585 441.373 500.317 450.111 500.467 450.389C500.482 450.419 501.658 449.629 501.672 449.659C501.894 450.058 492.199 463.533 492.414 463.917C492.428 463.94 493.274 463.367 493.289 463.39C493.511 463.796 485.78 478.288 485.974 478.65C485.981 478.665 486.727 478.168 486.734 478.19C486.77 478.251 485.085 480.947 485.12 481.007C485.128 481.03 485.859 480.525 485.873 480.548C485.888 480.578 484.927 481.474 484.941 481.504C484.948 481.52 485.687 481.022 485.701 481.045C485.737 481.105 484.08 483.832 484.124 483.915C484.131 483.93 484.862 483.44 484.877 483.463C484.92 483.538 483.213 486.536 483.256 486.626C483.27 486.649 483.994 486.159 484.002 486.174C484.167 486.476 480.151 497.194 480.294 497.45C480.301 497.465 481.018 496.983 481.025 497.005C481.162 497.262 477.476 510.33 477.648 510.639C477.662 510.661 478.35 510.187 478.365 510.202C478.379 510.232 477.476 511.603 477.49 511.633C477.504 511.655 478.186 511.181 478.2 511.204C478.358 511.497 475.862 522.78 475.998 523.036C476.005 523.051 476.665 522.607 476.672 522.63C476.816 522.886 475.066 532.557 475.202 532.813C475.209 532.828 475.848 532.399 475.855 532.414C475.977 532.64 474.679 543.878 474.822 544.134C474.829 544.149 475.446 543.735 475.453 543.75C475.468 543.772 474.801 544.593 474.815 544.623C474.822 544.638 475.439 544.217 475.446 544.239C475.554 544.435 474.829 552.351 474.93 552.54C474.937 552.555 475.539 552.148 475.546 552.163C475.568 552.208 474.973 554.249 475.001 554.295C475.009 554.31 475.611 553.91 475.618 553.918C475.647 553.978 475.102 556.63 475.131 556.69C475.138 556.705 475.733 556.306 475.74 556.321" stroke="black" stroke-width="3" stroke-linecap="round" stroke-linejoin="round"/>
<path d="M315.645 489.714C315.709 489.835 320.249 486.747 320.327 486.875C320.708 487.56 351.502 478.251 351.932 479.042C351.946 479.072 353.259 478.19 353.28 478.228C353.323 478.303 356.809 478.492 356.852 478.575C356.866 478.605 358.071 477.799 358.085 477.829C358.121 477.897 360.445 478.303 360.48 478.371C360.502 478.409 361.614 477.633 361.635 477.671C361.649 477.693 360.832 478.334 360.846 478.356C360.861 478.379 361.979 477.633 361.994 477.663C362.08 477.821 368.319 478.22 368.398 478.364C368.412 478.386 369.409 477.716 369.423 477.738C369.624 478.1 384.863 479.991 385.05 480.337C385.057 480.36 385.867 479.81 385.882 479.832C386.04 480.119 396.158 483.026 396.288 483.267C396.302 483.29 397.019 482.793 397.033 482.815C397.198 483.116 407.762 487.5 407.877 487.711C407.884 487.726 408.551 487.282 408.565 487.297C408.666 487.477 415.443 491.349 415.529 491.507C415.543 491.53 416.167 491.1 416.181 491.115C416.296 491.319 423.403 496.094 423.503 496.275C423.51 496.29 424.113 495.883 424.12 495.898C424.249 496.124 432.489 502.632 432.611 502.858C432.618 502.873 433.192 502.481 433.199 502.496C433.285 502.655 438.198 507.49 438.284 507.641C438.291 507.656 438.85 507.279 438.865 507.287C438.886 507.332 439.718 508.921 439.739 508.959C439.747 508.974 440.306 508.597 440.313 508.613C440.392 508.756 445.534 514.555 445.641 514.759C445.649 514.774 446.201 514.397 446.208 514.412C446.258 514.503 448.869 518.186 448.926 518.299C448.933 518.314 449.478 517.945 449.485 517.96C449.564 518.103 452.992 522.991 453.085 523.157C453.085 523.172 453.631 522.803 453.645 522.818C453.695 522.901 455.144 525.695 455.18 525.771C455.187 525.786 455.725 525.424 455.732 525.432C455.782 525.53 457.568 528.881 457.618 528.964C457.625 528.979 458.163 528.618 458.17 528.633C458.278 528.836 462.071 535.261 462.15 535.404C462.157 535.419 462.688 535.058 462.695 535.073C462.753 535.178 464.732 539.389 464.804 539.517C464.804 539.532 465.342 539.17 465.349 539.185C465.449 539.366 469.279 547.147 469.401 547.373C469.401 547.388 469.938 547.026 469.946 547.041C470.046 547.222 472.986 554.362 473.094 554.551C473.101 554.566 473.632 554.204 473.639 554.219C473.739 554.4 475.855 560.727 475.934 560.863C475.934 560.863 476.092 560.757 476.099 560.765" stroke="black" stroke-width="3" stroke-linecap="round" stroke-linejoin="round"/>
<path d="M194.97 421.044C195.028 421.15 198.492 418.762 198.549 418.875C198.721 419.184 214.9 414.514 215.151 414.966C215.172 415.011 216.693 413.979 216.714 414.017C216.714 414.032 217.037 414.604 217.044 414.619C217.066 414.665 218.529 413.663 218.55 413.708C218.751 414.077 235.095 412.465 235.331 412.887C235.346 412.91 236.414 412.187 236.429 412.224C236.558 412.465 247.021 413.121 247.171 413.399C247.186 413.429 248.097 412.804 248.111 412.834C248.175 412.955 253.124 413.911 253.188 414.032C253.203 414.055 254.113 413.437 254.128 413.467C254.235 413.663 263.938 415.395 264.082 415.651C264.096 415.674 264.906 415.132 264.914 415.147C264.964 415.237 268.894 416.744 268.944 416.826C268.958 416.849 269.711 416.337 269.719 416.359C269.797 416.495 275.499 418.943 275.563 419.063C275.57 419.078 276.259 418.611 276.266 418.634C276.381 418.845 283.359 422.814 283.473 423.018C283.488 423.04 284.097 422.619 284.104 422.634C284.234 422.875 291.168 428.787 291.297 429.028C291.305 429.043 291.864 428.667 291.871 428.682C291.885 428.704 291.907 429.623 291.921 429.646C291.928 429.661 292.488 429.284 292.495 429.3C292.588 429.473 297.673 436.583 297.788 436.801C297.795 436.817 298.333 436.455 298.34 436.47C298.426 436.628 301.782 444.085 301.882 444.266C301.89 444.281 302.42 443.919 302.428 443.934C302.521 444.1 304.543 451.926 304.665 452.137C304.672 452.152 305.217 451.783 305.224 451.798C305.31 451.956 305.855 457.786 305.942 457.944C305.949 457.959 306.515 457.583 306.522 457.59C306.644 457.809 306.738 466.184 306.845 466.38C306.852 466.395 307.448 465.996 307.455 466.011C307.555 466.192 306.73 474.078 306.824 474.251C306.831 474.266 307.462 473.837 307.469 473.859C307.62 474.138 305.396 485.18 305.547 485.451C305.554 485.474 306.257 484.999 306.264 485.014C306.379 485.218 302.851 495.913 303.001 496.185C303.102 496.365 310.782 491.198 310.89 491.402" stroke="black" stroke-width="3" stroke-linecap="round" stroke-linejoin="round"/>
<path d="M182.298 427.951C182.506 428.328 194.511 420.171 194.669 420.449C194.927 420.916 177.142 434.097 177.372 434.512C177.386 434.534 178.318 433.902 178.333 433.932C178.498 434.233 178.899 445.418 179.021 445.629C179.028 445.644 179.559 445.283 179.566 445.298C179.631 445.411 182.8 450.141 182.858 450.254C182.865 450.269 183.417 449.9 183.424 449.907C183.432 449.922 183.432 450.804 183.446 450.826C183.453 450.841 184.012 450.465 184.02 450.48" stroke="black" stroke-width="3" stroke-linecap="round" stroke-linejoin="round"/>
<path d="M1.07571 242.918C1.07571 242.918 1.9578 242.353 1.97215 242.375C1.98649 242.398 2.30203 243.136 2.3092 243.151C2.32355 243.174 3.18412 242.594 3.19847 242.616C3.38492 242.955 15.6123 245.976 15.7629 246.262C15.77 246.277 16.5302 245.765 16.5374 245.787C16.6091 245.916 20.7901 247.61 20.8474 247.723C20.8546 247.738 21.5861 247.249 21.6004 247.271C21.6363 247.332 24.0674 248.672 24.1033 248.748C24.1176 248.77 24.8276 248.281 24.8419 248.303C24.885 248.386 28.2484 250.081 28.2986 250.171C28.3057 250.186 29.0229 249.712 29.0301 249.727C29.0874 249.832 32.7449 251.723 32.7879 251.806C32.7951 251.821 33.4835 251.354 33.4979 251.376C33.6413 251.64 43.0574 255.873 43.208 256.159C43.2152 256.182 43.8821 255.73 43.8893 255.745C43.9037 255.767 44.1762 256.581 44.1833 256.596C44.1905 256.619 44.8503 256.167 44.8575 256.189C44.9507 256.355 52.3445 260.49 52.4449 260.671C52.4592 260.693 53.0903 260.257 53.0975 260.272C53.2122 260.475 62.4634 266.184 62.5925 266.418C62.5996 266.44 63.2092 266.019 63.2164 266.041C63.2379 266.079 64.2347 267.412 64.2563 267.45C64.2634 267.465 64.873 267.051 64.8873 267.066C64.9017 267.088 65.081 267.947 65.0953 267.969C65.1025 267.985 65.7049 267.57 65.7192 267.593C65.7838 267.706 69.4269 270.719 69.4842 270.832C69.4914 270.847 70.0938 270.432 70.1082 270.455C70.2157 270.658 76.7776 275.848 76.8995 276.074C76.9067 276.089 77.4948 275.697 77.5019 275.712C77.5952 275.886 82.357 280.217 82.4287 280.352C82.4359 280.367 83.0168 279.976 83.024 279.991C83.1244 280.171 89.636 286.325 89.7436 286.514C89.7508 286.529 90.3173 286.144 90.3245 286.16C90.4249 286.348 97.4099 293.413 97.5246 293.616C97.5318 293.631 98.0912 293.247 98.0984 293.27C98.1414 293.353 100.092 295.944 100.142 296.034C100.149 296.049 100.709 295.665 100.716 295.688C100.802 295.838 106.044 301.45 106.138 301.615C106.145 301.63 106.704 301.254 106.711 301.269C106.783 301.397 109.73 305.005 109.795 305.125C109.802 305.14 110.362 304.764 110.369 304.779C110.397 304.832 111.918 307.204 111.954 307.272C111.961 307.287 112.513 306.91 112.52 306.925C112.535 306.956 113.037 308.364 113.058 308.402C113.065 308.417 113.617 308.04 113.625 308.055C113.732 308.251 118.716 314.699 118.817 314.879C118.824 314.894 119.369 314.525 119.376 314.54C119.39 314.563 119.376 315.587 119.39 315.618C119.39 315.633 119.943 315.264 119.95 315.279C120.022 315.414 123.277 321.493 123.356 321.636C123.363 321.651 123.901 321.282 123.908 321.304C123.923 321.327 123.6 322.095 123.614 322.118C123.614 322.133 124.159 321.764 124.167 321.779C124.26 321.944 126.254 329.198 126.354 329.394C126.361 329.409 126.913 329.04 126.92 329.047C127.035 329.251 127.114 337.295 127.207 337.476C127.214 337.491 127.831 337.076 127.838 337.092C127.896 337.189 126.949 340.797 126.999 340.88C127.007 340.895 127.659 340.451 127.673 340.473C127.781 340.677 124.812 349.806 124.912 349.986C124.927 350.009 125.737 349.459 125.752 349.474C125.931 349.798 117.354 363.484 117.583 363.906C117.598 363.936 118.91 363.062 118.931 363.092C118.996 363.213 114.966 367.152 115.045 367.288C115.066 367.333 116.615 366.278 116.637 366.324C116.665 366.376 116.902 368.267 116.931 368.32C116.938 368.335 117.569 367.913 117.576 367.928C117.698 368.146 124.289 373.261 124.41 373.487C124.418 373.502 124.984 373.118 124.991 373.133C125.006 373.163 125.228 374.21 125.242 374.232C125.249 374.247 125.809 373.871 125.816 373.886C125.909 374.059 130.384 380.544 130.492 380.74C130.499 380.755 131.03 380.401 131.037 380.409C131.123 380.574 132.772 387.127 132.851 387.27C132.858 387.285 133.425 386.901 133.432 386.916C133.554 387.135 131.073 398.787 131.202 399.02C131.216 399.051 132.098 398.441 132.113 398.471C132.256 398.734 123.865 410.59 124.016 410.861C124.03 410.891 125.414 409.95 125.443 409.995C125.63 410.341 112.678 423.846 112.943 424.328C112.972 424.381 114.758 423.161 114.786 423.214C115.31 424.17 80.4781 453.628 81.102 454.758C81.1522 454.848 84.6877 452.446 84.7451 452.551C84.9746 452.973 71.2986 462.38 71.5425 462.825C71.5783 462.893 74.6979 460.784 74.7481 460.882C74.8485 461.07 69.3695 466.855 69.4771 467.05C69.4914 467.073 70.2086 466.583 70.2157 466.606C70.3018 466.757 77.6956 465.619 77.7744 465.762C77.8103 465.83 80.1554 464.226 80.1912 464.294C80.8295 465.454 120.731 448.205 121.183 449.019C121.212 449.071 123.492 447.542 123.521 447.603C123.657 447.851 134.221 445.509 134.386 445.795C134.407 445.832 135.856 444.861 135.87 444.891C135.899 444.944 137.871 445.245 137.893 445.283C137.914 445.32 139.241 444.416 139.263 444.454C139.384 444.68 147.639 444.401 147.754 444.612C147.768 444.635 148.829 443.919 148.851 443.949C148.922 444.077 154.351 444.695 154.409 444.801C154.423 444.823 155.37 444.175 155.391 444.206C155.492 444.386 163.968 445.832 164.061 445.998C164.076 446.021 164.9 445.463 164.915 445.486C165.058 445.75 174.926 448.521 175.048 448.732C175.055 448.747 175.787 448.25 175.801 448.28C175.887 448.439 182.592 451.399 182.679 451.557C182.686 451.572 183.381 451.112 183.389 451.128C183.424 451.203 186.257 453.086 186.307 453.176C186.307 453.184 186.723 452.913 186.73 452.92C186.738 452.935 187.297 453.621 187.311 453.643L187.469 453.545" stroke="black" stroke-width="3" stroke-linecap="round" stroke-linejoin="round"/>
<path d="M14.974 245.125C14.974 245.125 15.9063 244.53 15.9206 244.552C16.0784 244.831 30.8373 245.644 31.0165 245.961C31.0309 245.991 32.0994 245.268 32.1138 245.298C32.3648 245.75 49.9205 244.341 50.15 244.763C50.1715 244.793 51.5341 243.874 51.5556 243.912C51.5986 243.987 54.7397 244.01 54.7899 244.1C54.8043 244.13 56.2888 243.151 56.3031 243.181C56.4824 243.513 72.3385 239.784 72.5106 240.093C72.5465 240.153 74.7768 238.647 74.8055 238.7C75.0206 239.091 92.3612 231.853 92.6122 232.313C92.8632 232.772 112.75 219.455 113.015 219.937" stroke="black" stroke-width="3" stroke-linecap="round" stroke-linejoin="round"/>
<path d="M174.883 104.561C174.883 104.561 175.464 104.184 175.478 104.199C175.586 104.395 173.399 113.17 173.513 113.366C173.528 113.388 174.223 112.914 174.238 112.929C174.388 113.2 171.132 123.986 171.29 124.272C171.297 124.295 172.036 123.798 172.05 123.813C172.23 124.137 167.26 138.206 167.432 138.523C167.446 138.545 168.235 138.011 168.25 138.026C168.4 138.304 162.598 151.553 162.749 151.832C162.763 151.855 163.631 151.267 163.645 151.29C163.71 151.41 160.662 156.562 160.748 156.705C160.763 156.728 161.666 156.118 161.68 156.14C161.702 156.178 160.433 157.346 160.454 157.383C160.469 157.406 161.386 156.781 161.401 156.811C161.487 156.969 157.134 164.185 157.241 164.381C157.256 164.411 158.231 163.74 158.245 163.77C158.417 164.079 150.737 175.912 150.895 176.206C150.916 176.244 152.028 175.483 152.042 175.513C152.279 175.95 139.879 191.609 140.159 192.129C140.188 192.174 141.636 191.195 141.651 191.225C141.694 191.3 138.796 193.718 138.847 193.816C138.868 193.846 140.367 192.844 140.388 192.882C140.532 193.146 133.482 199.827 133.619 200.075C133.647 200.128 135.397 198.93 135.426 198.983C135.605 199.307 125.436 208.18 125.587 208.458C125.622 208.526 127.975 206.922 128.01 206.99C128.089 207.133 122.073 211.464 122.166 211.637C122.209 211.72 124.948 209.859 124.991 209.927C125.206 210.319 112.47 218.973 112.692 219.372C112.764 219.5 117.476 216.277 117.555 216.42" stroke="black" stroke-width="3" stroke-linecap="round" stroke-linejoin="round"/>
</svg>
