<svg width="552" height="339" viewBox="0 0 552 339" fill="none" xmlns="http://www.w3.org/2000/svg">
<path d="M404.525 243.07C406.756 247.13 541.414 155.713 543.207 158.974C545.495 163.14 407.387 245.375 409.345 248.945C411.589 253.035 543.666 162.567 545.696 166.265C547.725 169.964 410.528 249.036 412.098 251.89C414.379 256.04 544.44 166.002 546.764 170.227C548.779 173.888 414.902 252.817 416.882 256.417C418.603 259.55 546.097 173.157 548.119 176.84C550.343 180.878 417.011 254.406 419.191 258.368C420.776 261.253 546.843 176.758 548.571 179.914C550.3 183.069 424.398 260.326 426.133 263.482C427.868 266.638 547.395 185.435 549.26 188.824C551.124 192.213 431.11 264.213 432.932 267.527C434.538 270.457 547.503 194.202 549.088 197.087C550.45 199.557 437.88 267.783 439.443 270.63C440.741 272.988 546.771 201.885 548.284 204.634C549.798 207.383 438.482 268.461 439.744 270.758C441.186 273.379 546.384 201.614 548.234 204.973C549.783 207.79 442.756 269.327 444.556 272.604C445.89 275.029 545.903 207.873 547.259 210.328C548.435 212.475 455.887 273.425 457.236 275.88C458.491 278.162 542.418 221.8 543.422 223.622C544.354 225.317 469.076 274.818 470.28 277.017C471.241 278.757 536.645 234.265 537.678 236.148C538.402 237.466 482.981 274.117 483.913 275.805C484.53 276.927 529.022 246.558 529.804 247.974C530.291 248.862 495.847 271.594 496.306 272.43C496.593 272.958 520.438 256.839 520.832 257.554C521.069 257.991 500.838 269.839 501.175 270.442C501.39 270.826 516.551 260.62 516.759 260.989" stroke="#E4E2E7" stroke-width="3" stroke-linecap="round" stroke-linejoin="round"/>
<path d="M348.351 32.4577C348.638 32.9849 365.211 21.6566 365.455 22.086C365.771 22.6509 341.445 37.346 341.811 38.0088C342.198 38.7168 372.842 18.3049 373.208 18.9677" stroke="#E4E2E7" stroke-width="3" stroke-linecap="round" stroke-linejoin="round"/>
<path d="M162.969 22.7864C163.184 23.1781 180.618 11.4431 180.883 11.9252C181.357 12.7913 149.853 33.1355 150.362 34.062C151.007 35.2295 195.442 5.16133 196.087 6.33634C196.826 7.68459 143.994 39.0256 144.739 40.3814C145.485 41.7372 202.972 3.09754 203.782 4.57383C204.592 6.05012 139.906 43.801 140.788 45.4053C141.799 47.2432 208.623 1.86228 209.619 3.66998C210.989 6.16311 128.711 61.1098 129.722 62.9476C131.408 66.0132 227.111 0.197678 228.638 2.96949C229.872 5.21406 127.772 61.3884 129.192 63.9644C130.612 66.5404 228.387 0.634546 229.692 3.02222" stroke="#E4E2E7" stroke-width="3" stroke-linecap="round" stroke-linejoin="round"/>
<path d="M27.7585 65.9906C27.9522 66.3446 42.833 56.2666 43.0768 56.7035C43.4138 57.3136 23.3409 68.913 23.6708 69.5156C24.0581 70.2236 47.9032 53.8262 48.3119 54.5719C48.7207 55.3176 18.4213 73.613 18.8874 74.4642C19.3894 75.3831 54.9025 51.5591 55.34 52.3575C55.9567 53.4797 17.8763 73.8616 18.4715 74.9387C18.9448 75.7974 55.3758 51.0318 56.0069 52.1767C56.6667 53.3818 14.4196 78.524 14.9431 79.473C15.7248 80.889 61.3855 49.4275 62.16 50.8435C62.7696 51.9583 11.2785 82.6742 12.0172 84.0224C12.7559 85.3706 67.4454 48.7797 68.1195 49.9999C69.0446 51.6796 9.37093 86.2067 10.1096 87.5474C11.0634 89.2798 71.6981 47.9888 72.616 49.6459C73.7419 51.6946 3.95647 99.5235 5.0035 101.437C6.26568 103.741 87.8267 47.6876 89.2825 50.3313C90.7383 52.9751 2.78753 104.773 3.88476 106.762C5.24016 109.232 94.2164 49.3823 95.285 51.3406C96.4181 53.3969 1.13092 115.883 2.73015 118.798C4.08556 121.261 106.487 51.9055 108.122 54.8882C109.355 57.1328 1.03769 116.26 2.72299 119.325C4.07122 121.781 107.29 52.5759 108.667 55.0841C110.517 58.4509 1.28152 126.21 3.18196 129.659C4.64494 132.326 117.509 56.8165 118.958 59.4527C120.543 62.33 2.15644 131.158 3.72699 134.02C5.29753 136.883 121.683 59.0083 123.117 61.6219C124.982 65.0114 2.70147 134.405 4.27919 137.274C5.99317 140.393 124.501 60.3415 126.165 63.3694C127.829 66.3973 3.25367 138.344 5.31188 142.087C9.08407 148.949 230.367 -3.65123 234.189 3.3009C236.885 8.2043 3.93497 142.848 7.17647 148.753C10.0666 154.011 242.164 -0.435015 244.925 4.58889C248.783 11.6088 5.86409 147.925 8.61793 152.934C11.5869 158.342 248.51 0.348317 251.443 5.68857C254.377 11.0288 6.76051 150.305 9.62192 155.517C13.4371 162.454 251.207 -1.19576 255.424 6.46438C258.572 12.1963 7.53504 152.436 11.0419 158.824C14.5487 165.211 257.439 1.93006 260.523 7.54148C264.61 14.9832 8.58206 154.734 12.2108 161.339C16.3129 168.804 261.017 2.23887 264.409 8.41519C268.49 15.8343 9.40678 156.383 13.0427 162.996C16.9296 170.069 263.276 2.25394 266.991 9.01023C270.118 14.697 9.94464 157.393 13.5089 163.878C17.3958 170.943 265.413 3.96372 268.368 9.33411C272.771 17.3407 14.9073 165.776 18.0341 171.47C22.509 179.605 276.465 5.17639 280.416 12.362C284.059 18.9903 14.1615 164.269 18.5145 172.178C22.8676 180.087 277.677 5.66599 281.535 12.6859C285.393 19.7058 21.1106 173.391 24.9617 180.403C28.196 186.286 290.499 9.44709 294.594 16.9039C299.062 25.031 21.713 173.534 26.2884 181.857C30.8638 190.18 292.543 9.8011 296.918 17.755C300.087 23.5171 25.7649 178.648 29.0853 184.696C33.1443 192.078 297.298 11.9251 301.472 19.525C304.641 25.2946 30.7347 182.316 34.8081 189.728C39.0966 197.524 305.789 15.9172 309.704 23.035C312.96 28.9552 33.4885 185.389 36.6583 191.159C41.2265 199.474 308.406 17.4085 312.1 24.1347C315.793 30.8609 39.1325 188.026 43.3565 195.708C47.3295 202.932 316.732 22.1462 319.945 27.9911C323.588 34.6194 44.1166 190.564 48.5629 198.653C53.0092 206.743 321.681 24.3079 325.281 30.8533C329.648 38.7997 49.2442 193.366 53.4539 201.019C57.4125 208.219 325.51 25.6185 329.813 33.4368C334.346 41.6845 52.6435 195.964 56.0212 202.111C60.6612 210.554 328.013 27.4563 332.022 34.7474C336.762 43.3717 53.9272 195.392 58.0651 202.917C61.4214 209.025 329.878 28.8046 333.707 35.7718C337.537 42.739 65.2151 198.879 69.3387 206.381C74.4232 215.638 378.464 8.49051 382.774 16.3239C386.934 23.8861 62.4899 212.415 66.7354 220.135C70.6869 227.321 401.234 7.0293 405.472 14.7346C409.481 22.0257 60.0731 213.333 65.2939 222.824C69.4677 230.424 402.223 4.15203 408.147 14.9229C414.071 25.6938 56.4372 219.457 61.9234 229.437C66.2478 237.308 409.969 7.62433 414.408 15.6987C419.471 24.903 54.1136 229.776 58.3305 237.451C62.8628 245.699 415.283 5.80156 421.55 17.2052C426.714 26.6052 48.6992 236.103 54.7734 247.16C60.8476 258.217 425.036 11.3828 429.669 19.8113C434.954 29.4298 48.398 246.294 52.8085 254.331C58.1297 264.009 429.41 11.428 435.399 22.3345C440.419 31.471 46.6768 257.381 51.3024 265.81C57.8715 277.763 437.751 15.8117 444.212 27.5543C448.859 36.0053 45.2712 256.364 51.2953 267.331C56.2149 276.279 440.576 19.6757 445.36 28.3753C452.058 40.5622 47.2434 264.883 51.8188 273.214C58.1368 284.715 444.693 22.6735 449.77 31.9078C455.098 41.5941 47.1071 267.557 53.8411 279.797C59.607 290.281 448.214 24.8276 454.74 36.6982C460.391 46.9871 49.9399 272.717 55.3328 282.531C61.4572 293.671 452.151 30.5068 456.848 39.0558C461.546 47.6047 54.7017 277.56 60.7688 288.594C66.8358 299.629 457.049 36.9167 461.739 45.4505C467.699 56.2892 63.8883 283.277 69.5825 293.633C74.7101 302.965 460.577 42.7691 466.257 53.0956C471.471 62.5785 73.5555 285.687 79.4647 296.428C84.2768 305.187 464.658 51.4837 469.341 60.0101C474.318 69.0712 89.7773 289.37 94.4603 297.896C100.972 309.744 467.613 60.5524 472.181 68.8528C477.624 78.7575 107.096 287.871 112.231 297.211C117.366 306.551 469.312 69.3423 473.988 77.8461C480.191 89.1292 110.367 286.817 115.881 296.849C121.676 307.387 468.782 69.6587 474.225 79.5559C479.446 89.0463 128.869 286.854 133.021 294.401C138.285 303.975 470.704 79.5408 474.863 87.1106C479.022 94.6803 135.596 282.877 141.096 292.888C145.471 300.849 471.026 83.3069 474.949 90.4473C480.163 99.9302 154.184 280.347 158.896 288.918C163.607 297.49 469.276 87.5098 474.72 97.4069C478.908 105.029 160.043 277.959 165.192 287.329C168.993 294.243 469.212 90.1309 474.512 99.7645C477.904 105.941 191.877 270.977 195.965 278.411C199.752 285.295 479.768 97.9493 483.218 104.224C486.423 110.053 203.502 266.947 207.69 274.562C211.147 280.851 482.744 98.0321 486.76 105.338C490.059 111.334 229.355 260.929 233.716 268.86C238.076 276.791 493.559 103.561 496.75 109.36C501.068 117.209 232.504 266.729 235.559 272.287C240.141 280.633 497.582 105.489 500.845 111.424C504.381 117.857 233.099 267.775 236.426 273.831C240.787 281.763 499.095 105.978 502.631 112.411C506.138 118.783 234.648 270.457 237.811 276.204C241.683 283.246 501.756 107.492 505.327 113.985C509.315 121.246 239.489 277.921 243.024 284.361C246.596 290.861 510.763 114.038 514.048 120.018C518.279 127.724 245.011 285.566 248.281 291.517C252.003 298.288 516.931 118.542 521.083 126.097C524.403 132.137 248.073 289.106 251.702 295.704C256.184 303.854 521.284 123.34 524.948 130.013C528.613 136.687 248.388 288.956 252.792 296.97C256.37 303.485 521.98 123.799 526.074 131.256C529.918 138.254 253.373 294.899 257.109 301.693C261.354 309.413 526.899 130.209 530.148 136.122C534.594 144.211 260.788 301.986 264.56 308.856C269.214 317.322 531.353 136.122 535.871 144.339C539.887 151.646 262.516 302.89 266.912 310.897C270.254 316.983 532.73 138.412 537.384 146.885C541.88 155.065 269.802 309.277 273.575 316.139C276.759 321.931 537.032 146.659 541.041 153.95C544.957 161.076 277.526 313.571 282.044 321.788C283.88 325.132 402.446 244.788 404.088 247.778C405.838 250.956 286.297 322.474 287.681 324.997C289.065 327.52 401.764 251.295 403.629 254.685C405.494 258.074 295.225 326.383 296.846 329.335C298.194 331.791 401.054 263.143 402.295 265.395C403.629 267.821 307.869 331.128 309.224 333.606C310.422 335.783 398.229 276.633 399.47 278.885C400.71 281.137 322.936 333.9 324.327 336.438C325.345 338.283 393.395 291.999 394.45 293.912C395.203 295.29 338.003 335.361 338.691 336.619C339.523 338.133 387.099 305.398 387.873 306.799C388.354 307.681 359.51 330.48 360.048 331.459C360.242 331.806 373.451 322.805 373.674 323.197" stroke="#E4E2E7" stroke-width="3" stroke-linecap="round" stroke-linejoin="round"/>
<path d="M43.5931 56.8165C43.6433 56.8993 47.2004 54.4966 47.2578 54.5945C47.4872 55.0088 64.9497 50.1882 65.2223 50.6778C65.2438 50.7155 66.6135 49.7815 66.635 49.8191C66.7713 50.0677 79.6584 49.6158 79.8018 49.8719C79.8162 49.8945 80.8273 49.2166 80.8417 49.2392C80.9206 49.3898 86.9303 50.1957 87.0235 50.369C87.0378 50.3991 87.9343 49.789 87.9486 49.8116C87.9486 49.8267 87.8052 50.4443 87.8123 50.4594C87.8267 50.482 88.7088 49.8794 88.7231 49.9095C88.8809 50.1882 100.176 52.5834 100.305 52.8244C100.319 52.847 101.072 52.3349 101.087 52.3499C101.137 52.4403 104.421 53.9091 104.472 54.0145C104.479 54.0371 105.203 53.54 105.217 53.5626C105.289 53.6906 110.804 56.0934 110.89 56.2591C110.897 56.2741 111.586 55.8072 111.593 55.8298C111.722 56.0633 120.88 60.59 121.031 60.8612C121.045 60.8838 121.676 60.4469 121.683 60.462C121.733 60.5599 124.537 62.7141 124.588 62.8045C124.595 62.8195 125.211 62.3977 125.226 62.4203C125.276 62.5183 128.267 64.9587 128.31 65.049C128.324 65.0716 129.242 64.454 129.256 64.4766" stroke="black" stroke-width="3" stroke-linecap="round" stroke-linejoin="round"/>
<path d="M162.862 22.4475C163.105 22.8919 180.475 11.074 180.754 11.5937C181.314 12.6181 148.146 34.7625 148.555 35.5082C148.59 35.5759 150.591 34.2051 150.62 34.2578C150.907 34.7851 137.317 48.953 137.539 49.3672C137.561 49.4049 138.866 48.5086 138.887 48.5462C138.959 48.6818 134.742 53.3592 134.814 53.4948C134.828 53.5249 136.048 52.7039 136.062 52.7416C136.155 52.9148 130.683 60.0251 130.805 60.236C130.82 60.2662 131.902 59.528 131.917 59.5582C131.974 59.6636 129.012 63.3393 129.07 63.4372C129.084 63.4673 130.124 62.7668 130.131 62.7894" stroke="black" stroke-width="3" stroke-linecap="round" stroke-linejoin="round"/>
<path d="M181.048 12.1812C181.113 12.2942 185.229 9.46968 185.301 9.60526C185.358 9.70317 190.049 8.40012 190.106 8.49804C190.142 8.55829 192.602 6.89371 192.637 6.96149C192.853 7.35316 207.375 3.88087 207.568 4.23488C207.59 4.27254 208.988 3.32349 209.01 3.36115C209.024 3.39128 207.705 4.17462 207.726 4.21228C207.741 4.24241 209.146 3.29336 209.168 3.33856C209.311 3.60218 222.6 2.78871 222.786 3.12766C222.801 3.15026 223.855 2.4347 223.876 2.46483C224.041 2.76611 237.208 3.63231 237.366 3.91853C237.38 3.94113 238.291 3.31596 238.305 3.34608C238.47 3.64737 253.028 6.02751 253.2 6.33633C253.215 6.35892 254.032 5.80156 254.047 5.82415C254.054 5.83922 253.839 6.44178 253.846 6.45684C253.853 6.47191 254.671 5.9296 254.685 5.9522C254.778 6.1179 260.544 7.71471 260.637 7.87288C260.644 7.88795 261.448 7.35317 261.455 7.37576C261.505 7.47368 265.908 8.97256 265.966 9.07801C265.973 9.10061 266.762 8.5583 266.776 8.58843C266.941 8.88218 277.361 11.5862 277.526 11.88C277.54 11.9025 278.301 11.3828 278.315 11.4054C278.422 11.6088 286.354 14.2978 286.447 14.4635C286.454 14.4785 287.186 13.9889 287.2 14.004C287.258 14.1095 291.274 15.9623 291.331 16.0678C291.338 16.0829 292.055 15.6083 292.063 15.6234C292.192 15.8569 300.023 19.1258 300.123 19.3066C300.13 19.3217 300.819 18.8622 300.833 18.8773C300.898 18.9978 304.971 21.1896 305.036 21.3101C305.043 21.3252 305.717 20.8733 305.731 20.8883C305.86 21.1294 315.485 25.8746 315.635 26.1457C315.649 26.1683 316.288 25.724 316.295 25.7465C316.367 25.8671 321.91 29.264 321.982 29.4071C321.996 29.4297 322.62 28.9929 322.634 29.0155C322.785 29.2866 331.663 34.7399 331.792 34.9658C331.8 34.9809 332.409 34.5666 332.424 34.5817C332.445 34.6194 333.384 35.9073 333.406 35.945C333.413 35.9676 334.03 35.5458 334.037 35.5609C334.066 35.6136 335.973 37.5042 336.002 37.5644C336.009 37.5795 336.619 37.1727 336.626 37.1878C336.676 37.2707 339.495 39.7788 339.53 39.8466C339.559 39.8918 341.682 38.4683 341.711 38.5285" stroke="black" stroke-width="3" stroke-linecap="round" stroke-linejoin="round"/>
<path d="M348.151 32.2016C348.416 32.6761 365.118 21.4156 365.326 21.7922C365.678 22.4324 341.51 36.9317 341.832 37.5268C341.875 37.6096 344.88 35.5835 344.916 35.6588" stroke="black" stroke-width="3" stroke-linecap="round" stroke-linejoin="round"/>
<path d="M365.613 22.3797C365.678 22.5002 369.593 19.8414 369.651 19.9318C369.981 20.5268 391.602 14.7422 391.882 15.2468C391.904 15.2845 393.13 14.4409 393.152 14.4785C393.245 14.6442 399.979 14.7873 400.05 14.9154C400.072 14.9455 401.112 14.2224 401.133 14.2601C401.27 14.5011 411.073 15.3523 411.209 15.5857C411.224 15.6083 412.106 15.0058 412.12 15.0359C412.177 15.1338 415.598 16.1507 415.648 16.2486C415.656 16.2712 416.495 15.7063 416.509 15.7289C416.631 15.9473 426.406 18.7492 426.527 18.9752C426.535 18.9903 427.259 18.5082 427.266 18.5233C427.381 18.7342 434.502 22.0408 434.61 22.2366C434.617 22.2517 435.269 21.8148 435.277 21.8299C435.348 21.9504 440.648 25.4377 440.727 25.5808C440.734 25.5959 441.351 25.1817 441.358 25.1967C441.365 25.2118 440.978 25.724 440.985 25.7315C440.992 25.7466 441.602 25.3323 441.616 25.3474C441.666 25.4453 444.657 28.1192 444.714 28.2321C444.721 28.2472 445.31 27.848 445.317 27.8631C445.417 28.0514 452.165 34.3934 452.28 34.6043C452.287 34.6194 452.847 34.2428 452.854 34.2578C452.933 34.4009 457.508 40.2308 457.616 40.4116C457.623 40.4266 458.161 40.0575 458.168 40.0726C458.232 40.1931 461.166 45.104 461.252 45.2547C461.259 45.2697 461.79 44.9007 461.804 44.9233C461.847 44.9986 463.145 48.1621 463.181 48.2299C463.181 48.2449 463.719 47.8834 463.733 47.8985C463.776 47.9813 465.311 51.9507 465.375 52.0637C465.382 52.0788 465.913 51.7172 465.92 51.7323C465.927 51.7474 465.418 52.1541 465.433 52.1692C465.44 52.1842 465.97 51.8227 465.978 51.8377C466.064 51.9959 468.488 58.7748 468.595 58.9706C468.602 58.9857 469.133 58.6242 469.147 58.6392C469.183 58.6995 469.599 61.5918 469.628 61.6521C469.635 61.6671 470.173 61.3056 470.18 61.3207C470.273 61.4864 471.6 68.0092 471.665 68.1297C471.672 68.1447 472.217 67.7757 472.224 67.7907C472.26 67.851 472.324 70.8563 472.36 70.9165C472.367 70.9316 472.92 70.555 472.927 70.5701C472.977 70.6604 473.235 75.4358 473.293 75.5413C473.3 75.5563 473.866 75.1797 473.873 75.1872C473.916 75.2626 473.751 78.6595 473.794 78.7424C473.802 78.7574 474.375 78.3733 474.383 78.3884C474.461 78.5315 474.383 85.1522 474.447 85.2727C474.454 85.2878 475.042 84.8886 475.057 84.9037C475.093 84.9639 474.548 87.9466 474.583 88.0069C474.591 88.0219 475.193 87.6152 475.2 87.6303C475.279 87.7809 474.476 94.7406 474.562 94.8912C474.569 94.9063 475.2 94.4845 475.207 94.4995C475.25 94.5749 474.296 98.4087 474.332 98.4765C474.34 98.4916 474.985 98.0547 474.999 98.0698C475.021 98.1074 474.16 99.9377 474.189 99.9904C474.196 100.006 474.856 99.5611 474.863 99.5762C474.978 99.7871 483.368 104.374 483.505 104.623C483.512 104.638 484.251 104.141 484.265 104.163C484.301 104.231 487.277 105.775 487.313 105.85C487.327 105.873 488.03 105.383 488.044 105.406C488.173 105.632 496.363 109.421 496.456 109.594C496.471 109.616 497.145 109.157 497.152 109.172C497.159 109.187 497.41 110.038 497.424 110.053C497.432 110.068 498.099 109.616 498.113 109.639C498.185 109.767 502.143 112.456 502.208 112.569C502.222 112.592 502.875 112.14 502.889 112.155C502.932 112.23 505.664 114.558 505.715 114.64C505.722 114.655 506.374 114.211 506.389 114.234C506.425 114.301 508.569 116.448 508.605 116.508C508.612 116.523 509.265 116.087 509.272 116.102C509.372 116.29 516.752 122.549 516.902 122.805C516.909 122.82 517.555 122.391 517.562 122.406C517.677 122.617 522.84 128.273 522.926 128.424C522.933 128.439 523.572 128.01 523.579 128.025C523.672 128.191 527.666 133.561 527.76 133.742C527.767 133.757 528.391 133.335 528.405 133.35C528.441 133.418 529.438 135.768 529.474 135.836C529.481 135.851 530.098 135.437 530.105 135.452C530.148 135.534 532.063 139.24 532.12 139.338C532.127 139.353 532.737 138.946 532.744 138.962C532.758 138.984 532.586 139.978 532.593 139.993C532.6 140.016 533.203 139.602 533.21 139.617C533.267 139.722 535.211 143.895 535.283 144.016C535.29 144.031 535.878 143.631 535.892 143.646C536.007 143.857 540.209 152.911 540.324 153.114C540.331 153.129 540.891 152.745 540.898 152.768C540.905 152.783 540.36 153.197 540.367 153.212C540.374 153.227 540.934 152.843 540.941 152.866C540.991 152.964 542.311 157.619 542.368 157.716C542.375 157.732 542.927 157.355 542.942 157.37C542.956 157.393 542.54 158.131 542.547 158.153C542.547 158.168 543.107 157.792 543.114 157.807C543.135 157.844 543.099 159.554 543.114 159.584C543.121 159.599 543.673 159.223 543.68 159.238C543.709 159.291 543.924 161.806 543.96 161.867C543.967 161.882 544.519 161.505 544.527 161.52C544.591 161.641 545.674 167.305 545.731 167.41C545.739 167.425 546.291 167.056 546.298 167.064C546.42 167.29 547.625 175.906 547.711 176.065C547.718 176.08 548.284 175.696 548.292 175.711C548.313 175.748 547.926 177.428 547.947 177.466C547.955 177.481 548.514 177.104 548.528 177.119C548.636 177.315 548.786 186.79 548.923 187.031C548.93 187.046 549.532 186.64 549.539 186.655C549.633 186.82 548.865 193.758 548.951 193.908C548.959 193.931 549.604 193.486 549.611 193.509C549.712 193.69 548.292 201.124 548.378 201.275C548.385 201.29 549.116 200.8 549.131 200.823C549.238 201.018 546.893 209.485 547.001 209.68C547.015 209.703 547.847 209.138 547.861 209.161C547.876 209.191 546.915 209.974 546.936 210.004C546.951 210.034 547.79 209.462 547.797 209.485C547.883 209.643 545.495 215.518 545.559 215.638C545.574 215.661 546.477 215.051 546.492 215.073C546.585 215.247 543.214 222.53 543.307 222.703C543.322 222.734 544.326 222.048 544.34 222.078C544.369 222.123 542.777 223.991 542.813 224.052C542.827 224.082 543.852 223.389 543.867 223.411C544.003 223.66 539.134 232.096 539.241 232.292C539.256 232.322 540.41 231.539 540.432 231.569C540.482 231.659 538.122 234.325 538.173 234.408C538.194 234.446 539.377 233.64 539.392 233.67C539.664 234.16 525.343 251.928 525.594 252.387C525.623 252.44 527.559 251.122 527.588 251.182C527.731 251.438 516.443 260.326 516.644 260.695C516.701 260.801 520.301 258.338 520.359 258.443" stroke="black" stroke-width="3" stroke-linecap="round" stroke-linejoin="round"/>
<path d="M404.877 244.102C404.877 244.102 405.422 243.756 405.429 243.763C405.486 243.869 408.211 248.124 408.276 248.252C408.276 248.267 408.828 247.906 408.828 247.913C408.871 247.989 410.442 250.61 410.47 250.678C410.47 250.693 411.008 250.331 411.015 250.346C411.066 250.437 413.511 253.713 413.576 253.826C413.583 253.841 414.114 253.487 414.121 253.495C414.207 253.653 418.201 257.893 418.295 258.059C418.295 258.074 418.832 257.713 418.84 257.728C418.868 257.78 420.446 259.761 420.482 259.814C420.489 259.829 421.02 259.468 421.027 259.483C421.084 259.588 425.079 263.075 425.158 263.211C425.158 263.226 425.703 262.857 425.71 262.88C425.753 262.955 428.507 265.305 428.557 265.403C428.564 265.418 429.109 265.049 429.116 265.064C429.224 265.26 437.112 269.847 437.213 270.02C437.22 270.035 437.801 269.643 437.808 269.659C437.966 269.937 448.307 273.989 448.436 274.223C448.443 274.238 449.103 273.794 449.11 273.816C449.304 274.17 462.729 276.716 462.887 277.002C462.894 277.017 463.697 276.475 463.711 276.505C463.891 276.829 478.664 276.55 478.85 276.889C478.865 276.919 480.077 276.106 480.091 276.136C480.134 276.219 483.569 276.106 483.626 276.204C483.648 276.242 485.104 275.262 485.118 275.3C485.297 275.631 501.154 270.419 501.34 270.766C501.598 271.233 516.687 260.808 516.959 261.298" stroke="black" stroke-width="3" stroke-linecap="round" stroke-linejoin="round"/>
<path d="M403.887 242.347C403.887 242.347 404.203 242.144 404.21 242.151C404.26 242.234 403.815 245.895 403.866 245.985C403.873 246 404.497 245.578 404.504 245.593C404.547 245.669 403.715 248.885 403.751 248.953C403.758 248.968 404.389 248.546 404.396 248.561C404.432 248.621 403.55 251.612 403.586 251.679C403.593 251.694 404.231 251.265 404.246 251.28C404.411 251.574 402.23 263.038 402.352 263.256C402.367 263.279 403.034 262.819 403.048 262.834C403.156 263.038 400.402 273.146 400.524 273.379C400.531 273.394 401.248 272.92 401.255 272.935C401.32 273.055 399.24 278.26 399.319 278.411C399.333 278.433 400.072 277.929 400.086 277.944C400.115 277.997 398.838 280.075 398.867 280.121C398.874 280.136 399.634 279.631 399.642 279.654C399.742 279.834 395.934 288.911 396.034 289.099C396.049 289.121 396.873 288.557 396.881 288.587C396.988 288.79 393.245 295.644 393.338 295.825C393.352 295.848 394.256 295.237 394.27 295.26C394.543 295.757 381.068 314.55 381.412 315.175C381.44 315.22 383.061 314.113 383.09 314.158C383.255 314.459 373.394 322.654 373.537 322.91C373.588 323.001 376.729 320.854 376.779 320.945" stroke="black" stroke-width="3" stroke-linecap="round" stroke-linejoin="round"/>
<path d="M27.5864 65.7043C27.7801 66.0584 42.7397 55.9277 42.9835 56.3645C43.3206 56.9746 23.1401 68.6419 23.47 69.2369C23.5202 69.3273 26.5609 67.2334 26.6111 67.3313C26.733 67.5497 18.5145 73.9595 18.658 74.2081C18.6867 74.2533 20.5441 73.0105 20.5656 73.0557C20.6086 73.131 18.2133 74.6148 18.2492 74.6901C18.2707 74.7353 20.0707 73.5076 20.0994 73.5678C20.207 73.7562 14.6204 79.0889 14.6993 79.2395C14.7208 79.2847 16.0906 78.3432 16.1121 78.3809C16.1838 78.5089 11.6873 83.6383 11.7662 83.7889C11.7805 83.819 12.9208 83.0583 12.9351 83.0809C13.0069 83.2089 9.80839 87.2236 9.86576 87.3215C9.88011 87.3516 10.8913 86.6586 10.9056 86.6888C11.1064 87.0578 4.60191 100.842 4.78837 101.188C4.80271 101.211 5.54137 100.698 5.55571 100.721C5.64177 100.872 3.59073 106.408 3.65528 106.521C3.66245 106.543 4.35807 106.076 4.36525 106.091C4.48716 106.31 2.28552 118.278 2.45047 118.587C2.45764 118.602 3.08156 118.18 3.08873 118.203C3.10307 118.226 2.41462 119.099 2.43613 119.122C2.4433 119.137 3.06722 118.723 3.07439 118.738C3.22499 119.009 2.68713 129.215 2.83773 129.494C2.8449 129.509 3.42579 129.117 3.43296 129.132C3.48316 129.23 3.31104 133.772 3.36841 133.87C3.37558 133.885 3.94214 133.501 3.94931 133.516C3.99234 133.599 3.86325 137.063 3.8991 137.139C3.90628 137.154 4.46565 136.777 4.47282 136.792C4.5302 136.905 4.83139 141.831 4.9031 141.967C4.91028 141.982 5.46248 141.605 5.46966 141.62C5.54137 141.748 6.66729 148.49 6.74617 148.64C6.74617 148.655 7.29838 148.294 7.30555 148.301C7.37009 148.414 8.13744 152.745 8.18047 152.821C8.18047 152.836 8.7255 152.474 8.73267 152.489C8.76136 152.542 9.14144 155.351 9.17013 155.404C9.1773 155.419 9.70798 155.058 9.72232 155.073C9.76535 155.148 10.547 158.635 10.5901 158.718C10.5972 158.733 11.1279 158.372 11.1351 158.387C11.171 158.462 11.7303 161.166 11.7662 161.226C11.7734 161.241 12.304 160.88 12.3112 160.895C12.3399 160.94 12.5694 162.838 12.5909 162.883C12.5981 162.899 13.1288 162.537 13.1359 162.552C13.1503 162.575 13.0355 163.735 13.0499 163.765C13.0571 163.78 13.5877 163.418 13.5949 163.433C13.724 163.667 17.4532 171.206 17.5464 171.372C17.5536 171.387 18.0842 171.026 18.0914 171.041C18.1058 171.063 18.0054 172.058 18.0197 172.08C18.0269 172.095 18.5576 171.734 18.5719 171.749C18.7082 171.99 24.3019 180.109 24.431 180.343C24.431 180.358 24.9832 179.989 24.9904 180.004C25.019 180.057 25.7219 181.751 25.7505 181.804C25.7577 181.819 26.3027 181.443 26.3171 181.465C26.3529 181.533 28.49 184.583 28.5331 184.651C28.5402 184.666 29.0996 184.29 29.1068 184.305C29.1785 184.44 34.1268 189.532 34.22 189.705C34.2272 189.72 34.8009 189.329 34.8153 189.344C34.8368 189.381 36.0416 191.106 36.0631 191.144C36.0703 191.159 36.6511 190.767 36.6583 190.782C36.7444 190.941 42.6106 195.535 42.711 195.723C42.7182 195.738 43.3278 195.332 43.335 195.347C43.3995 195.46 47.7956 198.548 47.8745 198.691C47.8888 198.714 48.5199 198.277 48.5271 198.292C48.5988 198.42 52.665 200.951 52.7296 201.071C52.7367 201.086 53.4037 200.642 53.4109 200.657C53.4467 200.717 55.2467 202.133 55.2754 202.178C55.2898 202.201 55.9639 201.742 55.971 201.757C55.9997 201.802 57.2763 202.954 57.2978 202.999C57.3049 203.014 58.0006 202.548 58.0078 202.57C58.1368 202.811 68.2988 206.268 68.4494 206.54C68.4637 206.562 69.2383 206.035 69.2526 206.05C69.4032 206.329 66.298 219.63 66.4557 219.909C66.4701 219.932 67.5314 219.224 67.5458 219.246C67.5888 219.321 64.9497 222.5 64.9999 222.598C65.0143 222.621 66.047 221.92 66.0685 221.95C66.1904 222.169 61.5289 229.023 61.6437 229.226C61.658 229.249 62.6262 228.601 62.6405 228.624C62.7553 228.835 57.936 237.075 58.0364 237.248C58.0508 237.27 58.9329 236.668 58.9472 236.691C59.0763 236.924 54.3001 246.678 54.4579 246.957C54.4722 246.979 55.2611 246.445 55.2683 246.467C55.3615 246.64 52.4212 254.007 52.5001 254.15C52.5072 254.165 53.2244 253.683 53.2387 253.706C53.3678 253.939 50.865 265.425 50.9797 265.644C50.9869 265.667 51.5965 265.245 51.6036 265.267C51.6251 265.305 50.9439 267.128 50.9654 267.173C50.9726 267.188 51.575 266.789 51.5821 266.796C51.6682 266.955 51.41 272.958 51.4674 273.063C51.4746 273.078 52.0339 272.702 52.0411 272.717C52.12 272.86 53.3248 279.503 53.4252 279.684C53.4324 279.699 53.9631 279.337 53.9702 279.352C54.0061 279.42 54.838 282.38 54.8738 282.44C54.881 282.456 55.4117 282.094 55.4189 282.109C55.4977 282.252 60.0803 288.383 60.1807 288.572C60.1879 288.587 60.7472 288.21 60.7544 288.225C60.8763 288.451 68.7147 293.498 68.8295 293.716C68.8367 293.731 69.4677 293.302 69.4821 293.324C69.5897 293.528 78.4177 296.39 78.5396 296.616C78.5468 296.631 79.2855 296.141 79.2926 296.156C79.4504 296.45 93.1551 297.949 93.3057 298.228C93.32 298.258 94.2236 297.648 94.2308 297.663C94.4459 298.055 110.603 297.339 110.804 297.701C110.818 297.731 111.937 296.977 111.951 297C111.987 297.068 114.354 297.309 114.39 297.369C114.411 297.407 115.573 296.608 115.587 296.646C115.795 297.023 131.128 294.771 131.293 295.064C131.314 295.102 132.698 294.168 132.72 294.198C132.792 294.326 139.146 293.46 139.239 293.626C139.26 293.663 140.752 292.662 140.774 292.699C141.003 293.121 156.587 289.423 156.795 289.799C156.823 289.852 158.544 288.662 158.58 288.722C158.63 288.82 162.941 288.15 163.005 288.27C163.027 288.316 164.848 287.073 164.877 287.133C165.185 287.69 192.953 278.961 193.319 279.623C193.347 279.676 195.635 278.155 195.664 278.2C195.757 278.373 204.721 275.669 204.851 275.895C204.879 275.955 207.368 274.283 207.404 274.351C207.698 274.886 232.877 268.047 233.264 268.747C233.271 268.762 233.809 268.401 233.809 268.416C233.866 268.514 235.064 272.106 235.107 272.174C235.114 272.189 235.645 271.828 235.652 271.843C235.673 271.88 235.946 273.681 235.967 273.718C235.975 273.733 236.505 273.372 236.512 273.387C236.541 273.44 237.316 276.046 237.344 276.098C237.352 276.114 237.882 275.752 237.889 275.767C238.011 275.985 242.443 284.06 242.551 284.256C242.558 284.271 243.089 283.909 243.096 283.924C243.211 284.135 247.7 291.253 247.786 291.419C247.793 291.434 248.331 291.072 248.338 291.087C248.396 291.185 251.135 295.509 251.2 295.614C251.207 295.629 251.752 295.26 251.759 295.275C251.781 295.313 252.268 296.834 252.29 296.88C252.297 296.895 252.842 296.526 252.849 296.541C252.921 296.676 256.514 301.482 256.585 301.617C256.593 301.632 257.145 301.263 257.152 301.271C257.295 301.527 263.879 308.584 264.001 308.803C264.008 308.818 264.574 308.434 264.582 308.449C264.617 308.517 266.303 310.769 266.346 310.844C266.353 310.859 266.919 310.467 266.934 310.49C267.049 310.701 272.879 315.936 272.979 316.109C272.979 316.124 273.575 315.725 273.582 315.747C273.704 315.973 281.248 321.54 281.391 321.796C281.399 321.811 282.008 321.396 282.023 321.412C282.101 321.555 286.942 324.914 287 325.027C287.007 325.042 287.645 324.613 287.652 324.628C287.788 324.884 295.985 329.177 296.107 329.403C296.114 329.418 296.796 328.966 296.803 328.981C296.946 329.245 308.241 333.463 308.392 333.734C308.399 333.749 309.152 333.244 309.159 333.267C309.353 333.621 323.094 336.272 323.316 336.672C323.33 336.694 324.241 336.077 324.255 336.107C324.399 336.37 337.243 336.807 337.379 337.048C337.401 337.086 338.605 336.257 338.627 336.295C338.878 336.747 356.807 332.521 357.079 333.026C357.129 333.116 360.579 330.766 360.636 330.872C360.643 330.894 360.234 331.746 360.249 331.768C360.464 332.16 373.724 323.091 373.932 323.468" stroke="black" stroke-width="3" stroke-linecap="round" stroke-linejoin="round"/>
</svg>
