<svg width="632" height="384" viewBox="0 0 632 384" fill="none" xmlns="http://www.w3.org/2000/svg">
<path d="M465.249 275.216C467.802 279.863 620.719 175.837 622.82 179.664C625.187 183.972 462.918 270.81 465.572 275.638C468.261 280.534 621.049 176.591 623.014 180.168C624.843 183.498 463.535 271.623 466.203 276.474C468.032 279.795 620.726 176.312 623.394 181.155C626.062 185.998 469.667 278.809 472.327 283.644C474.988 288.48 624.319 186.623 626.32 190.269C628.902 194.969 474.12 283.923 476.028 287.403C477.813 290.649 625.388 191.504 627.582 195.504C629.468 198.938 474.773 284.217 477.06 288.382C479.276 292.412 626.012 193.545 627.876 196.935C630.035 200.867 480.037 288.518 482.604 293.188C484.827 297.232 626.922 200.475 629.067 204.377C630.946 207.804 482.088 290.589 484.203 294.438C486.713 299.002 626.894 202.094 629.296 206.455C630.931 209.431 491.461 297.36 493.239 300.599C495.19 304.147 627.754 214.168 629.755 217.814C631.433 220.864 491.884 297.752 493.548 300.787C495.383 304.132 628.077 215.163 629.748 218.198C631.892 222.092 495.907 299.349 498.109 303.341C499.851 306.512 627.711 220.412 629.504 223.666C631.491 227.282 503.559 302.972 505.732 306.911C507.833 310.73 627.073 229.858 628.507 232.464C630.458 236.019 512.279 307.084 513.785 309.818C515.65 313.208 625.029 238.226 626.736 241.329C628.113 243.83 526.716 310.587 528.042 313.004C529.369 315.422 620.891 253.998 622.003 256.024C623.114 258.05 530.552 310.903 531.958 313.456C533.364 316.01 618.955 257.259 620.375 259.843C621.795 262.426 538.498 311.468 539.803 313.848C540.929 315.897 615.599 265.243 616.689 267.224C617.513 268.716 554.527 311.054 555.323 312.5C556.226 314.142 607.043 279.426 607.753 280.707C608.248 281.603 575.187 305.133 575.718 306.098C575.933 306.497 592.069 295.575 592.32 296.027" stroke="#F6C409" stroke-width="3" stroke-linecap="round" stroke-linejoin="round"/>
<path d="M269.648 301.526C274.696 310.707 562.035 113.954 566.266 121.659C571.315 130.848 270.236 302.844 273.75 309.238C277.672 316.379 571.085 117.946 575.618 126.193C580.688 135.42 270.135 302.663 273.9 309.51C277.68 316.379 571.344 118.021 575.926 126.367C580.609 134.893 273.484 308.274 277.601 315.754C282.183 324.084 578.243 122.066 582.94 130.6C587.96 139.729 278.21 315.505 282.176 322.713C287.426 332.264 585.486 127.21 590.262 135.895C593.962 142.628 281.237 319.346 285.963 327.948C290.481 336.158 590.176 130.667 595.454 140.278C600.474 149.415 285.403 325.146 289.269 332.174C293.521 339.909 594.221 134.554 599.456 144.082C603.794 151.968 290.703 330.426 295.838 339.766C300.334 347.953 601.349 142.659 606.24 151.546C611.195 160.555 297.394 338.199 301.374 345.445C305.957 353.783 605.767 148.27 610.959 157.723C615.025 165.127 301.388 341.657 305.684 349.467C309.836 357.015 610.084 155.109 614.114 162.438C618.353 170.151 305.075 344.534 309.693 352.925C314.763 362.144 612.96 159.975 616.696 166.761C621.924 176.274 311.206 349.181 315.961 357.835C320.421 365.948 615.685 165.33 620.124 173.397C624.047 180.537 314.032 351.9 318.177 359.44C323.089 368.38 615.936 166.181 621.178 175.709C624.757 182.217 317.029 354.28 320.902 361.323C324.775 368.365 618.46 171.409 622.369 178.519C626.277 185.629 318.578 354.431 323.204 362.844C325.033 366.166 462.746 272.971 464.912 276.911C467.078 280.85 330.799 364.449 333.086 368.599C335.374 372.749 461.986 284.97 464.238 289.067C465.995 292.261 333.725 366.505 335.575 369.872C337.425 373.239 461.864 288.269 463.937 292.035C465.923 295.643 338.694 368.795 340.58 372.229C342.144 375.069 461.463 294.732 463.191 297.88C464.919 301.028 347.867 373.171 349.244 375.671C350.907 378.707 460.208 305.239 461.506 307.596C462.847 310.037 358.036 375.717 359.735 378.82C361.041 381.193 457.188 315.806 458.802 318.744C459.964 320.86 360.912 377.103 362.167 379.385C363.529 381.855 456.722 318.782 458.07 321.23C459.146 323.18 373.297 378.843 374.695 381.373C375.656 383.128 452.34 331.074 453.667 333.484C454.664 335.299 391.419 379.528 392.43 381.358C393.162 382.691 444.724 348.089 445.363 349.256C446.001 350.424 396.267 379.204 397.12 380.748C397.715 381.825 441.992 351.847 442.688 353.113C443.096 353.859 412.94 375.468 413.378 376.251C413.686 376.816 431.149 364.825 431.414 365.315C431.658 365.752 415.078 375.076 415.286 375.446C415.529 375.897 429.671 366.287 429.851 366.61" stroke="#F6C409" stroke-width="3" stroke-linecap="round" stroke-linejoin="round"/>
<path d="M2.61121 364.396C8.92926 375.89 519.128 31.8538 527.096 46.3531C533.514 58.0279 39.2502 334.976 45.3603 346.085C52.4887 359.056 525.203 41.2765 530.904 51.6557C538.147 64.8294 82.7594 320.175 88.9054 331.353C94.8935 342.244 529.857 49.3961 535.866 60.3252C542.055 71.5781 93.6385 317.644 100.616 330.336C106.253 340.587 532.804 55.5649 538.039 65.093C545.032 77.8072 96.8657 319.663 102.746 330.358C109.946 343.464 531.284 53.0567 538.477 66.1399C543.511 75.2914 97.9701 318.104 104.747 330.441C111.036 341.883 531.937 54.533 538.886 67.1869C544.142 76.7451 105.005 320.476 110.821 331.059C116.078 340.617 534.439 60.28 540.169 70.7119C546.595 82.3942 115.805 323.482 121.299 333.477C126.218 342.425 536.067 66.7124 542.357 78.1536C548.503 89.3313 122.504 325.817 128.011 335.827C134.38 347.411 538.147 73.9281 543.59 83.8253C549.449 94.4832 122.217 324.28 128.714 336.105C134.279 346.236 537.946 73.9884 543.705 84.458C548.495 93.1651 129.395 328.513 135.025 338.742C140.755 349.159 537.831 78.1085 544.587 90.3933C549.844 99.9515 138.159 332.113 143.918 342.591C148.816 351.501 540.542 90.6795 545.247 99.2285C551.221 110.097 148.751 335.917 154.531 346.424C160.763 357.76 539.703 99.8837 545.053 109.623C551.307 120.996 158.504 339.405 163.46 348.42C170.007 360.329 541.905 105.842 547.305 115.663C552.368 124.875 161.71 338.229 167.583 348.925C173.629 359.929 545.318 106.361 550.891 116.492C556.8 127.24 173.019 341.054 177.458 349.128C182.773 358.8 552.325 108.508 557.811 118.488C563.003 127.941 194.921 333.966 200.794 344.647C201.813 346.5 261.006 306.211 261.802 307.657C262.455 308.847 205.076 341.333 205.908 342.839C206.524 343.961 255.298 311.295 255.957 312.492C256.416 313.328 217.468 336.663 217.956 337.544C218.372 338.305 242.489 321.93 242.798 322.48" stroke="#F6C409" stroke-width="3" stroke-linecap="round" stroke-linejoin="round"/>
<path d="M402.047 35.5521C402.284 35.9814 419.976 23.9677 420.262 24.5025C420.678 25.2632 393.398 41.8866 393.764 42.5494C394.359 43.6265 429.521 19.6142 430.037 20.5557" stroke="#F6C409" stroke-width="3" stroke-linecap="round" stroke-linejoin="round"/>
<path d="M191.45 24.5628C191.708 25.0373 210.218 12.3909 210.54 12.9859C211.064 13.9425 180.693 32.479 181.123 33.2623C181.632 34.1888 221.965 6.80961 222.66 8.075C223.621 9.82245 162.162 52.198 163.202 54.0961C164.485 56.4311 246.369 0.444981 247.703 2.85525C249.187 5.55174 160.412 53.953 161.696 56.288C162.979 58.6229 248.657 -0.0295369 250.141 2.65942C251.626 5.34838 151.907 67.4882 153.355 70.132C155.091 73.2804 263.545 -0.13499 264.965 2.45605C266.822 5.83796 150.774 68.2791 152.588 71.5856C154.216 74.5458 264.886 -0.360955 266.471 2.52384C268.263 5.78524 150.637 68.6707 152.416 71.902C154.194 75.1333 265.424 0.0307172 266.808 2.53891" stroke="#F6C409" stroke-width="3" stroke-linecap="round" stroke-linejoin="round"/>
<path d="M37.7585 73.6946C37.9952 74.124 53.8513 63.4585 54.0521 63.8125C54.6186 64.852 16.8752 96.8483 17.5063 97.9932C18.4816 99.7708 86.5316 53.84 87.4782 55.5649C88.6113 57.6287 11.6688 108.38 12.6082 110.082C14.0497 112.703 100.932 53.486 102.187 55.7607C103.714 58.5476 8.08303 119.821 9.74681 122.857C11.0592 125.244 115.225 55.4368 116.652 58.0354C118.229 60.9127 8.0902 120.341 9.68943 123.256C11.2887 126.171 115.598 55.4519 117.075 58.1409C118.853 61.3797 7.15791 127.308 8.97229 130.607C10.6146 133.597 123.443 57.5684 124.935 60.2875C126.34 62.8484 6.94277 137.657 8.9436 141.303C10.6719 144.444 134.021 61.0558 135.835 64.3548C137.47 67.33 7.22963 138.478 8.95795 141.627C10.844 145.054 134.559 61.5981 136.151 64.4979C138.317 68.4448 8.16909 148.39 10.0122 151.742C12.307 155.923 144.075 65.9667 145.926 69.326C148.249 73.544 9.16592 154.514 11.2313 158.28C14.6449 164.487 263.774 -5.00073 267.955 2.60669C272.258 10.4325 9.06552 158.152 13.0385 165.375C16.2872 171.288 276.389 -2.16112 279.623 3.72145C282.857 9.60402 11.8265 166.626 16.072 174.346C20.6259 182.631 289.599 -1.39285 293.665 6.01873C298.082 14.0555 15.4911 174.708 18.7542 180.643C23.0714 188.499 299.244 0.550437 303.375 8.05241C306.832 14.3342 17.6784 179.152 21.3861 185.9C25.3304 193.078 308.201 3.81936 311.565 9.94296C316.076 18.1529 18.245 180.161 22.7487 188.356C26.528 195.233 311.866 4.33908 315.452 10.8694C319.712 18.6124 19.2275 181.878 23.473 189.599C28.1273 198.065 313.924 4.97177 317.424 11.3515C322.415 20.4352 21.3502 185.102 26.2125 193.945C30.0635 200.949 319.79 4.93411 324.323 13.1742C329.185 22.0169 22.6626 187.301 26.7718 194.766C31.8421 203.985 320.873 4.88892 325.635 13.5433C329.967 21.4219 26.4491 192.242 30.8811 200.302C35.9728 209.574 330.038 8.30096 334.406 16.2473C338.773 24.1937 32.8389 200.151 36.3386 206.516C40.663 214.379 339.892 11.6979 344.317 19.7573C348.742 27.8166 32.2795 198.125 37.6007 207.804C42.8933 217.422 341.52 11.713 346.382 20.5632C351.553 29.9708 34.5672 201.025 39.1068 209.287C43.259 216.842 344.102 13.0311 348.763 21.5123C352.542 28.3815 36.2167 202.207 41.1434 211.163C45.5395 219.162 347.436 14.7936 351.825 22.7701C357.089 32.351 40.0032 206.568 43.7754 213.438C47.5834 220.36 351.252 16.5486 355.554 24.3745C360.89 34.0758 41.4733 206.139 46.8232 215.871C51.0042 223.478 354.974 17.7763 359.606 26.2048C364.834 35.7103 46.4432 210.221 51.3197 219.102C56.6051 228.72 360.639 20.7289 365.1 28.8335C370.392 38.467 48.8312 213.167 52.5389 219.915C57.3725 228.705 362.03 21.3993 366.505 29.5339C371.633 38.8587 55.4505 215.592 60.3629 224.525C64.006 231.153 370.242 25.67 374.76 33.88C378.733 41.1033 57.9533 218.492 61.6251 225.18C66.2579 233.609 371.21 25.8733 375.986 34.5579C380.762 43.2424 64.3933 219.863 69.2412 228.683C73.2572 235.989 378.962 31.5074 382.82 38.5348C387.539 47.1214 73.4365 223.267 78.1768 231.884C82.9172 240.501 384.886 33.9402 389.82 42.911C393.577 49.7501 82.2646 226.596 86.3308 234C92.4337 245.11 438.37 6.22211 444.273 16.9478C449.3 26.0918 82.5945 225.587 87.3276 234.196C91.6162 241.992 439.912 5.46889 446.065 16.6616C451.716 26.9504 84.2941 233.556 89.2711 242.609C95.1015 253.222 457.454 4.8362 463.435 15.7201C469.817 27.3346 83.0463 235.416 88.8623 245.991C94.1047 255.527 463.334 7.0883 468.211 15.9611C473.812 26.1445 81.5259 245.426 87.3133 255.964C93.1006 266.501 474.063 6.22963 480.345 17.6483C484.942 26.0089 81.8988 249.441 86.8543 258.465C91.817 267.488 476.609 6.61378 483.006 18.2433C489.474 30.0085 78.0836 254.066 85.0184 266.682C90.4759 276.609 484.856 9.49104 490.93 20.5482C495.756 29.3231 75.9322 269.213 81.3825 279.125C86.2949 288.066 495.993 15.8406 500.891 24.7435C507.001 35.8609 75.3585 269.657 81.0741 280.044C87.9013 292.457 495.491 14.0555 501.551 25.0749C506.973 34.942 68.5886 282.515 75.172 294.498C80.9379 304.983 504.835 20.164 510.522 30.5056C516.747 41.8339 65.677 291.628 71.3424 301.932C78.5426 315.031 509.081 23.8623 514.287 33.3377C521.143 45.8108 63.0379 291.621 70.0014 304.29C76.9649 316.959 509.791 24.0882 515.363 34.2189C521.918 46.1422 46.9954 313.178 53.966 325.862C60.2912 337.363 515.385 27.666 522.965 41.4648C528.846 52.1679 31.3329 329.116 37.7585 340.813C44.0694 352.299 519.243 32.7652 525.877 44.8241C533.607 58.8941 24.0969 332.919 31.1895 345.814C37.7083 357.677 518.361 30.8295 526.436 45.5095C533.622 58.5777 23.0857 334.607 29.7982 346.816C37.7298 361.248 519.186 32.2681 526.522 45.615" stroke="#F6C409" stroke-width="3" stroke-linecap="round" stroke-linejoin="round"/>
<path d="M54.5971 63.9104C54.6616 64.031 58.4697 61.4324 58.5199 61.5303C58.6705 61.8015 69.8508 58.3292 69.9727 58.5551C69.9942 58.6003 71.8014 57.3801 71.8301 57.4328C71.995 57.7417 84.3299 55.7984 84.4949 56.0997C84.5092 56.1298 85.7427 55.2937 85.7642 55.3314C85.7714 55.3464 86.3236 55.934 86.338 55.949C86.3523 55.9792 87.5427 55.1657 87.5643 55.2033C87.7077 55.4594 99.347 55.5724 99.5047 55.8662C99.5191 55.8963 100.473 55.241 100.487 55.2711C100.523 55.3389 103.162 56.0997 103.191 56.1599C103.205 56.19 104.123 55.5649 104.138 55.5875C104.267 55.821 113.116 57.3801 113.252 57.6287C113.26 57.6513 114.077 57.1014 114.091 57.124C114.17 57.2671 121.371 59.4138 121.457 59.5795C121.471 59.6021 122.217 59.0899 122.224 59.1125C122.26 59.1728 124.705 60.4833 124.748 60.5587C124.763 60.5813 125.494 60.0841 125.501 60.0992C125.63 60.3402 136.366 64.739 136.502 64.9875C136.509 65.0026 137.176 64.5582 137.191 64.5733C137.205 64.6034 138.245 65.7483 138.266 65.7859C138.281 65.8085 138.933 65.3566 138.941 65.3792C138.991 65.4696 142.813 67.9477 142.871 68.0456C142.878 68.0606 143.516 67.6238 143.53 67.6464C143.537 67.6614 143.165 68.1887 143.172 68.2037C143.179 68.2188 143.824 67.7895 143.832 67.8045C143.839 67.8196 143.846 68.5427 143.853 68.5578C143.86 68.5728 144.491 68.1435 144.498 68.1661C144.52 68.2037 145.825 69.5972 145.847 69.6424C145.854 69.6574 146.478 69.2356 146.485 69.2507C146.506 69.2884 147.532 70.5688 147.554 70.6065C147.561 70.6291 148.185 70.2073 148.192 70.2223C148.22 70.2826 150.214 72.1581 150.236 72.2108C150.243 72.2259 150.881 71.7966 150.888 71.8191C150.91 71.8493 151.512 72.9791 151.534 73.0168C151.548 73.0469 152.466 72.4217 152.48 72.4443" stroke="black" stroke-width="3" stroke-linecap="round" stroke-linejoin="round"/>
<path d="M191.357 24.2163C191.586 24.6381 210.153 12.1423 210.433 12.647C210.87 13.4454 184.207 29.0971 184.551 29.7298C184.601 29.8277 188.079 27.44 188.137 27.553C188.424 28.0803 170.768 42.798 171.09 43.3779C171.112 43.4231 172.847 42.2481 172.876 42.2933C173.141 42.7754 156.998 61.7713 157.364 62.4342C157.386 62.4718 158.54 61.6809 158.555 61.7111C158.684 61.9446 152.158 71.1036 152.308 71.3823C152.323 71.4124 153.355 70.7119 153.37 70.7421" stroke="black" stroke-width="3" stroke-linecap="round" stroke-linejoin="round"/>
<path d="M210.705 13.242C210.763 13.3475 215.195 10.3497 215.266 10.4777C215.603 11.0954 244.612 2.76487 244.971 3.42769C244.992 3.46535 246.304 2.56903 246.326 2.60669C246.419 2.77239 253.684 2.59915 253.763 2.73473C253.777 2.76486 254.932 1.98906 254.946 2.01919C255.125 2.34307 267.173 2.5841 267.317 2.84772C267.331 2.87031 268.299 2.21502 268.314 2.24515C268.357 2.32047 272 3.08874 272.05 3.19419C272.064 3.21678 272.997 2.5841 273.011 2.61423C273.04 2.66695 275.184 3.44275 275.213 3.49548C275.227 3.51808 276.131 2.90044 276.145 2.93057C276.195 3.02096 280.268 4.02272 280.319 4.10558C280.333 4.12817 281.201 3.53314 281.215 3.56327C281.229 3.58586 282.04 4.33154 282.054 4.35414C282.068 4.38427 282.936 3.78923 282.951 3.81183C283.13 4.13571 294.611 6.2221 294.791 6.55351C294.798 6.56857 295.615 6.02626 295.63 6.04886C295.802 6.36521 309.004 9.33285 309.212 9.70192C309.227 9.72452 310.008 9.18974 310.023 9.21234C310.059 9.2726 312.755 10.4627 312.791 10.5455C312.798 10.5606 313.609 10.0183 313.623 10.0409C313.709 10.199 319.848 12.1273 319.948 12.3005C319.962 12.3231 320.723 11.8034 320.737 11.826C320.773 11.8862 323.147 13.1064 323.175 13.1667C323.182 13.1818 323.943 12.6771 323.95 12.6997C324.05 12.888 332.477 15.7954 332.577 15.9762C332.584 15.9912 333.309 15.5092 333.323 15.5242C333.352 15.577 335.202 16.7896 335.23 16.8424C335.245 16.865 335.955 16.3829 335.962 16.398C335.991 16.4507 338.415 17.8893 338.443 17.942C338.458 17.9646 339.16 17.4826 339.168 17.5052C339.232 17.6182 343.356 19.6443 343.42 19.7648C343.427 19.7799 344.13 19.3129 344.137 19.328C344.152 19.3581 344.976 20.3222 344.998 20.3598C345.005 20.3824 345.694 19.9154 345.708 19.9305C345.78 20.051 351.359 22.8078 351.438 22.9434C351.452 22.9659 352.119 22.5065 352.126 22.5216C352.241 22.7249 360.331 26.7169 360.46 26.9504C360.474 26.973 361.127 26.5211 361.141 26.5362C361.284 26.7998 370.428 31.7107 370.579 31.9819C370.586 32.0045 371.224 31.5751 371.231 31.5902C371.324 31.7634 378.647 36.3279 378.733 36.4936C378.74 36.5162 379.364 36.0869 379.371 36.1019C379.421 36.1923 382.899 38.8813 382.957 38.9792C382.964 38.9943 383.573 38.58 383.588 38.595C383.681 38.7683 390.401 43.5436 390.501 43.7244C390.508 43.7395 391.139 43.3177 391.146 43.3327C391.154 43.3478 390.996 44.0332 391.003 44.0483C391.01 44.0634 391.641 43.6416 391.656 43.6566C391.663 43.6717 391.505 44.3646 391.519 44.3872C391.555 44.4475 393.656 43.0164 393.692 43.0691" stroke="black" stroke-width="3" stroke-linecap="round" stroke-linejoin="round"/>
<path d="M401.839 35.3035C402.09 35.763 419.861 23.6514 420.155 24.1937C420.557 24.9243 393.384 41.3443 393.778 42.0674C393.814 42.1351 396.69 40.1843 396.74 40.2747" stroke="black" stroke-width="3" stroke-linecap="round" stroke-linejoin="round"/>
<path d="M420.463 24.7812C420.528 24.8942 424.666 22.0546 424.737 22.1901C424.988 22.6496 441.347 17.3545 441.576 17.7688C441.598 17.8065 443.182 16.7444 443.204 16.7821C443.261 16.88 448.109 16.5863 448.174 16.6992C448.195 16.7369 449.515 15.8406 449.536 15.8783C449.601 15.9988 454.886 16.0138 454.951 16.1193C454.972 16.1494 456.098 15.3887 456.113 15.4188C456.278 15.7125 471.474 16.2247 471.711 16.6465C471.725 16.6691 472.628 16.059 472.643 16.0816C472.664 16.1193 474.307 16.9252 474.335 16.9704C474.35 16.993 475.225 16.398 475.239 16.4206C475.447 16.7972 488.693 19.8326 488.879 20.164C488.886 20.1791 489.625 19.682 489.639 19.7046C489.754 19.9079 496.796 22.9434 496.904 23.1392C496.918 23.1618 497.585 22.7099 497.592 22.7249C497.643 22.8228 501.207 25.1201 501.257 25.203C501.264 25.218 501.91 24.7812 501.917 24.8038C501.924 24.8264 501.293 25.2105 501.3 25.2256C501.307 25.2406 501.953 24.8038 501.96 24.8264C502.01 24.9092 504.864 27.1237 504.907 27.2065C504.914 27.2216 505.538 26.7998 505.545 26.8224C505.617 26.9504 510.537 30.7541 510.608 30.8973C510.616 30.9123 511.211 30.5131 511.218 30.5282C511.268 30.6186 514.417 33.7369 514.481 33.8574C514.488 33.8724 515.062 33.4808 515.069 33.5034C515.119 33.5862 517.235 36.1848 517.271 36.2526C517.278 36.2676 517.837 35.8835 517.852 35.8986C517.88 35.9513 518.97 37.8042 518.999 37.8569C519.006 37.872 519.566 37.4954 519.573 37.5104C519.623 37.6008 521.516 40.335 521.552 40.4103C521.559 40.4254 522.112 40.0563 522.119 40.0714C522.198 40.2145 525.224 44.4852 525.288 44.5981C525.288 44.6132 525.841 44.2441 525.848 44.2592C525.912 44.3797 528.157 48.2286 528.222 48.3416C528.229 48.3567 528.759 47.9876 528.774 48.0102C528.774 48.0252 528.25 48.3793 528.257 48.3943C528.265 48.4094 528.802 48.0478 528.81 48.0629C528.91 48.2437 532.639 55.0075 532.732 55.1807C532.74 55.1958 533.27 54.8343 533.278 54.8493C533.328 54.9472 534.798 58.9016 534.841 58.9845C534.841 58.9995 535.379 58.638 535.386 58.653C535.515 58.8865 538.864 68.1284 539.007 68.392C539.015 68.4071 539.553 68.0456 539.56 68.0606C539.653 68.2339 540.958 74.3499 541.037 74.493C541.044 74.5081 541.589 74.139 541.596 74.1541C541.632 74.2219 541.941 77.89 541.984 77.9729C541.984 77.9879 542.543 77.6113 542.55 77.6264C542.557 77.6415 541.998 78.0331 542.005 78.0482C542.012 78.0633 542.565 77.6942 542.572 77.7017C542.629 77.8072 542.894 82.0703 542.945 82.1607C542.952 82.1758 543.504 81.7992 543.511 81.8142C543.612 81.995 544.314 91.5984 544.422 91.7943C544.429 91.8093 545.01 91.4177 545.017 91.4327C545.082 91.5532 544.759 96.8031 544.831 96.9387C544.838 96.9538 545.433 96.5546 545.44 96.5696C545.569 96.8031 544.651 108.47 544.809 108.764C544.816 108.779 545.455 108.35 545.462 108.365C545.534 108.493 544.142 114.601 544.235 114.767C544.243 114.782 544.917 114.33 544.931 114.345C544.996 114.466 549.471 116.394 549.535 116.507C549.55 116.53 550.324 116.002 550.338 116.025C550.381 116.108 553.193 117.388 553.236 117.464C553.243 117.486 553.989 116.974 554.003 116.997C554.132 117.238 562.164 120.22 562.293 120.454C562.3 120.469 563.003 119.994 563.018 120.017C563.025 120.032 563.398 120.861 563.412 120.883C563.419 120.898 564.115 120.431 564.122 120.454C564.136 120.484 564.868 121.456 564.889 121.486C564.896 121.501 565.592 121.026 565.606 121.049C565.678 121.185 570.806 124.039 570.885 124.182C570.892 124.197 571.573 123.745 571.58 123.76C571.673 123.934 578.737 128.34 578.831 128.498C578.838 128.513 579.505 128.069 579.512 128.084C579.648 128.332 587.902 134.471 588.046 134.72C588.053 134.742 588.713 134.29 588.727 134.305C588.777 134.388 591.23 137.16 591.273 137.243C591.28 137.258 591.933 136.814 591.947 136.836C591.969 136.866 592.342 138.117 592.356 138.147C592.363 138.169 593.023 137.717 593.03 137.733C593.102 137.868 596.322 141.581 596.394 141.709C596.401 141.725 597.053 141.288 597.068 141.303C597.175 141.499 601.808 147.042 601.894 147.2C601.901 147.215 602.547 146.779 602.554 146.801C602.582 146.854 603.235 148.654 603.264 148.707C603.271 148.722 603.909 148.293 603.924 148.308C603.988 148.428 606.914 152.978 607 153.121C607.007 153.136 607.638 152.706 607.645 152.729C607.653 152.744 607.179 153.347 607.194 153.369C607.201 153.384 607.832 152.962 607.839 152.977C607.853 153 607.581 153.851 607.588 153.866C607.602 153.889 608.226 153.452 608.234 153.475C608.305 153.603 610.772 158.107 610.844 158.227C610.851 158.242 611.461 157.828 611.468 157.851C611.532 157.971 613.469 162.121 613.526 162.227C613.526 162.242 614.129 161.835 614.136 161.858C614.15 161.888 614.121 163.176 614.136 163.206C614.143 163.221 614.738 162.822 614.745 162.837C614.781 162.905 615.742 165.872 615.785 165.948C615.792 165.963 616.373 165.571 616.38 165.586C616.481 165.767 619.227 172.41 619.299 172.546C619.306 172.561 619.88 172.177 619.887 172.192C619.995 172.388 622.419 179.641 622.505 179.799C622.512 179.814 623.064 179.438 623.071 179.453C623.1 179.506 623.2 181.63 623.222 181.675C623.229 181.69 623.781 181.313 623.788 181.328C623.803 181.358 623.631 182.82 623.652 182.857C623.652 182.872 624.212 182.503 624.219 182.518C624.262 182.601 624.986 186.887 625.029 186.962C625.036 186.977 625.581 186.601 625.588 186.623C625.639 186.714 626.069 190.676 626.126 190.774C626.134 190.789 626.686 190.42 626.693 190.427C626.729 190.487 626.757 193.342 626.8 193.417C626.8 193.432 627.353 193.056 627.367 193.078C627.446 193.222 628.034 199.759 628.127 199.933C628.134 199.948 628.694 199.571 628.701 199.586C628.83 199.82 629.181 210.741 629.339 211.027C629.346 211.042 629.942 210.636 629.956 210.658C629.97 210.681 629.346 211.381 629.361 211.396C629.368 211.412 629.97 211.005 629.977 211.02C630.071 211.186 629.353 218.311 629.432 218.462C629.447 218.484 630.085 218.047 630.092 218.062C630.2 218.266 628.73 226.672 628.859 226.898C628.866 226.92 629.597 226.423 629.612 226.446C629.734 226.672 627.41 235.461 627.539 235.687C627.553 235.71 628.385 235.145 628.4 235.168C628.493 235.341 626.155 241.495 626.227 241.63C626.241 241.653 627.138 241.05 627.152 241.073C627.188 241.141 625.567 243.913 625.61 243.988C625.624 244.018 626.549 243.378 626.564 243.408C626.772 243.784 620.855 257.048 621.006 257.327C621.027 257.365 622.117 256.612 622.139 256.642C622.275 256.89 615.577 267.789 615.756 268.106C615.778 268.136 617.033 267.285 617.047 267.322C617.262 267.714 603.787 284.217 604.031 284.661C604.06 284.706 605.932 283.448 605.96 283.494C606.175 283.885 591.962 295.417 592.177 295.809C592.227 295.899 596.092 293.308 596.142 293.406" stroke="black" stroke-width="3" stroke-linecap="round" stroke-linejoin="round"/>
<path d="M465.6 276.24C465.6 276.24 466.145 275.894 466.153 275.901C466.181 275.954 467.279 278.334 467.314 278.402C467.322 278.417 467.859 278.056 467.867 278.071C467.888 278.101 468.433 279.743 468.455 279.788C468.462 279.803 469 279.441 469.007 279.449C469.021 279.472 469.071 280.503 469.086 280.526C469.093 280.541 469.624 280.18 469.631 280.195C469.652 280.232 470.355 281.965 470.377 282.002C470.377 282.017 470.915 281.656 470.922 281.671C470.993 281.807 475.038 286.808 475.124 286.966C475.131 286.981 475.655 286.627 475.662 286.635C475.755 286.808 481.736 292.751 481.858 292.969C481.865 292.984 482.389 292.63 482.396 292.645C482.439 292.728 485.458 295.711 485.501 295.794C485.508 295.809 486.032 295.455 486.039 295.47C486.061 295.507 487.05 296.893 487.072 296.931C487.079 296.946 487.602 296.592 487.61 296.607C487.696 296.758 491.948 300.087 492.027 300.23C492.034 300.245 492.572 299.876 492.579 299.899C492.623 299.981 495.95 302.49 495.993 302.565C496 302.58 496.545 302.211 496.56 302.226C496.646 302.384 502.82 305.902 502.899 306.052C502.906 306.067 503.48 305.683 503.487 305.698C503.487 305.713 503.329 306.248 503.337 306.256C503.344 306.271 503.925 305.879 503.932 305.894C504.032 306.082 511.204 309.223 511.297 309.389C511.304 309.404 511.928 308.982 511.935 308.997C511.971 309.065 514.216 310.27 514.252 310.338C514.259 310.353 514.904 309.916 514.911 309.939C515.098 310.278 526.974 312.937 527.139 313.23C527.146 313.245 527.892 312.748 527.899 312.771C527.906 312.794 528.688 313.426 528.702 313.456C528.716 313.479 529.477 312.959 529.484 312.982C529.498 313.012 530.646 313.652 530.66 313.69C530.674 313.712 531.449 313.178 531.463 313.2C531.506 313.283 534.891 313.953 534.934 314.044C534.948 314.066 535.78 313.494 535.795 313.524C535.96 313.825 551.45 313.11 551.622 313.426C551.644 313.464 552.891 312.605 552.913 312.643C553.185 313.14 575.546 305.811 575.883 306.421C576.091 306.806 592.234 295.861 592.499 296.343" stroke="black" stroke-width="3" stroke-linecap="round" stroke-linejoin="round"/>
<path d="M464.611 274.493C464.611 274.493 464.926 274.289 464.933 274.297C464.948 274.32 464.611 275.08 464.618 275.103C464.632 275.126 465.242 274.704 465.249 274.719C465.263 274.749 464.596 276.278 464.618 276.316C464.625 276.331 465.242 275.916 465.249 275.931C465.414 276.225 463.922 287.23 464.087 287.523C464.102 287.546 464.74 287.102 464.754 287.124C464.847 287.297 463.37 293.79 463.442 293.918C463.449 293.933 464.116 293.489 464.123 293.504C464.145 293.549 463.198 295.598 463.227 295.651C463.234 295.666 463.908 295.221 463.915 295.236C464.03 295.447 461.67 304.418 461.814 304.674C461.828 304.697 462.524 304.222 462.531 304.237C462.567 304.297 461.29 307.114 461.333 307.19C461.348 307.212 462.043 306.73 462.058 306.753C462.201 307.009 457.762 320.627 457.913 320.913C457.927 320.936 458.701 320.409 458.709 320.431C458.723 320.454 457.755 321.358 457.769 321.38C457.784 321.403 458.565 320.876 458.572 320.891C458.673 321.079 455.431 327.85 455.539 328.046C455.553 328.069 456.385 327.504 456.392 327.526C456.557 327.828 450.669 338.749 450.849 339.081C450.863 339.111 451.831 338.455 451.838 338.478C452.046 338.855 443.598 350.876 443.756 351.17C443.778 351.207 445.061 350.334 445.083 350.364C445.334 350.816 429.449 365.94 429.693 366.377C429.743 366.46 433.092 364.215 433.135 364.291" stroke="black" stroke-width="3" stroke-linecap="round" stroke-linejoin="round"/>
<path d="M269.533 302.098C269.533 302.098 270.107 301.729 270.114 301.744C270.236 301.97 273.592 309.63 273.678 309.788C273.678 309.803 274.216 309.442 274.223 309.457C274.23 309.472 273.821 310.044 273.829 310.059C273.829 310.075 274.366 309.713 274.374 309.728C274.467 309.901 277.464 316.138 277.551 316.288C277.558 316.304 278.088 315.942 278.096 315.957C278.21 316.168 282.061 323.075 282.147 323.233C282.155 323.248 282.685 322.887 282.692 322.902C282.757 323.022 285.869 328.31 285.948 328.453C285.955 328.468 286.493 328.099 286.501 328.114C286.572 328.242 289.211 332.565 289.269 332.663C289.276 332.678 289.814 332.309 289.828 332.324C289.943 332.535 295.723 339.984 295.866 340.241C295.874 340.256 296.419 339.879 296.433 339.902C296.541 340.09 301.331 345.762 301.417 345.912C301.424 345.927 301.977 345.551 301.991 345.566C302.055 345.679 305.655 349.806 305.727 349.927C305.734 349.942 306.301 349.558 306.308 349.573C306.365 349.678 309.679 353.264 309.743 353.384C309.75 353.399 310.324 353.015 310.331 353.03C310.446 353.233 315.911 358.114 316.018 358.295C316.025 358.31 316.613 357.911 316.621 357.933C316.649 357.986 318.205 359.847 318.234 359.899C318.241 359.914 318.829 359.515 318.844 359.53C318.872 359.583 320.924 361.722 320.959 361.782C320.967 361.797 321.569 361.391 321.576 361.406C321.605 361.451 323.24 363.236 323.276 363.296C323.283 363.311 323.892 362.897 323.9 362.92C324.05 363.198 333.007 368.765 333.165 369.051C333.18 369.073 333.811 368.629 333.825 368.652C333.854 368.704 335.632 370.264 335.668 370.316C335.675 370.331 336.328 369.894 336.335 369.909C336.407 370.038 340.623 372.538 340.688 372.659C340.695 372.674 341.362 372.222 341.376 372.244C341.491 372.448 349.294 375.928 349.38 376.086C349.394 376.108 350.104 375.626 350.111 375.641C350.226 375.845 359.771 378.948 359.915 379.212C359.922 379.234 360.704 378.699 360.718 378.722C360.739 378.76 362.331 379.739 362.353 379.777C362.367 379.799 363.163 379.257 363.178 379.279C363.307 379.513 374.774 381.434 374.939 381.735C374.953 381.757 375.878 381.125 375.9 381.155C376.122 381.554 392.566 381.245 392.789 381.652C392.81 381.69 394.13 380.801 394.144 380.831C394.18 380.899 397.472 380.921 397.522 381.019C397.543 381.057 399.049 380.033 399.078 380.078C399.25 380.394 413.894 376.018 414.081 376.349C414.174 376.515 419.237 373.035 419.316 373.178C419.373 373.284 415.501 375.634 415.544 375.724C415.788 376.169 429.844 366.618 430.023 366.942" stroke="black" stroke-width="3" stroke-linecap="round" stroke-linejoin="round"/>
<path d="M267.453 302.347C267.482 302.399 269.691 300.908 269.726 300.968C270.114 301.669 242.403 321.425 242.776 322.096C242.869 322.269 249.137 318.059 249.216 318.194" stroke="black" stroke-width="3" stroke-linecap="round" stroke-linejoin="round"/>
<path d="M2.13788 364.275C2.46777 364.878 25.9113 348.857 26.32 349.611C26.6284 350.168 9.38105 361.715 9.63205 362.174C9.68942 362.279 14.4082 359.078 14.4871 359.229C15.1828 360.494 63.7694 337.476 64.5296 338.855C64.5726 338.937 67.4842 336.949 67.5272 337.039C67.5631 337.1 69.8293 336.851 69.858 336.904C69.8938 336.972 72.4827 335.202 72.5257 335.284C72.8126 335.804 93.7102 330.562 93.9827 331.059C94.0042 331.097 95.2521 330.253 95.2664 330.283C95.2808 330.306 95.8616 330.878 95.8688 330.901C95.8832 330.931 97.0808 330.125 97.0951 330.155C97.1023 330.178 96.672 330.825 96.6864 330.848C96.7079 330.878 97.8697 330.095 97.884 330.117C97.927 330.193 102.015 330.599 102.079 330.72C102.094 330.743 103.126 330.05 103.141 330.08C103.155 330.102 103.958 330.758 103.965 330.78C103.98 330.81 104.962 330.132 104.977 330.163C104.991 330.185 105.514 330.848 105.529 330.863C105.543 330.886 106.49 330.245 106.504 330.268C106.612 330.464 115.511 332.098 115.648 332.339C115.662 332.362 116.451 331.827 116.465 331.842C116.623 332.128 126.749 335.488 126.921 335.789C126.928 335.804 127.631 335.337 127.638 335.352C127.646 335.367 127.509 336 127.524 336.015C127.538 336.038 128.226 335.571 128.234 335.586C128.262 335.646 130.457 337.145 130.485 337.198C130.493 337.213 131.174 336.753 131.181 336.776C131.217 336.844 133.548 338.433 133.584 338.508C133.598 338.531 134.265 338.071 134.272 338.086C134.365 338.252 140.439 341.378 140.525 341.536C140.533 341.551 141.207 341.099 141.214 341.114C141.379 341.408 151.691 345.694 151.842 345.957C151.856 345.98 152.574 345.49 152.581 345.505C152.652 345.634 157.658 347.524 157.723 347.652C157.73 347.667 158.511 347.14 158.526 347.163C158.583 347.268 164.12 348.752 164.191 348.88C164.206 348.902 165.081 348.315 165.088 348.338C165.289 348.699 178.979 349.068 179.129 349.347C179.144 349.377 180.384 348.548 180.399 348.579C180.829 349.362 211.25 340.15 211.616 340.821C211.695 340.971 216.507 337.649 216.593 337.808C216.615 337.853 218.257 337.672 218.278 337.71C218.601 338.305 242.704 321.968 243.092 322.661" stroke="black" stroke-width="3" stroke-linecap="round" stroke-linejoin="round"/>
<path d="M37.5792 73.416C37.8159 73.8453 53.7509 63.1271 53.9517 63.4887C54.5254 64.5281 16.6171 96.6148 17.2553 97.7672C17.2697 97.7974 18.2952 97.1044 18.3095 97.127C18.4745 97.4358 12.2496 109.578 12.3931 109.826C12.4074 109.849 13.2034 109.306 13.2106 109.329C13.3899 109.653 9.32368 122.254 9.51731 122.608C9.52448 122.623 10.2058 122.171 10.2129 122.186C10.2273 122.209 9.44559 122.97 9.45994 123C9.46711 123.022 10.1484 122.563 10.1556 122.578C10.2631 122.766 8.59937 130.178 8.70694 130.374C8.71411 130.389 9.35237 129.959 9.35954 129.974C9.46711 130.17 8.47028 140.821 8.62088 141.099C8.62805 141.114 9.22328 140.715 9.23045 140.73C9.23762 140.745 8.62805 141.401 8.63522 141.423C8.64239 141.438 9.23763 141.039 9.2448 141.054C9.38823 141.318 9.51731 151.351 9.63922 151.569C9.6464 151.584 10.2129 151.2 10.2201 151.215C10.3133 151.388 10.7365 157.971 10.8225 158.129C10.8297 158.145 11.3819 157.768 11.3962 157.783C11.4966 157.971 12.5078 165.067 12.6082 165.24C12.6082 165.255 13.1604 164.886 13.1676 164.901C13.2608 165.074 15.5055 173.992 15.6346 174.218C15.6417 174.233 16.1796 173.872 16.1868 173.887C16.28 174.052 18.245 180.394 18.3095 180.515C18.3167 180.53 18.8474 180.168 18.8545 180.183C18.9119 180.289 20.8626 185.659 20.9271 185.78C20.9343 185.795 21.465 185.433 21.4721 185.448C21.508 185.516 22.2466 188.16 22.2897 188.228C22.2897 188.243 22.8275 187.881 22.8347 187.896C22.8562 187.934 22.9925 189.433 23.0068 189.471C23.014 189.486 23.5447 189.124 23.5519 189.139C23.6236 189.275 25.6603 193.696 25.732 193.824C25.732 193.839 26.2698 193.478 26.2842 193.493C26.2985 193.523 26.2842 194.63 26.2914 194.653C26.2985 194.668 26.8292 194.306 26.8435 194.321C26.9296 194.472 30.2858 200.053 30.3719 200.211C30.3791 200.226 30.9169 199.857 30.9241 199.872C31.0173 200.046 35.7218 206.305 35.8007 206.448C35.8079 206.463 36.3601 206.086 36.3672 206.101C36.3888 206.139 37.027 207.691 37.0557 207.736C37.0629 207.751 37.6151 207.374 37.6222 207.389C37.6509 207.442 38.533 209.175 38.5617 209.22C38.5689 209.235 39.1283 208.858 39.1354 208.873C39.1641 208.926 40.541 211.05 40.5769 211.11C40.5841 211.125 41.1506 210.741 41.1578 210.756C41.208 210.839 43.1658 213.325 43.1945 213.392C43.1945 213.408 43.7754 213.023 43.7825 213.038C43.8399 213.136 46.1778 215.742 46.2352 215.84C46.2423 215.855 46.8232 215.464 46.8304 215.479C46.9093 215.614 50.6384 218.959 50.703 219.087C50.7102 219.102 51.3054 218.703 51.3126 218.718C51.3341 218.755 51.8934 219.878 51.9078 219.9C51.915 219.915 52.5174 219.509 52.5245 219.524C52.6464 219.75 59.5597 224.322 59.6745 224.532C59.6816 224.548 60.3127 224.118 60.3271 224.141C60.3414 224.163 60.9151 225.18 60.9295 225.195C60.9366 225.21 61.5749 224.781 61.5893 224.796C61.6897 224.984 68.3878 228.532 68.4954 228.728C68.5025 228.743 69.1838 228.291 69.191 228.306C69.3057 228.517 77.2517 231.756 77.3665 231.967C77.3808 231.989 78.1051 231.492 78.1195 231.507C78.1983 231.658 85.3411 233.97 85.4272 234.136C85.4415 234.158 86.2375 233.616 86.2519 233.639C86.2591 233.654 86.4025 234.332 86.4097 234.347C86.4168 234.362 87.2272 233.82 87.2416 233.842C87.3563 234.045 88.848 242.218 88.9484 242.399C88.9555 242.421 89.6153 241.969 89.6296 241.984C89.687 242.082 88.4894 245.69 88.5396 245.78C88.5468 245.796 89.2209 245.344 89.228 245.359C89.3571 245.592 86.8615 255.512 86.9906 255.753C87.0049 255.776 87.7005 255.294 87.7077 255.316C87.7364 255.369 86.4814 258.186 86.5101 258.246C86.5172 258.261 87.2272 257.779 87.2416 257.802C87.3635 258.02 84.5523 266.223 84.6813 266.456C84.6885 266.471 85.4343 265.967 85.4487 265.989C85.5778 266.23 80.9092 278.613 81.0598 278.884C81.0669 278.899 81.8845 278.357 81.8917 278.379C81.9132 278.417 80.7155 279.773 80.737 279.811C80.7514 279.833 81.5761 279.268 81.5904 279.291C81.7626 279.6 74.6557 293.865 74.8636 294.242C74.878 294.265 75.8246 293.624 75.8389 293.647C75.9465 293.85 70.9408 301.488 71.0412 301.669C71.0556 301.699 72.1098 300.991 72.1241 301.013C72.1743 301.104 69.6428 303.936 69.7002 304.026C69.7217 304.056 70.8189 303.318 70.8333 303.341C71.1631 303.943 53.3421 324.95 53.6935 325.598C53.7222 325.643 55.6154 324.355 55.6513 324.416C55.9023 324.868 37.1704 340.09 37.443 340.587C37.4932 340.677 41.3155 338.109 41.3657 338.207C41.5379 338.516 30.6516 345.34 30.8094 345.626C30.8811 345.762 36.3242 342.063 36.4103 342.229C36.5107 342.41 29.5042 346.326 29.5974 346.492C29.6906 346.658 35.5425 342.673 35.6358 342.832" stroke="black" stroke-width="3" stroke-linecap="round" stroke-linejoin="round"/>
</svg>
